<?xml version="1.0" standalone="no"?>
<!DOCTYPE svg PUBLIC "-//W3C//DTD SVG 1.1//EN" "http://www.w3.org/Graphics/SVG/1.1/DTD/svg11.dtd" >
<svg xmlns="http://www.w3.org/2000/svg" xmlns:xlink="http://www.w3.org/1999/xlink" version="1.1">
<metadata>
Created by FontForge 20170731 at Tue May 25 04:00:00 1993
 By Aleksey,,,
(c) 1981 Linotype-Hell AG
</metadata>
<defs>
<font id="Memphis-ExtraBold" horiz-adv-x="1365" >
  <font-face 
    font-family="Memphis Extra Bold"
    font-weight="800"
    font-stretch="normal"
    units-per-em="2048"
    panose-1="2 6 9 4 2 2 5 2 4 4"
    ascent="1638"
    descent="-410"
    x-height="1000"
    cap-height="1484"
    bbox="-341 -500 2046 2012"
    underline-thickness="102"
    underline-position="-358"
    unicode-range="U+0020-FB02"
  />
<missing-glyph horiz-adv-x="1536" 
d="M256 0v1280h1024v-1280h-1024zM288 32h960v1216h-960v-1216z" />
    <glyph glyph-name=".notdef" horiz-adv-x="1536" 
d="M256 0v1280h1024v-1280h-1024zM288 32h960v1216h-960v-1216z" />
    <glyph glyph-name=".null" horiz-adv-x="0" 
 />
    <glyph glyph-name="nonmarkingreturn" horiz-adv-x="0" 
 />
    <glyph glyph-name="space" unicode=" " horiz-adv-x="682" 
 />
    <glyph glyph-name="exclam" unicode="!" horiz-adv-x="796" 
d="M180 1484h426l-19 -953h-372zM621 173q0 -93 -65.5 -158t-157.5 -65t-157.5 65.5t-65.5 157.5t65.5 157.5t157.5 65.5t157.5 -65t65.5 -158z" />
    <glyph glyph-name="quotedbl" unicode="&#x22;" horiz-adv-x="683" 
d="M192 834h-118q-60 223 -76 333q-22 155 -22 198q0 65 43 108t111 43q72 0 116.5 -44t44.5 -115q0 -25 -6 -61q-36 -199 -93 -462zM609 834h-116q-49 197 -81 369q-19 102 -19 146q0 79 42.5 122.5t113.5 43.5t116 -45.5t45 -116.5q0 -17 -2 -28z" />
    <glyph glyph-name="numbersign" unicode="#" 
d="M356 877h-266l66 194h266l126 363h275l-126 -363h204l128 363h272l-125 -363h251l-66 -194h-252l-104 -287h268l-66 -194h-268l-133 -396h-277l137 396h-206l-135 -396h-278l140 396h-251l66 194h252zM737 595l95 277h-204l-102 -277h211z" />
    <glyph glyph-name="dollar" unicode="$" 
d="M94 7v434h261q34 -67 93.5 -114.5t129.5 -63.5v318q-166 37 -257 75t-137 81.5t-72.5 109t-26.5 150.5q0 100 36 188.5t111 149t182 88.5q69 17 164 18v161h140v-166q71 -11 114 -27q63 -23 113 -56v69h240v-386h-242q-37 70 -98.5 111.5t-124.5 49.5v-284
q228 -35 355 -103q97 -51 145 -137.5t48 -217.5q0 -123 -36 -207t-108.5 -144.5t-185.5 -93.5q-87 -25 -218 -31v-190h-142v202q-57 7 -124 37.5t-115 71.5v-93h-245zM578 934v275q-107 1 -152 -35t-45 -96q0 -64 57 -102q38 -26 140 -42zM720 557v-306q124 0 174.5 39.5
t50.5 103.5t-40 99q-58 50 -185 64z" />
    <glyph glyph-name="percent" unicode="%" horiz-adv-x="2048" 
d="M1360 1491h197l-863 -1529h-199zM59 1028q0 187 126.5 307t288.5 120q108 0 208 -56t155.5 -156.5t55.5 -210.5q0 -173 -123.5 -296.5t-295.5 -123.5q-171 0 -293 121.5t-122 294.5zM476 1176q-56 0 -96.5 -41.5t-40.5 -100.5q0 -60 40.5 -101.5t96.5 -41.5
q57 0 97.5 41.5t40.5 101.5q0 59 -40.5 100.5t-97.5 41.5zM1157 417q0 179 122.5 303t292.5 124q108 0 207.5 -56t155.5 -157t56 -211q0 -172 -123.5 -296t-295.5 -124q-171 0 -293 121.5t-122 295.5zM1574 564q-57 0 -97.5 -41.5t-40.5 -100.5q0 -60 40.5 -101t97.5 -41
q56 0 96.5 41t40.5 101q0 59 -40.5 100.5t-96.5 41.5z" />
    <glyph glyph-name="ampersand" unicode="&#x26;" horiz-adv-x="1934" 
d="M962 827l280 -287q105 89 135 188h-116v270h555v-294h-131q-42 -107 -89 -177q-65 -97 -155 -181l52 -57h256v-291h-500l-102 102q-127 -70 -234.5 -99.5t-243.5 -29.5q-235 0 -372 95q-181 126 -181 353q0 98 36.5 175.5t113.5 140.5q56 45 149 88q-68 56 -116 145.5
t-48 167.5q0 88 51.5 173.5t156 132.5t248.5 47q217 0 327.5 -96.5t110.5 -244.5q0 -108 -45.5 -183.5t-137.5 -137.5zM725 991q42 0 87.5 52t45.5 119q0 58 -34.5 91.5t-97.5 33.5q-68 0 -106.5 -36t-38.5 -92q0 -74 67 -132q43 -36 77 -36zM906 337l-271 270
q-51 -24 -86 -75.5t-35 -106.5q0 -76 56.5 -131t140.5 -55q116 0 195 98z" />
    <glyph glyph-name="quotesingle" unicode="'" horiz-adv-x="455" 
d="M287 834h-116q-60 226 -80 352.5t-20 174.5q0 68 43 111t112 43q72 0 115.5 -43.5t43.5 -119.5q0 -42 -18 -141q-36 -194 -80 -377z" />
    <glyph glyph-name="parenleft" unicode="(" horiz-adv-x="796" 
d="M346 1512h360q-127 -282 -175 -480.5t-48 -417.5q0 -211 44 -418q35 -164 92 -306q32 -80 92 -179h-361q-68 112 -109 216q-59 147 -94.5 326.5t-35.5 347.5q0 227 63 466q51 193 172 445z" />
    <glyph glyph-name="parenright" unicode=")" horiz-adv-x="796" 
d="M443 1512q120 -250 171 -442q64 -241 64 -469q0 -167 -35.5 -346.5t-94.5 -326.5q-42 -104 -110 -217h-360q60 99 92 180q57 141 92 306q44 206 44 417q0 219 -48 417.5t-175 480.5h360z" />
    <glyph glyph-name="asterisk" unicode="*" horiz-adv-x="1252" 
d="M553 1169l-41 343h256l-54 -343l325 154l73 -252l-339 -52l247 -244l-206 -156l-178 310l-169 -310l-206 147l233 253l-330 71l83 240z" />
    <glyph glyph-name="plus" unicode="+" horiz-adv-x="1228" 
d="M52 403v320h403v401h318v-401h403v-320h-403v-403h-318v403h-403z" />
    <glyph glyph-name="comma" unicode="," horiz-adv-x="683" 
d="M235 382h358l-154 -562h-370z" />
    <glyph glyph-name="hyphen" unicode="-" horiz-adv-x="683" 
d="M62 299v403h555v-403h-555z" />
    <glyph glyph-name="hyphen" unicode="&#xad;" horiz-adv-x="683" 
d="M62 299v403h555v-403h-555z" />
    <glyph glyph-name="period" unicode="." horiz-adv-x="683" 
d="M560 173q0 -93 -65.5 -158t-157.5 -65t-157.5 65.5t-65.5 157.5t65.5 157.5t157.5 65.5t157.5 -65t65.5 -158z" />
    <glyph glyph-name="slash" unicode="/" horiz-adv-x="569" 
d="M152 -50h-190l441 1565h190z" />
    <glyph glyph-name="zero" unicode="0" 
d="M1261 917v-367q0 -175 -10 -234q-16 -88 -53.5 -146.5t-107.5 -104.5t-176 -70t-233 -24q-141 0 -236 22.5t-163.5 67.5t-111 105t-64.5 152q-11 50 -11 213v405q0 152 29 237q30 86 103.5 155.5t182 106t258.5 36.5q133 0 234 -23t172.5 -67t113.5 -100t57.5 -130
t15.5 -234zM507 562q0 -80 4 -108q7 -48 26 -77.5t50.5 -46.5t93.5 -17q71 0 109.5 27t52.5 72q11 33 11 102v425q0 85 -18 123.5t-57.5 59.5t-115.5 21q-67 0 -101.5 -28t-46.5 -79q-8 -35 -8 -135v-339z" />
    <glyph glyph-name="one" unicode="1" 
d="M322 1439h576v-1145h154v-294h-730v294h166v851h-166v294z" />
    <glyph glyph-name="two" unicode="2" 
d="M467 958h-381q-2 41 -2 70q0 119 47.5 203t127 137.5t180 77.5t220.5 24q172 0 303 -46.5t199.5 -150.5t68.5 -238q0 -78 -21 -148q-16 -53 -40.5 -92.5t-75.5 -96.5q-77 -84 -168 -160l-318 -263h341v90h290v-365h-1162v284l576 496q100 86 140 152q26 44 26 94
q0 63 -42.5 100.5t-127.5 37.5q-91 0 -137 -43.5t-46 -120.5q0 -16 2 -42z" />
    <glyph glyph-name="three" unicode="3" 
d="M83 488h377q2 -81 48.5 -124.5t135.5 -43.5q95 0 141.5 41t46.5 104q0 46 -27.5 82.5t-89.5 50t-193 14.5v256h75q133 0 183 39.5t50 106.5q0 63 -47 103t-140 40q-91 0 -138.5 -42t-51.5 -119h-344q-1 25 -1 45q0 116 58.5 215t185.5 157t310 58q277 0 432 -127
q122 -100 122 -263q0 -77 -28.5 -139t-86.5 -111q-42 -35 -110 -63q127 -47 190.5 -135t63.5 -217q0 -190 -134 -302q-172 -145 -459 -145q-127 0 -237.5 34t-189.5 113t-114 187q-24 73 -28 185z" />
    <glyph glyph-name="four" unicode="4" 
d="M1091 590h156v-232h-156v-142h156v-216h-725v216h175v142h-616v273l521 808h489v-849zM697 590v538l-351 -538h351z" />
    <glyph glyph-name="five" unicode="5" 
d="M123 467h386q-2 -91 33 -129.5t114 -38.5q94 0 133 37.5t39 119.5q0 105 -15 138t-51.5 50t-133.5 17h-462v778h972v-318h-659v-192q102 41 259 41q118 0 201 -17t135 -49t85 -74t52 -112q12 -46 12 -175v-45q0 -154 -14 -225t-48 -121.5t-97.5 -92t-150.5 -61.5
q-116 -27 -239 -27q-156 0 -264.5 33.5t-182.5 110.5q-55 56 -83 156q-21 74 -21 196z" />
    <glyph glyph-name="six" unicode="6" 
d="M1237 1088h-398q-9 43 -44 66.5t-115 23.5q-67 0 -105 -21t-56 -68t-18 -160q0 -23 1 -85q67 51 146 76.5t185 25.5q134 0 214.5 -32t126.5 -85.5t66 -132.5q14 -52 14 -139v-104q0 -126 -15.5 -193.5t-53 -118.5t-103 -90t-168 -60.5t-220.5 -21.5q-150 0 -268 34
q-67 19 -129.5 59t-99 84t-62.5 114.5t-26 175.5v526q0 127 17.5 197.5t55 122t102 95t143.5 64.5q113 30 244 30q138 0 254 -29q74 -18 134.5 -52t100 -80.5t57 -98t20.5 -123.5zM685 268q69 0 105.5 20.5t54.5 61t18 136.5q0 113 -43 161t-133 48q-93 0 -137.5 -54
t-44.5 -164q0 -114 57 -170q41 -39 123 -39z" />
    <glyph glyph-name="seven" unicode="7" 
d="M104 936v503h1161v-313l-559 -1126h-460l550 1107h-386v-171h-306z" />
    <glyph glyph-name="eight" unicode="8" 
d="M377 789l-26 12q-216 98 -216 300q0 157 113 246q155 123 439 123q126 0 234 -25.5t174.5 -72.5t103 -113.5t36.5 -148.5q0 -105 -68 -195t-181 -128q89 -35 139 -72q70 -51 110 -127t40 -177q0 -111 -48.5 -196.5t-134.5 -140t-193 -79t-216 -24.5q-184 0 -323 56.5
t-207 161t-68 227.5q0 129 73 226.5t219 146.5zM685 872q78 0 130 49.5t52 114.5t-51 112t-130 47q-78 0 -128.5 -47t-50.5 -112q0 -66 51 -115t127 -49zM867 474q0 72 -53 123.5t-130 51.5q-79 0 -133 -51.5t-54 -123.5q0 -70 54 -121.5t133 -51.5q77 0 130 51t53 122z" />
    <glyph glyph-name="nine" unicode="9" 
d="M124 353h398q9 -44 44 -67t115 -23q67 0 105 21t56 68t18 160q0 23 -2 85q-67 -51 -145.5 -76.5t-184.5 -25.5q-151 0 -245.5 46t-135 131t-40.5 184v132q0 118 16.5 185.5t56.5 119.5t103 90.5t146 58.5q121 29 248 29q160 0 273.5 -37.5t192.5 -115.5q59 -58 89 -155
q20 -62 20 -158v-526q0 -130 -18.5 -203t-64.5 -129.5t-117 -97t-163 -59.5t-206 -19q-151 0 -267 32q-72 19 -133 58.5t-96 88.5t-48.5 95t-14.5 108zM680 747q91 0 132.5 45t41.5 160q0 122 -43.5 171.5t-133.5 49.5q-94 0 -137.5 -55t-43.5 -165q0 -103 47.5 -154.5
t136.5 -51.5z" />
    <glyph glyph-name="colon" unicode=":" horiz-adv-x="683" 
d="M565 787q0 -93 -65.5 -158t-157.5 -65q-93 0 -158 65.5t-65 157.5t65 157.5t158 65.5q92 0 157.5 -65t65.5 -158zM565 173q0 -93 -65.5 -158t-157.5 -65q-93 0 -158 65.5t-65 157.5t65 157.5t158 65.5q92 0 157.5 -65t65.5 -158z" />
    <glyph glyph-name="semicolon" unicode=";" horiz-adv-x="683" 
d="M593 780q0 -93 -65.5 -158t-157.5 -65t-157.5 65.5t-65.5 157.5t65.5 157.5t157.5 65.5t157.5 -65.5t65.5 -157.5zM171 382h358l-154 -562h-370z" />
    <glyph glyph-name="less" unicode="&#x3c;" horiz-adv-x="1228" 
d="M2 616l1225 543v-346l-585 -251l585 -249v-344l-1225 538v109z" />
    <glyph glyph-name="equal" unicode="=" horiz-adv-x="1228" 
d="M52 962h1124v-317h-1124v317zM52 481h1124v-317h-1124v317z" />
    <glyph glyph-name="greater" unicode="&#x3e;" horiz-adv-x="1228" 
d="M0 -31v344l585 249l-585 251v346l1225 -543v-109z" />
    <glyph glyph-name="question" unicode="?" horiz-adv-x="1252" 
d="M477 1036h-391q-1 80 14 133q22 84 75 152t131 113q60 34 142 52.5t173 18.5q127 0 227.5 -32t168 -91t101.5 -127q45 -90 45 -215q0 -120 -47.5 -210.5t-145.5 -147.5q-72 -42 -178 -59v-90h-374v342h33q180 0 245.5 49.5t65.5 132.5q0 63 -40 102.5t-105 39.5
q-66 0 -103.5 -41.5t-36.5 -121.5zM835 173q0 -93 -65.5 -158t-157.5 -65t-157 65.5t-65 157.5t65 157.5t157 65.5t157.5 -65t65.5 -158z" />
    <glyph glyph-name="at" unicode="@" horiz-adv-x="1638" 
d="M1361 225l50 -83q-128 -89 -280 -139t-297 -50q-211 0 -405 97t-296 265t-102 371q0 171 68 319.5t178 254t244 168.5q185 87 393 87q155 0 283 -48t216 -129t141 -192.5t53 -256.5q0 -136 -48 -252.5t-118 -190t-149.5 -112t-158.5 -38.5q-75 0 -126.5 39.5t-74.5 124.5
q-36 -73 -100 -117t-143 -44q-77 0 -143 38.5t-102.5 111t-36.5 160.5q0 102 45 199.5t111.5 165t139.5 102t148 34.5q78 0 128 -34t64 -85l29 92h256l-88 -291q-6 -20 -53 -188q-25 -93 -28 -109q-2 -12 -2 -24q0 -27 16 -42t47 -15q49 0 102 43q69 56 119 156
q64 128 64 269q0 143 -70 260t-203.5 184.5t-291.5 67.5q-162 0 -303 -70q-109 -53 -196.5 -144t-139.5 -198q-70 -145 -70 -309q0 -115 36 -220t92 -175t134 -117.5t176 -74.5t199 -27q125 0 257 46t236 120zM669 508q0 -50 19 -73t50 -23q45 0 79 37q56 60 114 222t58 235
q0 45 -22 69.5t-54 24.5q-73 0 -146 -156q-98 -210 -98 -336z" />
    <glyph glyph-name="A" unicode="A" horiz-adv-x="1820" 
d="M57 0v303h104l304 877h-133v304h1157v-304h-135l296 -877h104v-303h-739v303h161l-55 200h-445l-60 -200h152v-303h-711zM1055 725l-128 422h-52l-135 -422h315z" />
    <glyph glyph-name="B" unicode="B" horiz-adv-x="1707" 
d="M95 0v303h147v877h-152v304h934q176 0 280 -28.5t173 -116t69 -221.5q0 -136 -71 -221t-214 -115q175 -23 257 -114.5t82 -256.5q0 -91 -26 -164.5t-74 -119.5t-109 -71.5t-182 -43.5q-88 -12 -256 -12h-858zM687 1195v-299h133q104 0 161 13t87 49.5t30 93.5
q0 71 -46.5 107t-190.5 36h-174zM687 649v-350h166q169 0 234 38t65 135q0 90 -54.5 133.5t-227.5 43.5h-183z" />
    <glyph glyph-name="C" unicode="C" horiz-adv-x="1593" 
d="M1121 1382v97h391v-571h-398q-17 64 -49.5 105t-92.5 65t-132 24q-136 0 -224 -94.5t-88 -260.5q0 -173 88.5 -269t222.5 -96q87 0 152.5 38t101.5 118h462q-21 -206 -185 -372q-211 -214 -545 -214q-165 0 -304 53t-233 148.5t-145 215.5q-72 171 -72 378
q0 155 41 284.5t110.5 219t153 145t181.5 85t212 29.5q122 0 216 -38.5t136 -89.5z" />
    <glyph glyph-name="D" unicode="D" horiz-adv-x="1820" 
d="M85 0v303h147v877h-147v304h664q288 0 432 -25q145 -25 233.5 -73t161.5 -134.5t111 -200.5q50 -146 50 -310q0 -154 -41.5 -274t-122 -215.5t-178 -148t-248.5 -82.5q-105 -21 -322 -21h-740zM678 1178v-875h144q231 0 338.5 107.5t107.5 317.5q0 150 -53 254.5
t-143.5 150t-254.5 45.5h-139z" />
    <glyph glyph-name="E" unicode="E" horiz-adv-x="1593" 
d="M90 0v303h142v877h-142v304h1394v-560h-299l-64 256h-434v-246h271v-370h-271v-256h434l64 280h299v-588h-1394z" />
    <glyph glyph-name="F" unicode="F" horiz-adv-x="1593" 
d="M90 0v303h152v877h-152v304h1408v-552h-313l-59 248h-429v-256h246v-365h-246v-256h213v-303h-820z" />
    <glyph glyph-name="G" unicode="G" horiz-adv-x="1820" 
d="M1154 1384v95h396v-526h-394q-38 82 -108.5 121.5t-162.5 39.5q-150 0 -245 -99.5t-95 -273.5q0 -131 47 -218.5t125 -128.5q60 -31 148 -31q75 0 136 22t92.5 54t53.5 85h-190v282h797v-296h-138v-519h-374v151q-102 -104 -203.5 -149t-235.5 -45q-311 0 -514.5 212.5
t-203.5 566.5q0 197 65 364q42 106 123.5 200.5t202.5 156.5t298 62q119 0 207.5 -30.5t172.5 -95.5z" />
    <glyph glyph-name="H" unicode="H" horiz-adv-x="1934" 
d="M90 0v303h152v877h-152v304h754v-304h-152v-265h545v265h-147v304h745v-304h-147v-877h151v-303h-753v303h151v280h-545v-280h152v-303h-754z" />
    <glyph glyph-name="I" unicode="I" horiz-adv-x="910" 
d="M835 0h-759v303h147v877h-147v304h759v-304h-157v-877h157v-303z" />
    <glyph glyph-name="J" unicode="J" horiz-adv-x="1024" 
d="M95 -410v412l40 -1q42 -2 80.5 13t57 43t26.5 102q4 48 5 178v843h-166v304h791v-301h-173v-1157q0 -118 -35.5 -196.5t-102 -132t-171 -81.5t-254.5 -28q-32 0 -98 2z" />
    <glyph glyph-name="K" unicode="K" horiz-adv-x="1934" 
d="M81 0v303h152v877h-152v304h735v-304h-138v-393l465 393h-133v304h820v-304h-132l-479 -405l507 -472h138v-303h-859v294h166l-493 457v-443h138v-308h-735z" />
    <glyph glyph-name="L" unicode="L" horiz-adv-x="1479" 
d="M71 0v303h152v877h-152v304h759v-304h-152v-877h374l67 290h284v-593h-1332z" />
    <glyph glyph-name="M" unicode="M" horiz-adv-x="2048" 
d="M71 0v303h128v875h-123v306h697l251 -616l249 616h694v-306h-128v-875h128v-303h-692v303h154v709l-306 -709h-203l-309 723v-723h162v-303h-702z" />
    <glyph glyph-name="N" unicode="N" horiz-adv-x="1820" 
d="M90 0v303h147v877h-147v304h571l510 -780v476h-171v304h730v-304h-151v-1180h-403l-527 825v-522h166v-303h-725z" />
    <glyph glyph-name="O" unicode="O" horiz-adv-x="1707" 
d="M851 -50q-153 0 -295.5 58.5t-246 161t-161.5 224.5q-77 160 -77 338q0 135 42 254.5t109 209t159.5 162t215.5 115t254 42.5q134 0 252.5 -42t208.5 -109.5t162.5 -161t114.5 -217t42 -253.5q0 -174 -67 -317t-167 -241t-217 -151q-159 -73 -329 -73zM851 1095
q-84 0 -159.5 -43.5t-123 -132t-47.5 -185.5q0 -94 45.5 -180t121.5 -131.5t163 -45.5q86 0 162.5 45t121.5 130.5t45 181.5q0 98 -46.5 186t-122.5 131.5t-160 43.5z" />
    <glyph glyph-name="P" unicode="P" horiz-adv-x="1593" 
d="M76 0v303h152v880h-152v301h763q194 0 274 -10q119 -16 190.5 -49t125 -90t80.5 -137.5t27 -182.5q0 -130 -46 -225.5t-137 -161.5q-68 -49 -186 -72q-79 -16 -223 -16h-261v-237h161v-303h-768zM683 1183v-356h99q128 0 184 15.5t85.5 57t29.5 111.5q0 85 -50 128.5
t-177 43.5h-171z" />
    <glyph glyph-name="Q" unicode="Q" horiz-adv-x="1707" 
d="M1401 156h230v-312h-432l-87 147q-128 -41 -260 -41q-341 0 -561 221t-220 572q0 230 94 395.5t270 269t413 103.5q234 0 407.5 -100.5t274.5 -270.5t101 -424q0 -180 -54.5 -309.5t-175.5 -250.5zM863 379l-114 188l244 144l121 -197q22 26 40.5 85t18.5 136
q0 171 -88.5 263.5t-235.5 92.5q-141 0 -230.5 -95t-89.5 -262q0 -129 54.5 -213t134.5 -118q56 -24 145 -24z" />
    <glyph glyph-name="R" unicode="R" horiz-adv-x="1707" 
d="M71 0v303h147v877h-142v304h825q201 0 301.5 -13.5t156.5 -38t103.5 -72.5t72.5 -117.5t25 -152.5q0 -140 -72 -224.5t-227 -116.5q111 -26 142 -36q46 -15 66.5 -34.5t29.5 -46.5q13 -45 13 -126l-2 -203h121v-303h-564v365q0 88 -12 128.5t-34.5 60t-68.5 31.5
q-32 8 -115 8h-169v-290h143v-303h-740zM668 1180v-300h154q157 0 206.5 38.5t49.5 118.5q0 57 -25.5 90t-69.5 43t-149 10h-166z" />
    <glyph glyph-name="S" unicode="S" horiz-adv-x="1479" 
d="M1006 1375v116h369v-431h-372q-55 94 -143 138t-192 44q-94 0 -138 -36.5t-44 -90.5q0 -41 24 -68.5t77 -40.5t192 -34q190 -29 251 -44q104 -28 165 -63t112 -91.5t82 -141t31 -185.5q0 -215 -150 -354.5t-411 -139.5q-132 0 -232.5 41t-159.5 103v-111h-367v471h377
q58 -102 135 -151.5t186 -49.5q100 0 146.5 39t46.5 102q0 47 -23.5 73.5t-106.5 46.5q-61 15 -217 36t-237 47q-118 39 -192 97.5t-119.5 145.5t-45.5 192q0 104 44 190t115 148.5t151 92.5q112 44 262 44q122 0 211 -32t173 -103z" />
    <glyph glyph-name="T" unicode="T" horiz-adv-x="1593" 
d="M71 924v560h1451v-560h-275l-60 256h-163v-877h166v-303h-792v303h171v877h-166l-57 -256h-275z" />
    <glyph glyph-name="U" unicode="U" horiz-adv-x="1820" 
d="M85 1484h735v-304h-142v-523q0 -191 33 -248q53 -87 195 -87q144 0 197 85q32 52 32 228v545h-145v304h740v-304h-154v-497q0 -233 -15 -323q-15 -91 -58 -159t-123.5 -127.5t-184.5 -87.5q-139 -38 -291 -38q-146 0 -256.5 23.5t-191 74t-128.5 115.5t-73 177
q-18 84 -18 274v568h-152v304z" />
    <glyph glyph-name="V" unicode="V" horiz-adv-x="1593" 
d="M71 1484h635v-304h-97l183 -604l194 604h-104v304h640v-304h-88l-439 -1180h-400l-436 1180h-88v304z" />
    <glyph glyph-name="W" unicode="W" horiz-adv-x="2048" 
d="M33 1484h593v-304h-81l159 -512l135 512h-81v304h536v-304h-83l138 -535l161 535h-83v304h583v-308h-69l-384 -1176h-381l-150 597l-149 -597h-379l-396 1180h-69v304z" />
    <glyph glyph-name="X" unicode="X" horiz-adv-x="1707" 
d="M71 0v303h90l356 446l-325 431h-97v304h673v-304h-95l180 -246l185 246h-95v304h664v-304h-95l-306 -400l330 -477h95v-303h-673v303h109l-197 304l-221 -304h114v-303h-692z" />
    <glyph glyph-name="Y" unicode="Y" horiz-adv-x="1707" 
d="M71 1484h716v-304h-119l199 -350l202 350h-116v304h682v-304h-120l-420 -640v-237h156v-303h-758v303h152v249l-453 628h-121v304z" />
    <glyph glyph-name="Z" unicode="Z" horiz-adv-x="1593" 
d="M104 0v313l770 867h-391l-52 -232h-299v536h1342v-275l-811 -906h463l64 280h294v-583h-1380z" />
    <glyph glyph-name="bracketleft" unicode="[" horiz-adv-x="910" 
d="M142 -258v1737h697v-227h-341v-1283h336v-227h-692z" />
    <glyph glyph-name="backslash" unicode="\" horiz-adv-x="569" 
d="M-128 1515h294l531 -1562h-294z" />
    <glyph glyph-name="bracketright" unicode="]" horiz-adv-x="910" 
d="M758 -258h-692v227h341v1283h-341v227h692v-1737z" />
    <glyph glyph-name="asciicircum" unicode="^" horiz-adv-x="1228" 
d="M1128 585h-305l-209 460l-206 -460h-306l453 930h121z" />
    <glyph glyph-name="underscore" unicode="_" horiz-adv-x="1024" 
d="M1024 -256h-1024v102h1024v-102z" />
    <glyph glyph-name="grave" unicode="`" horiz-adv-x="683" 
d="M348 1460l204 -303h-280l-353 303h429z" />
    <glyph glyph-name="a" unicode="a" horiz-adv-x="1479" 
d="M901 841v157h493v-296h-114v-418h114v-298h-500v156q-58 -69 -93 -97q-50 -40 -111.5 -64t-139.5 -24q-132 0 -242 68t-171 197.5t-61 283.5q0 146 57 269t166 189.5t243 66.5q83 0 150 -22.5t110.5 -58.5t98.5 -109zM889 487q0 78 -56 133.5t-135 55.5t-134.5 -56
t-55.5 -135q0 -80 54.5 -134.5t135.5 -54.5q80 0 135.5 55.5t55.5 135.5z" />
    <glyph glyph-name="b" unicode="b" horiz-adv-x="1479" 
d="M76 1484h536v-583q135 133 315 133q201 0 333 -141t132 -384q0 -251 -137 -400.5t-336 -149.5q-95 0 -174.5 37.5t-163.5 122.5v-131h-505v306h114v896h-114v294zM775 315q78 0 133 55.5t55 134.5q0 80 -55.5 136t-133.5 56q-80 0 -136.5 -56t-56.5 -136q0 -78 56.5 -134
t137.5 -56z" />
    <glyph glyph-name="c" unicode="c" horiz-adv-x="1252" 
d="M882 905v105h266v-410h-325q-10 47 -51 78t-102 31q-79 0 -126.5 -52t-47.5 -149q0 -106 49 -161t124 -55q47 0 80.5 19.5t61.5 60.5h370q-9 -67 -32 -118q-40 -86 -111 -151.5t-173.5 -103.5t-227.5 -38q-229 0 -378 126q-178 151 -178 422q0 237 137 379.5t345 142.5
q108 0 191 -35q61 -25 128 -91z" />
    <glyph glyph-name="d" unicode="d" horiz-adv-x="1479" 
d="M1292 284h114v-298h-505v130q-57 -56 -92 -80q-53 -36 -115.5 -57.5t-136.5 -21.5q-191 0 -329 150.5t-138 398.5q0 247 131 386t334 139q91 0 165.5 -30.5t154.5 -99.5v301h-149v282h566v-1200zM901 510q0 79 -57 135.5t-136 56.5q-78 0 -133.5 -56t-55.5 -136
q0 -79 55 -134.5t134 -55.5q80 0 136.5 55.5t56.5 134.5z" />
    <glyph glyph-name="e" unicode="e" 
d="M1271 424h-763q0 -103 48.5 -153.5t141.5 -50.5q63 0 103 21t76 70l358 -72q-51 -120 -184.5 -199.5t-351.5 -79.5q-293 0 -455.5 150.5t-162.5 383.5q0 257 191 408q164 130 417 130q277 0 431 -146.5t154 -396.5q0 -28 -3 -65zM503 557h382q1 121 -44 172t-137 51
q-93 0 -146 -55.5t-55 -167.5z" />
    <glyph glyph-name="f" unicode="f" horiz-adv-x="910" 
d="M796 1484v-292h-49q-51 0 -75.5 -14t-33 -37.5t-8.5 -104.5v-33h124v-290h-124v-419h124v-294h-645v294h111v419h-106v290h106v189q0 97 17.5 147.5t58 83.5t105 48.5t224.5 15.5q68 0 171 -3z" />
    <glyph glyph-name="g" unicode="g" horiz-adv-x="1479" 
d="M882 891v107h512v-285h-121v-668q0 -116 -24 -184.5t-104.5 -136.5t-206.5 -109.5t-330 -41.5q-253 0 -438 86v291q201 -100 398 -100q115 0 186 29.5t97 81t26 153.5v35l-26 -21q-119 -97 -304 -97q-212 0 -340.5 133t-128.5 366q0 231 132 366t347 135
q114 0 188.5 -34.5t136.5 -105.5zM703 325q78 0 133 55.5t55 133.5q0 81 -55 136.5t-134 55.5q-80 0 -136.5 -56t-56.5 -135q0 -78 56.5 -134t137.5 -56z" />
    <glyph glyph-name="h" unicode="h" horiz-adv-x="1479" 
d="M67 1484h524v-619q176 142 391 142q184 0 266 -99q54 -65 54 -232v-382h106v-294h-535v474q0 125 -10 165.5t-41.5 62t-87.5 21.5q-90 0 -124 -58q-17 -28 -17 -165v-206h114v-294h-645v294h114v896h-109v294z" />
    <glyph glyph-name="i" unicode="i" horiz-adv-x="796" 
d="M133 1171v313h479v-313h-479zM81 0v294h109v417h-109v289h531v-706h100v-294h-631z" />
    <glyph glyph-name="j" unicode="j" horiz-adv-x="796" 
d="M147 1169v315h479v-315h-479zM38 -410v365q25 -1 26 -1q58 0 94 17q22 10 31 35q13 34 13 139v585h-126v270h550v-865q0 -183 -13 -257q-14 -75 -46.5 -125t-90.5 -88t-146 -57t-207 -19q-28 0 -85 1z" />
    <glyph glyph-name="k" unicode="k" horiz-adv-x="1479" 
d="M81 1484h512v-901l5 -26q6 -7 17 -7q16 0 37 14l251 166h-144v270h621v-284h-97l-240 -154l294 -273h81v-289h-659v273h123l-232 211q-19 16 -34 16q-10 0 -18 -5l-8 -16v-479h-514v294h114v896h-109v294z" />
    <glyph glyph-name="l" unicode="l" horiz-adv-x="796" 
d="M66 1484h545v-1190h109v-294h-654v294h123v896h-123v294z" />
    <glyph glyph-name="m" unicode="m" horiz-adv-x="2048" 
d="M52 1000h476v-130q73 77 148 114q102 50 221 50q116 0 199 -42q55 -28 110 -98q84 72 169.5 104.5t181.5 32.5q164 0 245.5 -83t81.5 -268v-386h102v-294h-514v548q0 70 -9 104t-37 53.5t-86 19.5q-52 0 -77.5 -14.5t-36 -43.5t-10.5 -117v-256h116v-294h-517v571
q0 87 -28 119.5t-84 32.5q-57 0 -84.5 -16t-41 -51.5t-13.5 -124.5v-237h114v-294h-631v294h114v436h-109v270z" />
    <glyph glyph-name="n" unicode="n" horiz-adv-x="1479" 
d="M1294 294h109v-294h-531v493q0 156 -19 193q-28 54 -114 54q-93 0 -129 -57q-18 -28 -18 -164v-225h114v-294h-635v294h104v436h-104v270h514v-113q99 74 192.5 109t201.5 35q81 0 147 -23t107 -68q28 -31 44.5 -87.5t16.5 -153.5v-405z" />
    <glyph glyph-name="o" unicode="o" 
d="M684 -42q-107 0 -221 39.5t-198.5 114.5t-135.5 172.5t-51 217.5q0 138 76.5 261.5t222 197t308.5 73.5q161 0 300.5 -72.5t213.5 -198t74 -259.5q0 -137 -78.5 -269.5t-218 -204.5t-292.5 -72zM687 294q80 0 134 57t54 153q0 86 -54 140.5t-133 54.5q-56 0 -106 -26.5
t-77 -74.5t-27 -104t27.5 -104t77.5 -72t104 -24z" />
    <glyph glyph-name="p" unicode="p" horiz-adv-x="1479" 
d="M76 1000h505v-125q60 60 92 81q55 37 116.5 56t136.5 19q139 0 249 -58.5t163.5 -177.5t53.5 -278q0 -250 -122 -395.5t-350 -145.5q-113 0 -200.5 46.5t-131.5 110.5v-266h142v-294h-654v294h114v863h-114v270zM771 303q80 0 136 56t56 134q0 77 -56 132t-135 55
q-75 0 -129.5 -54.5t-54.5 -132.5q0 -79 54 -134.5t129 -55.5z" />
    <glyph glyph-name="q" unicode="q" horiz-adv-x="1479" 
d="M892 1000h505v-270h-114v-863h114v-294h-655v294h143v268q-34 -47 -63 -72t-73.5 -47t-87 -32t-104.5 -10q-219 0 -347.5 138t-128.5 393q0 118 31.5 218t87.5 164.5t127 98.5q94 45 209 45q218 0 356 -152v121zM701 303q76 0 130 55.5t54 134.5q0 78 -54 132.5
t-131 54.5q-79 0 -134.5 -55t-55.5 -132q0 -78 56 -134t135 -56z" />
    <glyph glyph-name="r" unicode="r" horiz-adv-x="1138" 
d="M62 1000h533v-130l5 -21l21 -5q12 5 16 20q15 55 63 101q69 66 172 66q105 0 169 -65t64 -178q0 -114 -58.5 -173.5t-165.5 -59.5q-90 0 -153.5 50t-90.5 147q-4 13 -10.5 18.5t-15.5 5.5q-7 0 -14 -3l-4 -50v-429h132v-294h-668v294h114v436h-109v270z" />
    <glyph glyph-name="s" unicode="s" horiz-adv-x="1024" 
d="M713 934v73h230v-277h-232q-30 52 -73.5 79.5t-108.5 27.5q-62 0 -90.5 -24t-28.5 -63q0 -40 26 -61q34 -28 158 -50t209 -63t124.5 -110t39.5 -166q0 -158 -105 -255t-295 -97q-164 0 -273 88v-60h-233v271h233q38 -60 82.5 -86t109.5 -26t95 24.5t30 59.5q0 44 -34 66
q-24 16 -144 44l-80 19q-108 26 -176.5 69.5t-99 106t-30.5 146.5q0 161 102.5 261t274.5 100q94 0 172.5 -28t116.5 -69z" />
    <glyph glyph-name="t" unicode="t" horiz-adv-x="796" 
d="M175 1444h413v-444h132v-270h-137v-310q0 -66 23.5 -86.5t113.5 -20.5v-313h-244q-96 0 -142 10t-78 32.5t-51.5 51t-28.5 72.5q-6 28 -6 102v462h-118v270h123v444z" />
    <glyph glyph-name="u" unicode="u" horiz-adv-x="1479" 
d="M178 730h-107v270h531v-486q0 -156 19 -193q28 -53 114 -53q93 0 129 57q18 27 18 163v242h-114v270h531v-706h104v-294h-514v126q-177 -150 -396 -150q-186 0 -269 110q-46 61 -46 222v422z" />
    <glyph glyph-name="v" unicode="v" 
d="M47 1000h564v-270h-88l169 -344l175 344h-80v270h521v-289h-64l-382 -711h-384l-365 711h-66v289z" />
    <glyph glyph-name="w" unicode="w" horiz-adv-x="1934" 
d="M57 1000h512v-270h-88l135 -337l221 607h258l216 -611l137 341h-92v270h517v-289h-67l-303 -711h-337l-201 569l-206 -569h-335l-301 711h-66v289z" />
    <glyph glyph-name="x" unicode="x" horiz-adv-x="1252" 
d="M57 1000h455v-166l111 -97l114 100v163h457v-289h-73l-239 -208l232 -209h76v-294h-448v180l-114 100l-123 -100v-180h-453v294h62l253 218l-227 199h-83v289z" />
    <glyph glyph-name="y" unicode="y" 
d="M47 1000h569v-270h-90l178 -332l173 332h-90v270h526v-289h-67l-455 -844h176v-294h-707v294h159l81 150l-389 694h-64v289z" />
    <glyph glyph-name="z" unicode="z" horiz-adv-x="1252" 
d="M114 640v360h1019v-223l-540 -530h305l41 128h194v-375h-1024v244l521 510h-282l-38 -114h-196z" />
    <glyph glyph-name="braceleft" unicode="{" horiz-adv-x="683" 
d="M12 517v199q66 4 125 42t86.5 98.5t27.5 112.5v55q0 124 21.5 209t72 144t137 96.5t194.5 38.5v-199q-84 -3 -111 -42t-27 -252v-21q0 -81 -16 -138q-23 -79 -71 -134t-123 -87q-51 -21 -107 -23q83 -5 163 -56.5t118.5 -134t38.5 -193.5v-61q0 -149 39 -202.5t96 -51.5
v-197q-80 3 -151.5 27.5t-125.5 65t-86 91.5t-50 128q-12 50 -12 127v102q0 94 -70.5 170.5t-168.5 85.5z" />
    <glyph glyph-name="bar" unicode="|" horiz-adv-x="455" 
d="M389 0h-318v1484h318v-1484z" />
    <glyph glyph-name="braceright" unicode="}" horiz-adv-x="683" 
d="M7 -280v197q57 -1 96 52.5t39 201.5v61q0 118 42.5 201t120 130.5t157.5 52.5q-120 3 -219 98t-99 284v21q0 213 -27 252t-110 42v199q89 -1 162.5 -26.5t124 -66.5t77.5 -87.5t43.5 -122.5t16.5 -185v-55q0 -61 31.5 -120t88.5 -94t120 -39v-199q-66 -6 -125.5 -48
t-87 -99t-27.5 -109v-102q0 -95 -17 -154q-26 -85 -79 -145t-141 -98t-187 -42z" />
    <glyph glyph-name="asciitilde" unicode="~" horiz-adv-x="1228" 
d="M1102 832h126q-48 -285 -175 -434q-75 -88 -184 -88q-53 0 -105 14q-40 10 -136 55l-137 64q-113 53 -188 53q-51 0 -101.5 -49t-75.5 -153h-126q42 290 165 436q80 95 187 95q37 0 72 -7t73 -22l72 -30l147 -62q87 -36 132 -47.5t84 -11.5q56 0 100 41.5t70 145.5z" />
    <glyph glyph-name="nonbreakingspace" unicode="&#xa0;" 
 />
    <glyph glyph-name="exclamdown" unicode="&#xa1;" horiz-adv-x="796" 
d="M175 891q0 93 65.5 158t157.5 65t157.5 -65t65.5 -158q0 -92 -65.5 -157.5t-157.5 -65.5t-157.5 65.5t-65.5 157.5zM616 -420h-427l19 953h372z" />
    <glyph glyph-name="cent" unicode="&#xa2;" 
d="M754 1019l66 240h142l-80 -290q31 -20 78 -68v106h239v-407h-305q-9 46 -40.5 78t-61.5 35l-121 -431q20 -4 36 -4q73 0 113 24t64 70h348q-14 -176 -167 -295.5t-369 -119.5q-67 0 -94 7l-74 -258h-142l83 294q-168 61 -260.5 190t-92.5 305q0 247 140 394t363 147
q81 0 135 -17zM578 320l112 405q-91 -2 -140.5 -57.5t-49.5 -166.5q0 -117 78 -181z" />
    <glyph glyph-name="sterling" unicode="&#xa3;" 
d="M100 0v341q65 14 106.5 47.5t57.5 85t16 150.5q0 15 -2 42h-178v225h138q-17 96 -17 164q0 191 126.5 307.5t368.5 116.5q114 0 210.5 -26.5t164.5 -79.5q52 -41 78 -90q37 -71 37 -182q0 -27 -1 -65h-342q0 76 -29 104.5t-99 28.5q-65 0 -96.5 -30.5t-31.5 -85.5
q0 -14 7 -56q8 -57 22 -110h332v-221h-290q4 -42 4 -80q0 -131 -42 -223q114 -57 187 -57q52 0 83.5 29t38.5 89h329q1 -32 1 -53q0 -184 -97.5 -279t-284.5 -95q-98 0 -193.5 31t-236.5 117q-88 -75 -172 -110.5t-167 -35.5q-9 0 -28 1z" />
    <glyph glyph-name="currency" unicode="&#xa4;" 
d="M297 984l-133 130l140 140l133 -130q117 68 253 68q131 0 237 -71l133 133l140 -140l-133 -130q71 -105 71 -244q0 -73 -19 -138t-52 -111l133 -133l-140 -140l-133 130q-47 -30 -109.5 -49.5t-126.5 -19.5q-66 0 -133.5 18t-120.5 54l-133 -133l-140 140l133 133
q-71 105 -71 233q0 146 71 260zM510 735q0 -74 50 -123.5t123 -49.5q72 0 121.5 50t49.5 123t-49.5 123t-122.5 50q-72 0 -122 -50t-50 -123z" />
    <glyph glyph-name="yen" unicode="&#xa5;" 
d="M-24 1439h638v-268h-124l223 -372l187 372h-123v268h609v-268l-109 2l-128 -192h209v-173h-299l-132 -187h355v-173h-391v-185h147v-263h-692v263h144v185h-386v173h334l-130 187h-289l-3 173h192l-130 190h-102v268z" />
    <glyph glyph-name="brokenbar" unicode="&#xa6;" horiz-adv-x="455" 
d="M71 887v597h318v-597h-318zM389 0h-318v595h318v-595z" />
    <glyph glyph-name="section" unicode="&#xa7;" horiz-adv-x="1252" 
d="M483 7v-116q25 -1 38 -1q92 0 117.5 18t25.5 52q0 24 -12.5 44t-85.5 93l-322 323q-112 112 -145 176t-33 145q0 110 85 195t223 97q-37 37 -54 76.5t-17 94.5q0 63 20 108.5t51.5 77t68.5 51t100 31.5t173 12h341v-368h-258v124h-74q-73 0 -93 -10q-30 -15 -30 -54
q0 -28 17.5 -53.5t138.5 -141.5l225 -213q181 -171 181 -353q0 -72 -23.5 -130.5t-58 -96t-72 -58.5t-95.5 -38q68 -71 68 -188q0 -149 -110 -218q-68 -42 -293 -42h-357v363h260zM783 313q41 0 67.5 26t26.5 64q0 40 -38 97.5t-137.5 157.5t-149.5 136t-90 36
q-38 0 -66.5 -28.5t-28.5 -65.5q0 -38 31 -80q22 -31 148 -160q126 -130 161 -156q36 -27 76 -27z" />
    <glyph glyph-name="dieresis" unicode="&#xa8;" horiz-adv-x="683" 
d="M401 1434h348v-265h-348v265zM-66 1169v265h348v-265h-348z" />
    <glyph glyph-name="copyright" unicode="&#xa9;" horiz-adv-x="1638" 
d="M818 1515q150 0 293 -57t247.5 -159.5t164.5 -225.5q77 -160 77 -339q0 -204 -103.5 -389t-288.5 -288.5t-389 -103.5q-135 0 -254 42.5t-209 109.5t-163 161t-115 217t-42 252q0 172 67 316t169 242.5t222 151.5q158 70 324 70zM178 735q0 -135 57 -264
q43 -99 124 -182.5t199 -138.5t260 -55q167 0 319 84.5t236.5 236.5t84.5 319t-84.5 318.5t-236.5 236.5t-319 85q-147 0 -278 -64q-101 -49 -185 -134.5t-130.5 -202.5t-46.5 -239zM1093 1171h97l10 -344h-104q-35 135 -97 193.5t-135 58.5q-60 0 -111 -37.5t-82 -127
t-31 -190.5q0 -159 76 -253q56 -70 147 -70q69 0 126.5 42.5t117.5 141.5l93 -56q-76 -136 -171 -196.5t-219 -60.5q-190 0 -319 129t-129 320q0 201 134.5 340t319.5 139q60 0 111 -14.5t112 -48.5q20 -11 29 -11q11 0 18.5 10.5t6.5 34.5z" />
    <glyph glyph-name="ordfeminine" unicode="&#xaa;" horiz-adv-x="886" 
d="M548 1356v94h321v-178h-74v-250h74v-179h-325v94q-56 -62 -106.5 -86.5t-117.5 -24.5q-86 0 -157 40.5t-111 118t-40 170.5q0 141 85 228t218 87q79 0 138 -29q45 -23 95 -85zM541 1143q0 46 -36 80t-89 34q-52 0 -87.5 -34t-35.5 -81t34.5 -80t88.5 -33q53 0 89 34
t36 80z" />
    <glyph glyph-name="guillemotleft" unicode="&#xab;" horiz-adv-x="1138" 
d="M76 498l235 343h289l-237 -343l237 -351h-285zM775 147l-237 351l235 343h289l-237 -343l237 -351h-287z" />
    <glyph glyph-name="logicalnot" unicode="&#xac;" horiz-adv-x="1228" 
d="M52 962h1116v-806h-331v489h-785v317z" />
    <glyph glyph-name="registered" unicode="&#xae;" horiz-adv-x="1638" 
d="M818 1515q150 0 293 -57t247.5 -159.5t164.5 -225.5q77 -160 77 -339q0 -204 -103.5 -389t-288.5 -288.5t-389 -103.5q-135 0 -254 42.5t-209 109.5t-163 161t-115 217t-42 252q0 172 67 316t169 242.5t222 151.5q158 70 324 70zM178 735q0 -135 57 -264
q43 -99 124 -182.5t199 -138.5t260 -55q167 0 319 84.5t236.5 236.5t84.5 319t-84.5 318.5t-236.5 236.5t-319 85q-147 0 -278 -64q-101 -49 -185 -134.5t-130.5 -202.5t-46.5 -239zM958 740v-8q73 -18 130 -80q37 -42 71 -138q14 -42 25 -53q8 -9 17 -9q13 0 22 14
q14 21 12 55h72q-11 -105 -49 -152q-55 -70 -150 -70q-64 0 -107.5 23.5t-61.5 66t-30 147.5q-8 65 -19 87q-17 31 -52.5 48.5t-95.5 15.5q-1 -60 -1 -107q0 -81 8 -105t26 -35t74 -16v-99h-455v99q62 -1 82 25.5t20 107.5v410q0 41 -22 62.5t-66 21.5q-4 0 -14 -1v102h403
q178 0 263 -20q85 -21 125.5 -73.5t40.5 -116.5q0 -79 -60 -132.5t-208 -69.5zM742 794q96 0 134 10.5t61.5 43t23.5 75.5q0 56 -38 91.5t-100 35.5q-49 0 -68 -32q-9 -17 -10 -79z" />
    <glyph glyph-name="macron" unicode="&#xaf;" horiz-adv-x="683" 
d="M-45 1216v185h773v-185h-773z" />
    <glyph glyph-name="degree" unicode="&#xb0;" horiz-adv-x="820" 
d="M410 1515q85 0 162 -42.5t121.5 -121t44.5 -165.5q0 -86 -43.5 -163.5t-121.5 -121t-162 -43.5q-85 0 -163.5 44t-122.5 122.5t-44 163.5t44.5 163.5t122 121t162.5 42.5zM282 1188q0 -53 38.5 -90.5t89.5 -37.5q53 0 90.5 37.5t37.5 90.5q0 52 -37.5 90t-90.5 38
q-52 0 -90 -38t-38 -90z" />
    <glyph glyph-name="plusminus" unicode="&#xb1;" horiz-adv-x="1228" 
d="M455 583h-403v306h403v235h318v-235h403v-306h-403v-204h-318v204zM52 315h1124v-308h-1124v308z" />
    <glyph glyph-name="twosuperior" unicode="&#xb2;" horiz-adv-x="819" 
d="M269 1163h-248q-1 25 -1 42q0 114 91.5 189.5t282.5 75.5q196 0 283.5 -73.5t87.5 -187.5q0 -58 -21 -109q-17 -38 -63.5 -87.5t-113.5 -101.5l-207 -158h222v54h188v-219h-755v171l374 297q66 52 91 92q17 26 17 56q0 37 -27 60t-83 23q-60 0 -89.5 -27t-29.5 -72
q0 -9 1 -25z" />
    <glyph glyph-name="threesuperior" unicode="&#xb3;" horiz-adv-x="819" 
d="M20 881h245q1 -48 31 -74.5t89 -26.5q62 0 92 25t30 62q0 46 -40.5 67t-161.5 21v153q118 0 152 15q48 22 48 73q0 37 -25 58q-34 28 -96 28q-60 0 -90.5 -25.5t-33.5 -71.5h-223q-1 16 -1 28q0 109 89.5 183t270.5 74q184 0 285 -79q75 -59 75 -155q0 -62 -36 -110.5
t-110 -76.5q85 -29 125 -82t40 -130q0 -111 -83 -177q-111 -91 -302 -91q-134 0 -218.5 46.5t-122.5 128.5q-26 54 -29 137z" />
    <glyph glyph-name="acute" unicode="&#xb4;" horiz-adv-x="683" 
d="M763 1460l-353 -303h-280l204 303h429z" />
    <glyph glyph-name="mu" unicode="&#xb5;" horiz-adv-x="1479" 
d="M889 0v126q-64 -66 -120.5 -93t-112.5 -27q-49 0 -80 25v-458h-512v294h114v863h-107v270h531v-486q0 -156 20 -193q28 -53 113 -53q93 0 129 57q18 27 18 163v242h-114v270h531v-706h104v-294h-514z" />
    <glyph glyph-name="paragraph" unicode="&#xb6;" horiz-adv-x="1271" 
d="M1279 1467v-123q-38 -10 -58.5 -25t-33.5 -40q-20 -35 -28.5 -73t-15.5 -154q-8 -117 -8 -289v-507q0 -276 15 -385q15 -110 53 -155q24 -28 76 -38v-124h-910v124q54 3 76.5 19t34.5 46q22 56 32 165q11 110 11 277l2 374l-59 -1q-143 0 -260.5 58t-179.5 164.5
t-62 229.5q0 98 36.5 179t92.5 135t122 84.5t193 47.5q80 11 281 11h590zM563 -322h150q53 33 76 107q23 75 23 371v588q0 241 12 378q8 90 31 148q14 36 47 74h-151q-42 -37 -58 -70q-21 -44 -30.5 -135.5t-9.5 -410.5l1 -394q0 -289 -7 -381q-11 -133 -32 -193
q-15 -42 -52 -82z" />
    <glyph glyph-name="cedilla" unicode="&#xb8;" horiz-adv-x="683" 
d="M55 -441l47 104q96 -42 173 -42q54 0 82 23.5t28 57.5q0 24 -22 42q-29 24 -73 24q-35 0 -74 -19l-66 50l114 196h149l-76 -135q26 5 52 5q93 0 146 -47t53 -111q0 -75 -63 -132q-85 -75 -230 -75q-122 0 -240 59z" />
    <glyph glyph-name="onesuperior" unicode="&#xb9;" horiz-adv-x="819" 
d="M175 1452h374v-687h101v-177h-475v177h108v510h-108v177z" />
    <glyph glyph-name="ordmasculine" unicode="&#xba;" horiz-adv-x="819" 
d="M410 824q-70 0 -150 26q-59 19 -107 54.5t-78 76t-44.5 83t-14.5 87.5q0 79 46 152t142.5 120t205.5 47q107 0 198.5 -45t138 -120t46.5 -153q0 -80 -49.5 -159.5t-141 -124t-192.5 -44.5zM412 1026q53 0 87.5 35t34.5 91q0 51 -34.5 84t-86.5 33q-61 0 -99 -35.5
t-38 -87.5q0 -51 37 -85.5t99 -34.5z" />
    <glyph glyph-name="guillemotright" unicode="&#xbb;" horiz-adv-x="1138" 
d="M1057 488l-233 -341h-284l237 341l-247 353h285zM73 841h282l244 -353l-232 -341h-287l232 341z" />
    <glyph glyph-name="onequarter" unicode="&#xbc;" horiz-adv-x="2046" 
d="M404 -28l827 1498h185l-828 -1498h-184zM92 1452h374v-687h101v-177h-475v177h108v510h-108v177zM1785 354h101v-139h-101v-86h101v-129h-471v129h114v86h-401v163l339 485h318v-509zM1529 354v323l-228 -323h228z" />
    <glyph glyph-name="onehalf" unicode="&#xbd;" horiz-adv-x="2046" 
d="M436 -28l828 1498h185l-828 -1498h-185zM128 1452h374v-687h101v-177h-475v177h108v510h-108v177zM1415 575h-248q-1 24 -1 42q0 113 91.5 189t282.5 76q196 0 284 -73.5t88 -187.5q0 -58 -22 -109q-17 -39 -63 -88t-114 -101l-207 -158h222v54h188v-219h-755v171
l375 297q65 52 91 91q16 27 16 57q0 37 -26.5 59.5t-83.5 22.5q-60 0 -89.5 -26.5t-29.5 -71.5q0 -10 1 -25z" />
    <glyph glyph-name="threequarters" unicode="&#xbe;" horiz-adv-x="2046" 
d="M5 881h245q1 -48 31 -74.5t89 -26.5q62 0 92 25t30 62q0 46 -40.5 67t-161.5 21v153q118 0 152 15q48 22 48 73q0 37 -25 58q-34 28 -96 28q-60 0 -90.5 -25.5t-33.5 -71.5h-223q-1 16 -1 28q0 109 89.5 183t270.5 74q184 0 285 -79q75 -59 75 -155q0 -62 -36 -110.5
t-110 -76.5q85 -29 125 -82t40 -130q0 -111 -83 -177q-111 -91 -302 -91q-134 0 -218.5 46.5t-122.5 128.5q-26 54 -29 137zM503 -28l827 1498h185l-827 -1498h-185zM1853 354h102v-139h-102v-86h102v-129h-471v129h114v86h-401v163l339 485h317v-509zM1598 354v323
l-229 -323h229z" />
    <glyph glyph-name="questiondown" unicode="&#xbf;" horiz-adv-x="1251" 
d="M408 889q0 92 65.5 157.5t157.5 65.5t157.5 -65.5t65.5 -157.5t-65.5 -157.5t-157.5 -65.5t-157.5 65t-65.5 158zM766 26h391q1 -78 -11 -127q-21 -81 -69 -146.5t-115.5 -109.5t-154.5 -65t-185 -21q-126 0 -226.5 32t-168.5 91t-101 127q-45 90 -45 214q0 120 47 210.5
t146 148.5q71 42 177 59v90h375v-342h-34q-180 0 -245 -49.5t-65 -132.5q0 -63 40 -102.5t104 -39.5q66 0 103.5 41t36.5 122z" />
    <glyph glyph-name="Agrave" unicode="&#xc0;" horiz-adv-x="1820" 
d="M57 0v303h104l304 877h-133v304h1157v-304h-135l296 -877h104v-303h-739v303h161l-55 200h-445l-60 -200h152v-303h-711zM1055 725l-128 422h-52l-135 -422h315zM929 1874l204 -303h-280l-353 303h429z" />
    <glyph glyph-name="Aacute" unicode="&#xc1;" horiz-adv-x="1820" 
d="M57 0v303h104l304 877h-133v304h1157v-304h-135l296 -877h104v-303h-739v303h161l-55 200h-445l-60 -200h152v-303h-711zM1055 725l-128 422h-52l-135 -422h315zM1344 1874l-353 -303h-280l204 303h429z" />
    <glyph glyph-name="Acircumflex" unicode="&#xc2;" horiz-adv-x="1820" 
d="M57 0v303h104l304 877h-133v304h1157v-304h-135l296 -877h104v-303h-739v303h161l-55 200h-445l-60 -200h152v-303h-711zM1055 725l-128 422h-52l-135 -422h315zM753 1874h336l249 -303h-303l-114 154l-114 -154h-303z" />
    <glyph glyph-name="Atilde" unicode="&#xc3;" horiz-adv-x="1820" 
d="M57 0v303h104l304 877h-133v304h1157v-304h-135l296 -877h104v-303h-739v303h161l-55 200h-445l-60 -200h152v-303h-711zM1055 725l-128 422h-52l-135 -422h315zM1159 1855h164q-15 -135 -85.5 -203.5t-173.5 -68.5q-75 0 -191 46q-74 30 -101 30q-29 0 -54 -22t-35 -66
h-164q14 135 88.5 212t171.5 77q34 0 72 -9q28 -7 100 -35t85 -32q19 -5 33 -5q32 0 56 19t34 57z" />
    <glyph glyph-name="Adieresis" unicode="&#xc4;" horiz-adv-x="1820" 
d="M57 0v303h104l304 877h-133v304h1157v-304h-135l296 -877h104v-303h-739v303h161l-55 200h-445l-60 -200h152v-303h-711zM1055 725l-128 422h-52l-135 -422h315zM981 1848h348v-265h-348v265zM514 1583v265h348v-265h-348z" />
    <glyph glyph-name="Aring" unicode="&#xc5;" horiz-adv-x="1820" 
d="M57 0v303h104l304 877h-133v304h1157v-304h-135l296 -877h104v-303h-739v303h161l-55 200h-445l-60 -200h152v-303h-711zM1055 725l-128 422h-52l-135 -422h315zM1161 1773q0 -100 -70.5 -170t-169.5 -70t-169 70.5t-70 169.5t70 169t169 70t169.5 -70t70.5 -169z
M815 1773q0 -45 31 -76t75 -31q45 0 76 31.5t31 75.5t-31 75t-76 31q-44 0 -75 -31t-31 -75z" />
    <glyph glyph-name="AE" unicode="&#xc6;" horiz-adv-x="2048" 
d="M-9 0v287h59l436 903h-163v289h1702v-564h-278l-64 261h-308v-247h161v-372h-161v-261h306l69 289h275v-585h-1209v287h128v223h-372l-105 -223h126v-287h-602zM944 732v451h-78l-216 -451h294z" />
    <glyph glyph-name="Ccedilla" unicode="&#xc7;" horiz-adv-x="1593" 
d="M874 -46l-53 -94q26 5 52 5q93 0 146 -47t53 -111q0 -75 -63 -132q-84 -75 -230 -75q-121 0 -240 59l47 104q96 -42 173 -42q54 0 82 23.5t28 57.5q0 24 -22 42q-29 24 -73 24q-34 0 -74 -19l-66 50l92 159q-186 22 -314 99q-99 59 -168.5 145.5t-107.5 184.5
q-65 167 -65 360q0 155 41 284.5t110.5 219t153 145t181.5 85t212 29.5q122 0 216 -38.5t136 -89.5v97h391v-571h-398q-17 64 -49.5 105t-92.5 65t-132 24q-136 0 -224 -94.5t-88 -260.5q0 -173 88.5 -269t222.5 -96q87 0 152.5 38t101.5 118h462q-15 -146 -110.5 -283.5
t-245.5 -215.5t-325 -85z" />
    <glyph glyph-name="Egrave" unicode="&#xc8;" horiz-adv-x="1593" 
d="M90 0v303h142v877h-142v304h1394v-560h-299l-64 256h-434v-246h271v-370h-271v-256h434l64 280h299v-588h-1394zM822 1874l204 -303h-280l-353 303h429z" />
    <glyph glyph-name="Eacute" unicode="&#xc9;" horiz-adv-x="1593" 
d="M90 0v303h142v877h-142v304h1394v-560h-299l-64 256h-434v-246h271v-370h-271v-256h434l64 280h299v-588h-1394zM1237 1874l-353 -303h-280l204 303h429z" />
    <glyph glyph-name="Ecircumflex" unicode="&#xca;" horiz-adv-x="1593" 
d="M90 0v303h142v877h-142v304h1394v-560h-299l-64 256h-434v-246h271v-370h-271v-256h434l64 280h299v-588h-1394zM647 1874h336l249 -303h-303l-114 154l-114 -154h-303z" />
    <glyph glyph-name="Edieresis" unicode="&#xcb;" horiz-adv-x="1593" 
d="M90 0v303h142v877h-142v304h1394v-560h-299l-64 256h-434v-246h271v-370h-271v-256h434l64 280h299v-588h-1394zM874 1848h348v-265h-348v265zM407 1583v265h348v-265h-348z" />
    <glyph glyph-name="Igrave" unicode="&#xcc;" horiz-adv-x="910" 
d="M835 0h-759v303h147v877h-147v304h759v-304h-157v-877h157v-303zM462 1874l204 -303h-280l-353 303h429z" />
    <glyph glyph-name="Iacute" unicode="&#xcd;" horiz-adv-x="910" 
d="M835 0h-759v303h147v877h-147v304h759v-304h-157v-877h157v-303zM877 1874l-353 -303h-280l204 303h429z" />
    <glyph glyph-name="Icircumflex" unicode="&#xce;" horiz-adv-x="910" 
d="M835 0h-759v303h147v877h-147v304h759v-304h-157v-877h157v-303zM287 1874h336l249 -303h-303l-114 154l-114 -154h-303z" />
    <glyph glyph-name="Idieresis" unicode="&#xcf;" horiz-adv-x="910" 
d="M835 0h-759v303h147v877h-147v304h759v-304h-157v-877h157v-303zM514 1848h348v-265h-348v265zM47 1583v265h348v-265h-348z" />
    <glyph glyph-name="Eth" unicode="&#xd0;" horiz-adv-x="1820" 
d="M85 0v303h147v280h-166v332h166v265h-147v304h664q288 0 432 -25q145 -25 233.5 -73t161.5 -134.5t111 -200.5q50 -146 50 -310q0 -154 -41.5 -274t-122 -215.5t-178 -148t-248.5 -82.5q-105 -21 -322 -21h-740zM678 1178v-263h355v-332h-355v-280h144q231 0 338.5 107.5
t107.5 317.5q0 150 -53 254.5t-143.5 150t-254.5 45.5h-139z" />
    <glyph glyph-name="Ntilde" unicode="&#xd1;" horiz-adv-x="1820" 
d="M90 0v303h147v877h-147v304h571l510 -780v476h-171v304h730v-304h-151v-1180h-403l-527 825v-522h166v-303h-725zM1147 1855h164q-15 -135 -85.5 -203.5t-173.5 -68.5q-75 0 -191 46q-74 30 -101 30q-29 0 -54 -22t-35 -66h-164q14 135 88.5 212t171.5 77q34 0 72 -9
q28 -7 100 -35t85 -32q19 -5 33 -5q32 0 56 19t34 57z" />
    <glyph glyph-name="Ograve" unicode="&#xd2;" horiz-adv-x="1707" 
d="M851 -50q-153 0 -295.5 58.5t-246 161t-161.5 224.5q-77 160 -77 338q0 135 42 254.5t109 209t159.5 162t215.5 115t254 42.5q134 0 252.5 -42t208.5 -109.5t162.5 -161t114.5 -217t42 -253.5q0 -174 -67 -317t-167 -241t-217 -151q-159 -73 -329 -73zM851 1095
q-84 0 -159.5 -43.5t-123 -132t-47.5 -185.5q0 -94 45.5 -180t121.5 -131.5t163 -45.5q86 0 162.5 45t121.5 130.5t45 181.5q0 98 -46.5 186t-122.5 131.5t-160 43.5zM860 1874l204 -303h-280l-353 303h429z" />
    <glyph glyph-name="Oacute" unicode="&#xd3;" horiz-adv-x="1707" 
d="M851 -50q-153 0 -295.5 58.5t-246 161t-161.5 224.5q-77 160 -77 338q0 135 42 254.5t109 209t159.5 162t215.5 115t254 42.5q134 0 252.5 -42t208.5 -109.5t162.5 -161t114.5 -217t42 -253.5q0 -174 -67 -317t-167 -241t-217 -151q-159 -73 -329 -73zM851 1095
q-84 0 -159.5 -43.5t-123 -132t-47.5 -185.5q0 -94 45.5 -180t121.5 -131.5t163 -45.5q86 0 162.5 45t121.5 130.5t45 181.5q0 98 -46.5 186t-122.5 131.5t-160 43.5zM1275 1874l-353 -303h-280l204 303h429z" />
    <glyph glyph-name="Ocircumflex" unicode="&#xd4;" horiz-adv-x="1707" 
d="M851 -50q-153 0 -295.5 58.5t-246 161t-161.5 224.5q-77 160 -77 338q0 135 42 254.5t109 209t159.5 162t215.5 115t254 42.5q134 0 252.5 -42t208.5 -109.5t162.5 -161t114.5 -217t42 -253.5q0 -174 -67 -317t-167 -241t-217 -151q-159 -73 -329 -73zM851 1095
q-84 0 -159.5 -43.5t-123 -132t-47.5 -185.5q0 -94 45.5 -180t121.5 -131.5t163 -45.5q86 0 162.5 45t121.5 130.5t45 181.5q0 98 -46.5 186t-122.5 131.5t-160 43.5zM685 1874h336l249 -303h-303l-114 154l-114 -154h-303z" />
    <glyph glyph-name="Otilde" unicode="&#xd5;" horiz-adv-x="1707" 
d="M851 -50q-153 0 -295.5 58.5t-246 161t-161.5 224.5q-77 160 -77 338q0 135 42 254.5t109 209t159.5 162t215.5 115t254 42.5q134 0 252.5 -42t208.5 -109.5t162.5 -161t114.5 -217t42 -253.5q0 -174 -67 -317t-167 -241t-217 -151q-159 -73 -329 -73zM851 1095
q-84 0 -159.5 -43.5t-123 -132t-47.5 -185.5q0 -94 45.5 -180t121.5 -131.5t163 -45.5q86 0 162.5 45t121.5 130.5t45 181.5q0 98 -46.5 186t-122.5 131.5t-160 43.5zM1090 1855h164q-15 -135 -85.5 -203.5t-173.5 -68.5q-75 0 -191 46q-74 30 -101 30q-29 0 -54 -22
t-35 -66h-164q14 135 88.5 212t171.5 77q34 0 72 -9q28 -7 100 -35t85 -32q19 -5 33 -5q32 0 56 19t34 57z" />
    <glyph glyph-name="Odieresis" unicode="&#xd6;" horiz-adv-x="1707" 
d="M851 -50q-153 0 -295.5 58.5t-246 161t-161.5 224.5q-77 160 -77 338q0 135 42 254.5t109 209t159.5 162t215.5 115t254 42.5q134 0 252.5 -42t208.5 -109.5t162.5 -161t114.5 -217t42 -253.5q0 -174 -67 -317t-167 -241t-217 -151q-159 -73 -329 -73zM851 1095
q-84 0 -159.5 -43.5t-123 -132t-47.5 -185.5q0 -94 45.5 -180t121.5 -131.5t163 -45.5q86 0 162.5 45t121.5 130.5t45 181.5q0 98 -46.5 186t-122.5 131.5t-160 43.5zM912 1848h348v-265h-348v265zM445 1583v265h348v-265h-348z" />
    <glyph glyph-name="multiply" unicode="&#xd7;" horiz-adv-x="1228" 
d="M406 562l-344 327l225 223l342 -330l324 327l214 -215l-330 -323l330 -327l-233 -211l-310 323l-332 -337l-228 213z" />
    <glyph glyph-name="Oslash" unicode="&#xd8;" horiz-adv-x="1707" 
d="M1214 1432l132 187h285l-228 -320q64 -59 103 -120q60 -92 92.5 -205.5t32.5 -253.5q0 -194 -57.5 -322t-153 -223t-215.5 -150q-161 -75 -357 -75q-102 0 -197.5 21.5t-157.5 54.5l-164 -225h-284l256 360q-69 66 -114 142q-62 102 -89 206t-27 230q0 247 100.5 412
t273.5 262.5t399 97.5q216 0 370 -79zM574 538l384 536q-44 17 -110 17q-140 0 -229.5 -95t-89.5 -265q0 -61 13.5 -113.5t31.5 -79.5zM1135 927l-381 -536q39 -14 93 -14q94 0 170.5 43.5t117.5 128.5t41 182q0 104 -41 196z" />
    <glyph glyph-name="Ugrave" unicode="&#xd9;" horiz-adv-x="1820" 
d="M85 1484h735v-304h-142v-523q0 -191 33 -248q53 -87 195 -87q144 0 197 85q32 52 32 228v545h-145v304h740v-304h-154v-497q0 -233 -15 -323q-15 -91 -58 -159t-123.5 -127.5t-184.5 -87.5q-139 -38 -291 -38q-146 0 -256.5 23.5t-191 74t-128.5 115.5t-73 177
q-18 84 -18 274v568h-152v304zM928 1874l204 -303h-280l-353 303h429z" />
    <glyph glyph-name="Uacute" unicode="&#xda;" horiz-adv-x="1820" 
d="M85 1484h735v-304h-142v-523q0 -191 33 -248q53 -87 195 -87q144 0 197 85q32 52 32 228v545h-145v304h740v-304h-154v-497q0 -233 -15 -323q-15 -91 -58 -159t-123.5 -127.5t-184.5 -87.5q-139 -38 -291 -38q-146 0 -256.5 23.5t-191 74t-128.5 115.5t-73 177
q-18 84 -18 274v568h-152v304zM1343 1874l-353 -303h-280l204 303h429z" />
    <glyph glyph-name="Ucircumflex" unicode="&#xdb;" horiz-adv-x="1820" 
d="M85 1484h735v-304h-142v-523q0 -191 33 -248q53 -87 195 -87q144 0 197 85q32 52 32 228v545h-145v304h740v-304h-154v-497q0 -233 -15 -323q-15 -91 -58 -159t-123.5 -127.5t-184.5 -87.5q-139 -38 -291 -38q-146 0 -256.5 23.5t-191 74t-128.5 115.5t-73 177
q-18 84 -18 274v568h-152v304zM753 1874h336l249 -303h-303l-114 154l-114 -154h-303z" />
    <glyph glyph-name="Udieresis" unicode="&#xdc;" horiz-adv-x="1820" 
d="M85 1484h735v-304h-142v-523q0 -191 33 -248q53 -87 195 -87q144 0 197 85q32 52 32 228v545h-145v304h740v-304h-154v-497q0 -233 -15 -323q-15 -91 -58 -159t-123.5 -127.5t-184.5 -87.5q-139 -38 -291 -38q-146 0 -256.5 23.5t-191 74t-128.5 115.5t-73 177
q-18 84 -18 274v568h-152v304zM981 1848h348v-265h-348v265zM514 1583v265h348v-265h-348z" />
    <glyph glyph-name="Yacute" unicode="&#xdd;" horiz-adv-x="1707" 
d="M71 1484h716v-304h-119l199 -350l202 350h-116v304h682v-304h-120l-420 -640v-237h156v-303h-758v303h152v249l-453 628h-121v304zM1275 1874l-353 -303h-280l204 303h429z" />
    <glyph glyph-name="Thorn" unicode="&#xde;" horiz-adv-x="1593" 
d="M683 292v-292h-602v303h147v877h-147v304h602v-249h166q202 0 300 -13.5t169 -52.5t115.5 -89t69.5 -114q33 -89 33 -198q0 -106 -31 -192q-23 -66 -69 -119.5t-101 -89.5t-145 -55.5t-355 -19.5h-152zM683 578h169q42 0 89 8.5t69 24.5q34 23 52.5 57.5t18.5 93.5
q0 85 -49.5 128.5t-177.5 43.5h-171v-356z" />
    <glyph glyph-name="germandbls" unicode="&#xdf;" horiz-adv-x="1479" 
d="M180 294v628q0 145 19 227q20 82 58.5 139.5t104.5 107.5t145 75q114 36 248 36q136 0 252 -36q89 -26 154 -78t102.5 -126.5t37.5 -185.5q0 -105 -47 -170.5t-138 -95.5q104 -41 168 -95t96 -136t32 -187q0 -199 -113.5 -313.5t-311.5 -114.5q-104 0 -172 29l47 282
q31 -5 53 -5q40 0 64 33.5t24 133.5q0 62 -18 96t-56.5 56.5t-132.5 40.5v278q63 8 93.5 44t30.5 104q0 77 -41 117.5t-116 40.5q-54 0 -92 -20t-55.5 -51.5t-22.5 -96.5q-3 -37 -3 -150v-607h78v-294h-602v294h114z" />
    <glyph glyph-name="agrave" unicode="&#xe0;" horiz-adv-x="1479" 
d="M901 841v157h493v-296h-114v-418h114v-298h-500v156q-58 -69 -93 -97q-50 -40 -111.5 -64t-139.5 -24q-132 0 -242 68t-171 197.5t-61 283.5q0 146 57 269t166 189.5t243 66.5q83 0 150 -22.5t110.5 -58.5t98.5 -109zM889 487q0 78 -56 133.5t-135 55.5t-134.5 -56
t-55.5 -135q0 -80 54.5 -134.5t135.5 -54.5q80 0 135.5 55.5t55.5 135.5zM758 1460l204 -303h-280l-353 303h429z" />
    <glyph glyph-name="aacute" unicode="&#xe1;" horiz-adv-x="1479" 
d="M901 841v157h493v-296h-114v-418h114v-298h-500v156q-58 -69 -93 -97q-50 -40 -111.5 -64t-139.5 -24q-132 0 -242 68t-171 197.5t-61 283.5q0 146 57 269t166 189.5t243 66.5q83 0 150 -22.5t110.5 -58.5t98.5 -109zM889 487q0 78 -56 133.5t-135 55.5t-134.5 -56
t-55.5 -135q0 -80 54.5 -134.5t135.5 -54.5q80 0 135.5 55.5t55.5 135.5zM1173 1460l-353 -303h-280l204 303h429z" />
    <glyph glyph-name="acircumflex" unicode="&#xe2;" horiz-adv-x="1479" 
d="M901 841v157h493v-296h-114v-418h114v-298h-500v156q-58 -69 -93 -97q-50 -40 -111.5 -64t-139.5 -24q-132 0 -242 68t-171 197.5t-61 283.5q0 146 57 269t166 189.5t243 66.5q83 0 150 -22.5t110.5 -58.5t98.5 -109zM889 487q0 78 -56 133.5t-135 55.5t-134.5 -56
t-55.5 -135q0 -80 54.5 -134.5t135.5 -54.5q80 0 135.5 55.5t55.5 135.5zM583 1460h336l249 -303h-303l-114 154l-114 -154h-303z" />
    <glyph glyph-name="atilde" unicode="&#xe3;" horiz-adv-x="1479" 
d="M901 841v157h493v-296h-114v-418h114v-298h-500v156q-58 -69 -93 -97q-50 -40 -111.5 -64t-139.5 -24q-132 0 -242 68t-171 197.5t-61 283.5q0 146 57 269t166 189.5t243 66.5q83 0 150 -22.5t110.5 -58.5t98.5 -109zM889 487q0 78 -56 133.5t-135 55.5t-134.5 -56
t-55.5 -135q0 -80 54.5 -134.5t135.5 -54.5q80 0 135.5 55.5t55.5 135.5zM988 1441h164q-15 -135 -85.5 -203.5t-173.5 -68.5q-75 0 -191 46q-74 30 -101 30q-29 0 -54 -22t-35 -66h-164q14 135 88.5 212t171.5 77q34 0 72 -9q28 -7 100 -35t85 -32q19 -5 33 -5q32 0 56 19
t34 57z" />
    <glyph glyph-name="adieresis" unicode="&#xe4;" horiz-adv-x="1479" 
d="M901 841v157h493v-296h-114v-418h114v-298h-500v156q-58 -69 -93 -97q-50 -40 -111.5 -64t-139.5 -24q-132 0 -242 68t-171 197.5t-61 283.5q0 146 57 269t166 189.5t243 66.5q83 0 150 -22.5t110.5 -58.5t98.5 -109zM889 487q0 78 -56 133.5t-135 55.5t-134.5 -56
t-55.5 -135q0 -80 54.5 -134.5t135.5 -54.5q80 0 135.5 55.5t55.5 135.5zM810 1434h348v-265h-348v265zM343 1169v265h348v-265h-348z" />
    <glyph glyph-name="aring" unicode="&#xe5;" horiz-adv-x="1479" 
d="M901 841v157h493v-296h-114v-418h114v-298h-500v156q-58 -69 -93 -97q-50 -40 -111.5 -64t-139.5 -24q-132 0 -242 68t-171 197.5t-61 283.5q0 146 57 269t166 189.5t243 66.5q83 0 150 -22.5t110.5 -58.5t98.5 -109zM889 487q0 78 -56 133.5t-135 55.5t-134.5 -56
t-55.5 -135q0 -80 54.5 -134.5t135.5 -54.5q80 0 135.5 55.5t55.5 135.5zM991 1394q0 -100 -70.5 -170t-169.5 -70t-169 70.5t-70 169.5t70 169t169 70t169.5 -70t70.5 -169zM645 1394q0 -45 31 -76t75 -31q45 0 76 31.5t31 75.5t-31 75t-76 31q-44 0 -75 -31t-31 -75z" />
    <glyph glyph-name="ae" unicode="&#xe6;" horiz-adv-x="1934" 
d="M1487 322l358 -85q-37 -87 -90 -141q-73 -75 -179.5 -111.5t-260.5 -36.5q-118 0 -203 21q-66 17 -116.5 46t-113.5 82q-155 -93 -244 -121.5t-196 -28.5q-171 0 -285 80.5t-114 253.5q0 158 113.5 259t323.5 101q97 0 179 -22t133 -60q1 48 1 61q0 69 -19.5 106.5
t-78.5 63.5t-162 26q-128 0 -305 -53v225q43 23 144.5 43t195.5 20q117 0 230 -27q76 -19 184 -69q146 91 339 91q125 0 225.5 -33.5t168.5 -99t102 -141.5q57 -125 57 -287q0 -19 -1 -58h-730q3 -99 50 -148t130 -49q58 0 100.5 27t63.5 65zM1143 564h356v26
q0 97 -45.5 144.5t-127.5 47.5q-95 0 -145 -69q-33 -47 -38 -149zM788 312q0 61 -50 104.5t-132 43.5q-80 0 -129.5 -44t-49.5 -104q0 -63 50 -108t129 -45q80 0 131 45.5t51 107.5z" />
    <glyph glyph-name="ccedilla" unicode="&#xe7;" horiz-adv-x="1252" 
d="M531 -31q-210 34 -330 176.5t-120 363.5q0 237 137 379.5t345 142.5q108 0 191 -35q61 -25 128 -91v105h266v-410h-325q-10 47 -51 78t-102 31q-79 0 -126.5 -52t-47.5 -149q0 -106 49 -161t124 -55q47 0 80.5 19.5t61.5 60.5h370q-21 -163 -155 -280t-349 -130l-57 -102
q26 5 51 5q93 0 146.5 -47t53.5 -111q0 -75 -63 -132q-85 -75 -231 -75q-121 0 -239 59l47 104q95 -42 173 -42q54 0 81.5 23.5t27.5 57.5q0 24 -22 42q-29 24 -73 24q-34 0 -73 -19l-67 50z" />
    <glyph glyph-name="egrave" unicode="&#xe8;" 
d="M1271 424h-763q0 -103 48.5 -153.5t141.5 -50.5q63 0 103 21t76 70l358 -72q-51 -120 -184.5 -199.5t-351.5 -79.5q-293 0 -455.5 150.5t-162.5 383.5q0 257 191 408q164 130 417 130q277 0 431 -146.5t154 -396.5q0 -28 -3 -65zM503 557h382q1 121 -44 172t-137 51
q-93 0 -146 -55.5t-55 -167.5zM690 1460l204 -303h-280l-353 303h429z" />
    <glyph glyph-name="eacute" unicode="&#xe9;" 
d="M1271 424h-763q0 -103 48.5 -153.5t141.5 -50.5q63 0 103 21t76 70l358 -72q-51 -120 -184.5 -199.5t-351.5 -79.5q-293 0 -455.5 150.5t-162.5 383.5q0 257 191 408q164 130 417 130q277 0 431 -146.5t154 -396.5q0 -28 -3 -65zM503 557h382q1 121 -44 172t-137 51
q-93 0 -146 -55.5t-55 -167.5zM1106 1460l-353 -303h-280l204 303h429z" />
    <glyph glyph-name="ecircumflex" unicode="&#xea;" 
d="M1271 424h-763q0 -103 48.5 -153.5t141.5 -50.5q63 0 103 21t76 70l358 -72q-51 -120 -184.5 -199.5t-351.5 -79.5q-293 0 -455.5 150.5t-162.5 383.5q0 257 191 408q164 130 417 130q277 0 431 -146.5t154 -396.5q0 -28 -3 -65zM503 557h382q1 121 -44 172t-137 51
q-93 0 -146 -55.5t-55 -167.5zM515 1460h336l249 -303h-303l-114 154l-114 -154h-303z" />
    <glyph glyph-name="edieresis" unicode="&#xeb;" 
d="M1271 424h-763q0 -103 48.5 -153.5t141.5 -50.5q63 0 103 21t76 70l358 -72q-51 -120 -184.5 -199.5t-351.5 -79.5q-293 0 -455.5 150.5t-162.5 383.5q0 257 191 408q164 130 417 130q277 0 431 -146.5t154 -396.5q0 -28 -3 -65zM503 557h382q1 121 -44 172t-137 51
q-93 0 -146 -55.5t-55 -167.5zM742 1434h348v-265h-348v265zM275 1169v265h348v-265h-348z" />
    <glyph glyph-name="igrave" unicode="&#xec;" horiz-adv-x="796" 
d="M81 0v294h109v417h-109v289h531v-706h100v-294h-631zM393 1460l204 -303h-280l-353 303h429z" />
    <glyph glyph-name="iacute" unicode="&#xed;" horiz-adv-x="796" 
d="M81 0v294h109v417h-109v289h531v-706h100v-294h-631zM808 1460l-353 -303h-280l204 303h429z" />
    <glyph glyph-name="icircumflex" unicode="&#xee;" horiz-adv-x="796" 
d="M81 0v294h109v417h-109v289h531v-706h100v-294h-631zM218 1460h336l249 -303h-303l-114 154l-114 -154h-303z" />
    <glyph glyph-name="idieresis" unicode="&#xef;" horiz-adv-x="796" 
d="M81 0v294h109v417h-109v289h531v-706h100v-294h-631zM445 1434h348v-265h-348v265zM-22 1169v265h348v-265h-348z" />
    <glyph glyph-name="eth" unicode="&#xf0;" 
d="M1090 1351l-242 -88q198 -163 309 -371.5t111 -379.5q0 -193 -119 -342q-168 -211 -461 -211q-176 0 -316.5 76t-217 208.5t-76.5 264.5q0 130 76 254.5t207.5 193.5t255.5 69q21 0 44 -3l-93 112q-11 12 -25 25l-285 -104l-109 156l254 83q-100 102 -223 190h431l88 -81
l261 88zM687 294q80 0 134 57t54 153q0 86 -54 140.5t-133 54.5q-91 0 -150.5 -58.5t-59.5 -146.5q0 -57 27.5 -104.5t77.5 -71.5t104 -24z" />
    <glyph glyph-name="ntilde" unicode="&#xf1;" horiz-adv-x="1479" 
d="M1294 294h109v-294h-531v493q0 156 -19 193q-28 54 -114 54q-93 0 -129 -57q-18 -28 -18 -164v-225h114v-294h-635v294h104v436h-104v270h514v-113q99 74 192.5 109t201.5 35q81 0 147 -23t107 -68q28 -31 44.5 -87.5t16.5 -153.5v-405zM976 1441h164
q-15 -135 -85.5 -203.5t-173.5 -68.5q-75 0 -191 46q-74 30 -101 30q-29 0 -54 -22t-35 -66h-164q14 135 88.5 212t171.5 77q34 0 72 -9q28 -7 100 -35t85 -32q19 -5 33 -5q32 0 56 19t34 57z" />
    <glyph glyph-name="ograve" unicode="&#xf2;" 
d="M684 -42q-107 0 -221 39.5t-198.5 114.5t-135.5 172.5t-51 217.5q0 138 76.5 261.5t222 197t308.5 73.5q161 0 300.5 -72.5t213.5 -198t74 -259.5q0 -137 -78.5 -269.5t-218 -204.5t-292.5 -72zM687 294q80 0 134 57t54 153q0 86 -54 140.5t-133 54.5q-56 0 -106 -26.5
t-77 -74.5t-27 -104t27.5 -104t77.5 -72t104 -24zM689 1460l204 -303h-280l-353 303h429z" />
    <glyph glyph-name="oacute" unicode="&#xf3;" 
d="M684 -42q-107 0 -221 39.5t-198.5 114.5t-135.5 172.5t-51 217.5q0 138 76.5 261.5t222 197t308.5 73.5q161 0 300.5 -72.5t213.5 -198t74 -259.5q0 -137 -78.5 -269.5t-218 -204.5t-292.5 -72zM687 294q80 0 134 57t54 153q0 86 -54 140.5t-133 54.5q-56 0 -106 -26.5
t-77 -74.5t-27 -104t27.5 -104t77.5 -72t104 -24zM1104 1460l-353 -303h-280l204 303h429z" />
    <glyph glyph-name="ocircumflex" unicode="&#xf4;" 
d="M684 -42q-107 0 -221 39.5t-198.5 114.5t-135.5 172.5t-51 217.5q0 138 76.5 261.5t222 197t308.5 73.5q161 0 300.5 -72.5t213.5 -198t74 -259.5q0 -137 -78.5 -269.5t-218 -204.5t-292.5 -72zM687 294q80 0 134 57t54 153q0 86 -54 140.5t-133 54.5q-56 0 -106 -26.5
t-77 -74.5t-27 -104t27.5 -104t77.5 -72t104 -24zM514 1460h336l249 -303h-303l-114 154l-114 -154h-303z" />
    <glyph glyph-name="otilde" unicode="&#xf5;" 
d="M684 -42q-107 0 -221 39.5t-198.5 114.5t-135.5 172.5t-51 217.5q0 138 76.5 261.5t222 197t308.5 73.5q161 0 300.5 -72.5t213.5 -198t74 -259.5q0 -137 -78.5 -269.5t-218 -204.5t-292.5 -72zM687 294q80 0 134 57t54 153q0 86 -54 140.5t-133 54.5q-56 0 -106 -26.5
t-77 -74.5t-27 -104t27.5 -104t77.5 -72t104 -24zM919 1441h164q-15 -135 -85.5 -203.5t-173.5 -68.5q-75 0 -191 46q-74 30 -101 30q-29 0 -54 -22t-35 -66h-164q14 135 88.5 212t171.5 77q34 0 72 -9q28 -7 100 -35t85 -32q19 -5 33 -5q32 0 56 19t34 57z" />
    <glyph glyph-name="odieresis" unicode="&#xf6;" 
d="M684 -42q-107 0 -221 39.5t-198.5 114.5t-135.5 172.5t-51 217.5q0 138 76.5 261.5t222 197t308.5 73.5q161 0 300.5 -72.5t213.5 -198t74 -259.5q0 -137 -78.5 -269.5t-218 -204.5t-292.5 -72zM687 294q80 0 134 57t54 153q0 86 -54 140.5t-133 54.5q-56 0 -106 -26.5
t-77 -74.5t-27 -104t27.5 -104t77.5 -72t104 -24zM741 1434h348v-265h-348v265zM274 1169v265h348v-265h-348z" />
    <glyph glyph-name="divide" unicode="&#xf7;" horiz-adv-x="1228" 
d="M615 1185q88 0 149 -60t61 -144t-61 -144t-149 -60t-149 60t-61 144t61 144t149 60zM52 403v320h1124v-320h-1124zM615 346q88 0 149 -60t61 -141q0 -82 -62.5 -143t-148.5 -61q-87 0 -148 60t-61 143q0 82 61 142t149 60z" />
    <glyph glyph-name="oslash" unicode="&#xf8;" 
d="M293 -237h-231l225 331q-108 91 -158 195.5t-50 216.5q0 131 73 252t217.5 198.5t314.5 77.5q61 0 107 -7.5t110 -28.5l137 201h235l-79 -115l-123 -180q60 -47 95 -92q48 -62 77.5 -143.5t29.5 -167.5q0 -133 -75.5 -263t-214.5 -204.5t-297 -74.5q-119 0 -232 41z
M698 697h-15q-53 0 -102.5 -27.5t-77 -76.5t-27.5 -101q0 -44 21 -91zM654 293q10 -1 18 -1q85 0 143 58.5t58 144.5q0 48 -20 90z" />
    <glyph glyph-name="ugrave" unicode="&#xf9;" horiz-adv-x="1479" 
d="M178 730h-107v270h531v-486q0 -156 19 -193q28 -53 114 -53q93 0 129 57q18 27 18 163v242h-114v270h531v-706h104v-294h-514v126q-177 -150 -396 -150q-186 0 -269 110q-46 61 -46 222v422zM746 1460l204 -303h-280l-353 303h429z" />
    <glyph glyph-name="uacute" unicode="&#xfa;" horiz-adv-x="1479" 
d="M178 730h-107v270h531v-486q0 -156 19 -193q28 -53 114 -53q93 0 129 57q18 27 18 163v242h-114v270h531v-706h104v-294h-514v126q-177 -150 -396 -150q-186 0 -269 110q-46 61 -46 222v422zM1161 1460l-353 -303h-280l204 303h429z" />
    <glyph glyph-name="ucircumflex" unicode="&#xfb;" horiz-adv-x="1479" 
d="M178 730h-107v270h531v-486q0 -156 19 -193q28 -53 114 -53q93 0 129 57q18 27 18 163v242h-114v270h531v-706h104v-294h-514v126q-177 -150 -396 -150q-186 0 -269 110q-46 61 -46 222v422zM571 1460h336l249 -303h-303l-114 154l-114 -154h-303z" />
    <glyph glyph-name="udieresis" unicode="&#xfc;" horiz-adv-x="1479" 
d="M178 730h-107v270h531v-486q0 -156 19 -193q28 -53 114 -53q93 0 129 57q18 27 18 163v242h-114v270h531v-706h104v-294h-514v126q-177 -150 -396 -150q-186 0 -269 110q-46 61 -46 222v422zM798 1434h348v-265h-348v265zM331 1169v265h348v-265h-348z" />
    <glyph glyph-name="yacute" unicode="&#xfd;" 
d="M47 1000h569v-270h-90l178 -332l173 332h-90v270h526v-289h-67l-455 -844h176v-294h-707v294h159l81 150l-389 694h-64v289zM1104 1460l-353 -303h-280l204 303h429z" />
    <glyph glyph-name="thorn" unicode="&#xfe;" horiz-adv-x="1479" 
d="M587 882l22 21q128 128 317 128q139 0 249 -58.5t163 -177.5t53 -278q0 -250 -122 -395.5t-350 -145.5q-113 0 -200 46.5t-132 110.5v-266h143v-294h-655v294h114v1323h-123v294h521v-602zM771 303q79 0 135 56t56 134q0 77 -56 132t-134 55q-76 0 -130.5 -54.5
t-54.5 -132.5q0 -79 54 -134.5t130 -55.5z" />
    <glyph glyph-name="ydieresis" unicode="&#xff;" 
d="M47 1000h569v-270h-90l178 -332l173 332h-90v270h526v-289h-67l-455 -844h176v-294h-707v294h159l81 150l-389 694h-64v289zM741 1434h348v-265h-348v265zM274 1169v265h348v-265h-348z" />
    <glyph glyph-name="Cacute" unicode="&#x106;" horiz-adv-x="1593" 
d="M1121 1382v97h391v-571h-398q-17 64 -49.5 105t-92.5 65t-132 24q-136 0 -224 -94.5t-88 -260.5q0 -173 88.5 -269t222.5 -96q87 0 152.5 38t101.5 118h462q-21 -206 -185 -372q-211 -214 -545 -214q-165 0 -304 53t-233 148.5t-145 215.5q-72 171 -72 378
q0 155 41 284.5t110.5 219t153 145t181.5 85t212 29.5q122 0 216 -38.5t136 -89.5zM1230 1874l-353 -303h-280l204 303h429z" />
    <glyph glyph-name="cacute" unicode="&#x107;" horiz-adv-x="1252" 
d="M882 905v105h266v-410h-325q-10 47 -51 78t-102 31q-79 0 -126.5 -52t-47.5 -149q0 -106 49 -161t124 -55q47 0 80.5 19.5t61.5 60.5h370q-9 -67 -32 -118q-40 -86 -111 -151.5t-173.5 -103.5t-227.5 -38q-229 0 -378 126q-178 151 -178 422q0 237 137 379.5t345 142.5
q108 0 191 -35q61 -25 128 -91zM1048 1460l-353 -303h-280l204 303h429z" />
    <glyph glyph-name="Ccaron" unicode="&#x10c;" horiz-adv-x="1593" 
d="M1121 1382v97h391v-571h-398q-17 64 -49.5 105t-92.5 65t-132 24q-136 0 -224 -94.5t-88 -260.5q0 -173 88.5 -269t222.5 -96q87 0 152.5 38t101.5 118h462q-21 -206 -185 -372q-211 -214 -545 -214q-165 0 -304 53t-233 148.5t-145 215.5q-72 171 -72 378
q0 155 41 284.5t110.5 219t153 145t181.5 85t212 29.5q122 0 216 -38.5t136 -89.5zM1225 1874l-249 -303h-336l-249 303h303l114 -154l114 154h303z" />
    <glyph glyph-name="ccaron" unicode="&#x10d;" horiz-adv-x="1252" 
d="M882 905v105h266v-410h-325q-10 47 -51 78t-102 31q-79 0 -126.5 -52t-47.5 -149q0 -106 49 -161t124 -55q47 0 80.5 19.5t61.5 60.5h370q-9 -67 -32 -118q-40 -86 -111 -151.5t-173.5 -103.5t-227.5 -38q-229 0 -378 126q-178 151 -178 422q0 237 137 379.5t345 142.5
q108 0 191 -35q61 -25 128 -91zM1043 1460l-249 -303h-336l-249 303h303l114 -154l114 154h303z" />
    <glyph glyph-name="dcroat" unicode="&#x111;" horiz-adv-x="1479" 
d="M875 1097h-302v170h302v54h-149v163h566v-217h98v-177h-98v-806h114v-298h-505v130q-79 -80 -162 -119.5t-182 -39.5q-191 0 -329 150t-138 395q0 233 129.5 366t340.5 133q165 0 315 -94v190zM884 495q0 79 -57 135.5t-136 56.5q-78 0 -133.5 -56.5t-55.5 -135.5
t55.5 -134.5t133.5 -55.5q80 0 136.5 55.5t56.5 134.5z" />
    <glyph glyph-name="Gbreve" unicode="&#x11e;" horiz-adv-x="1820" 
d="M1154 1384v95h396v-526h-394q-38 82 -108.5 121.5t-162.5 39.5q-150 0 -245 -99.5t-95 -273.5q0 -131 47 -218.5t125 -128.5q60 -31 148 -31q75 0 136 22t92.5 54t53.5 85h-190v282h797v-296h-138v-519h-374v151q-102 -104 -203.5 -149t-235.5 -45q-311 0 -514.5 212.5
t-203.5 566.5q0 197 65 364q42 106 123.5 200.5t202.5 156.5t298 62q119 0 207.5 -30.5t172.5 -95.5zM537 1884h164q5 -57 53 -92.5t162 -35.5q99 0 144 31t62 97h159q-7 -142 -105.5 -227.5t-280.5 -85.5q-170 0 -261 83.5t-97 229.5z" />
    <glyph glyph-name="gbreve" unicode="&#x11f;" horiz-adv-x="1479" 
d="M882 891v107h512v-285h-121v-668q0 -116 -24 -184.5t-104.5 -136.5t-206.5 -109.5t-330 -41.5q-253 0 -438 86v291q201 -100 398 -100q115 0 186 29.5t97 81t26 153.5v35l-26 -21q-119 -97 -304 -97q-212 0 -340.5 133t-128.5 366q0 231 132 366t347 135
q114 0 188.5 -34.5t136.5 -105.5zM703 325q78 0 133 55.5t55 133.5q0 81 -55 136.5t-134 55.5q-80 0 -136.5 -56t-56.5 -135q0 -78 56.5 -134t137.5 -56zM367 1470h164q5 -57 53 -92.5t162 -35.5q99 0 144 31t62 97h159q-7 -142 -105.5 -227.5t-280.5 -85.5
q-170 0 -261 83.5t-97 229.5z" />
    <glyph glyph-name="Idotaccent" unicode="&#x130;" horiz-adv-x="910" 
d="M835 0h-759v303h147v877h-147v304h759v-304h-157v-877h157v-303zM279 1583v265h348v-265h-348z" />
    <glyph glyph-name="dotlessi" unicode="&#x131;" horiz-adv-x="796" 
d="M81 0v294h109v417h-109v289h531v-706h100v-294h-631z" />
    <glyph glyph-name="Lslash" unicode="&#x141;" horiz-adv-x="1479" 
d="M71 0v303h151v211l-175 -49v331l175 50v334h-151v304h758v-304h-151v-201l355 102v-332l-355 -102v-344h374l66 290h285v-593h-1332z" />
    <glyph glyph-name="lslash" unicode="&#x142;" horiz-adv-x="796" 
d="M67 1484h545v-436l161 57v-332l-161 -57v-422h109v-294h-654v294h123v275l-159 -57v332l159 54v292h-123v294z" />
    <glyph glyph-name="OE" unicode="&#x152;" horiz-adv-x="2048" 
d="M2024 1479v-564h-277l-64 261h-323v-247h176v-372h-176v-256h323l66 280h275v-581h-1152q-249 0 -320 10q-129 18 -220.5 71t-166 148t-113 218.5t-38.5 278.5q0 150 36.5 270t105.5 215t155.5 153.5t222.5 90.5q99 24 281 24h1209zM934 396v690q-68 33 -157 33
q-139 0 -233.5 -103.5t-94.5 -286.5q0 -177 87 -273t222 -96q110 0 176 36z" />
    <glyph glyph-name="oe" unicode="&#x153;" horiz-adv-x="2048" 
d="M1972 431h-733q5 -103 51.5 -151t128.5 -48q54 0 99.5 27.5t66.5 67.5l349 -85q-51 -127 -185 -211t-332 -84q-127 0 -225 29q-67 20 -159 81q-158 -109 -377 -109q-262 0 -422.5 156t-160.5 392q0 233 165.5 392.5t427.5 159.5q104 0 189 -25t180 -82q78 49 183 78
t211 29q160 0 287.5 -64t192 -193.5t64.5 -304.5q0 -18 -1 -55zM1242 569h355v19q0 103 -45.5 151t-125.5 48q-82 0 -133 -55.5t-51 -162.5zM670 680q-77 0 -131 -52.5t-54 -125.5q0 -75 54 -128.5t131 -53.5q76 0 129.5 53.5t53.5 128.5q0 73 -53 125.5t-130 52.5z" />
    <glyph glyph-name="Scedilla" unicode="&#x15e;" horiz-adv-x="1479" 
d="M752 -40l-56 -100q26 5 52 5q93 0 146.5 -47t53.5 -111q0 -75 -64 -132q-84 -75 -230 -75q-121 0 -240 59l48 104q95 -42 172 -42q54 0 82 23.5t28 57.5q0 24 -22 42q-29 24 -73 24q-34 0 -74 -19l-66 50l114 196q-56 24 -96 50q-30 21 -60 52v-111h-367v471h377
q58 -102 135 -151.5t186 -49.5q100 0 146.5 39t46.5 102q0 47 -24 73.5t-112 47.5q-55 13 -210.5 34.5t-234.5 46.5q-118 38 -193 97t-121 146.5t-46 192.5q0 104 44 190t115 148.5t151 92.5q112 44 262 44q122 0 211 -32t173 -103v116h369v-431h-372q-55 94 -143 138
t-192 44q-94 0 -138 -36.5t-44 -90.5q0 -41 24 -68.5t77 -40.5t192 -34q190 -29 251 -44q104 -28 165 -63t112 -91.5t82 -141t31 -185.5q0 -215 -150 -354.5t-411 -139.5q-55 0 -107 7z" />
    <glyph glyph-name="scedilla" unicode="&#x15f;" horiz-adv-x="1024" 
d="M539 -52l-49 -88q26 5 51 5q94 0 147 -47t53 -111q0 -75 -63 -132q-85 -75 -231 -75q-121 0 -239 59l47 104q95 -42 173 -42q54 0 81.5 23.5t27.5 57.5q0 24 -22 42q-29 24 -73 24q-34 0 -73 -19l-66 50l101 175q-62 22 -110 62v-60h-233v271h233q38 -60 82.5 -86
t109.5 -26t95 24.5t30 60.5q0 44 -32.5 64.5t-170 50.5t-214.5 72.5t-112 108.5t-35 154q0 161 102.5 261t274.5 100q94 0 172.5 -28t116.5 -69v73h230v-277h-232q-30 52 -73.5 79.5t-108.5 27.5q-62 0 -90.5 -24t-28.5 -63q0 -40 26 -61q34 -28 158 -50t209 -63t124.5 -110
t39.5 -166q0 -158 -105 -255t-295 -97h-28z" />
    <glyph glyph-name="Scaron" unicode="&#x160;" horiz-adv-x="1479" 
d="M1006 1375v116h369v-431h-372q-55 94 -143 138t-192 44q-94 0 -138 -36.5t-44 -90.5q0 -41 24 -68.5t77 -40.5t192 -34q190 -29 251 -44q104 -28 165 -63t112 -91.5t82 -141t31 -185.5q0 -215 -150 -354.5t-411 -139.5q-132 0 -232.5 41t-159.5 103v-111h-367v471h377
q58 -102 135 -151.5t186 -49.5q100 0 146.5 39t46.5 102q0 47 -23.5 73.5t-106.5 46.5q-61 15 -217 36t-237 47q-118 39 -192 97.5t-119.5 145.5t-45.5 192q0 104 44 190t115 148.5t151 92.5q112 44 262 44q122 0 211 -32t173 -103zM1156 1874l-249 -303h-336l-249 303h303
l114 -154l114 154h303z" />
    <glyph glyph-name="scaron" unicode="&#x161;" horiz-adv-x="1024" 
d="M713 934v73h230v-277h-232q-30 52 -73.5 79.5t-108.5 27.5q-62 0 -90.5 -24t-28.5 -63q0 -40 26 -61q34 -28 158 -50t209 -63t124.5 -110t39.5 -166q0 -158 -105 -255t-295 -97q-164 0 -273 88v-60h-233v271h233q38 -60 82.5 -86t109.5 -26t95 24.5t30 59.5q0 44 -34 66
q-24 16 -144 44l-80 19q-108 26 -176.5 69.5t-99 106t-30.5 146.5q0 161 102.5 261t274.5 100q94 0 172.5 -28t116.5 -69zM928 1460l-249 -303h-336l-249 303h303l114 -154l114 154h303z" />
    <glyph glyph-name="Ydieresis" unicode="&#x178;" horiz-adv-x="1707" 
d="M71 1484h716v-304h-119l199 -350l202 350h-116v304h682v-304h-120l-420 -640v-237h156v-303h-758v303h152v249l-453 628h-121v304zM912 1848h348v-265h-348v265zM445 1583v265h348v-265h-348z" />
    <glyph glyph-name="Zcaron" unicode="&#x17d;" horiz-adv-x="1593" 
d="M104 0v313l770 867h-391l-52 -232h-299v536h1342v-275l-811 -906h463l64 280h294v-583h-1380zM1213 1874l-249 -303h-336l-249 303h303l114 -154l114 154h303z" />
    <glyph glyph-name="zcaron" unicode="&#x17e;" horiz-adv-x="1252" 
d="M114 640v360h1019v-223l-540 -530h305l41 128h194v-375h-1024v244l521 510h-282l-38 -114h-196zM1042 1460l-249 -303h-336l-249 303h303l114 -154l114 154h303z" />
    <glyph glyph-name="florin" unicode="&#x192;" 
d="M47 -329l38 298q91 -45 168 -45q57 0 88 20t45 58q15 39 31 147l69 470h-240v265h277q16 150 44 247.5t68 160t100 105.5t133.5 65t155.5 22q117 0 277 -48l-38 -303q-98 43 -166 43q-57 0 -93 -24.5t-55 -76t-34 -191.5h260v-265h-296l-92 -595q-31 -194 -153.5 -297.5
t-316.5 -103.5q-141 0 -270 48z" />
    <glyph glyph-name="circumflex" unicode="&#x2c6;" horiz-adv-x="683" 
d="M173 1460h336l249 -303h-303l-114 154l-114 -154h-303z" />
    <glyph glyph-name="caron" unicode="&#x2c7;" horiz-adv-x="683" 
d="M758 1460l-249 -303h-336l-249 303h303l114 -154l114 154h303z" />
    <glyph glyph-name="breve" unicode="&#x2d8;" horiz-adv-x="683" 
d="M-31 1470h164q5 -57 53 -92.5t162 -35.5q99 0 144 31t62 97h159q-7 -142 -105.5 -227.5t-280.5 -85.5q-170 0 -261 83.5t-97 229.5z" />
    <glyph glyph-name="dotaccent" unicode="&#x2d9;" horiz-adv-x="683" 
d="M166 1169v265h348v-265h-348z" />
    <glyph glyph-name="ring" unicode="&#x2da;" horiz-adv-x="683" 
d="M581 1394q0 -100 -70.5 -170t-169.5 -70t-169 70.5t-70 169.5t70 169t169 70t169.5 -70t70.5 -169zM235 1394q0 -45 31 -76t75 -31q45 0 76 31.5t31 75.5t-31 75t-76 31q-44 0 -75 -31t-31 -75z" />
    <glyph glyph-name="ogonek" unicode="&#x2db;" horiz-adv-x="683" 
d="M531 52v-47q-114 -29 -206 -123q-62 -64 -62 -121q0 -41 27 -67t72 -26q32 0 82 21.5t92 54.5l62 -111q-178 -126 -336 -126q-111 0 -180.5 64.5t-69.5 153.5q0 63 34 120q25 42 77 78t154 70t254 59z" />
    <glyph glyph-name="tilde" unicode="&#x2dc;" horiz-adv-x="683" 
d="M578 1441h164q-15 -135 -85.5 -203.5t-173.5 -68.5q-75 0 -191 46q-74 30 -101 30q-29 0 -54 -22t-35 -66h-164q14 135 88.5 212t171.5 77q34 0 72 -9q28 -7 100 -35t85 -32q19 -5 33 -5q32 0 56 19t34 57z" />
    <glyph glyph-name="hungarumlaut" unicode="&#x2dd;" horiz-adv-x="1228" 
d="M763 1460l-353 -303h-280l204 303h429zM1237 1460l-353 -303h-280l204 303h429z" />
    <glyph glyph-name="pi" unicode="&#x3c0;" horiz-adv-x="1332" 
d="M1012 741v-439q0 -128 13 -164t48 -36q34 0 58.5 38t24.5 175h67q0 -97 -6 -131q-11 -65 -41.5 -110.5t-79 -69.5t-123.5 -24q-79 0 -124 23.5t-72.5 63t-37.5 89.5q-10 51 -10 151v434h-259l-4 -278q-4 -174 -18.5 -255.5t-45.5 -132.5t-68.5 -72t-86.5 -21
q-60 0 -96.5 31t-51.5 98q-12 49 -12 155h69q2 -50 8 -67q9 -28 29 -43t44 -15q25 0 50 15t44 48q29 51 41 138t19 231l6 168h-85q-78 0 -112 -28q-22 -19 -31 -66h-68q8 109 25 162t49.5 87t80.5 50.5t97 16.5h703q73 0 91 4q26 6 39 21.5t19 51.5h70q-7 -111 -34.5 -174
t-77.5 -94t-112 -31h-39z" />
    <glyph glyph-name="endash" unicode="&#x2013;" horiz-adv-x="1024" 
d="M-5 358v284h1034v-284h-1034z" />
    <glyph glyph-name="emdash" unicode="&#x2014;" horiz-adv-x="2048" 
d="M256 358v284h1536v-284h-1536z" />
    <glyph glyph-name="quoteleft" unicode="&#x2018;" horiz-adv-x="683" 
d="M443 929h-370l164 555h362z" />
    <glyph glyph-name="quoteright" unicode="&#x2019;" horiz-adv-x="683" 
d="M443 929h-367l161 555h363z" />
    <glyph glyph-name="quotesinglbase" unicode="&#x201a;" horiz-adv-x="683" 
d="M443 -173h-367l161 555h363z" />
    <glyph glyph-name="quotedblleft" unicode="&#x201c;" horiz-adv-x="1252" 
d="M1024 929h-372l166 555h365zM436 929h-367l164 555h365z" />
    <glyph glyph-name="quotedblright" unicode="&#x201d;" horiz-adv-x="1252" 
d="M1024 929h-372l166 555h365zM436 929h-367l164 555h365z" />
    <glyph glyph-name="quotedblbase" unicode="&#x201e;" horiz-adv-x="1252" 
d="M813 382h368l-161 -555h-375zM223 382h365l-154 -555h-372z" />
    <glyph glyph-name="dagger" unicode="&#x2020;" horiz-adv-x="1252" 
d="M90 666v403h230l2 -88h166v282h-99v221h474v-221h-105v-282h169l2 88h223v-403h-223l-2 88h-169l-2 -1065h-268v1065h-166l-2 -88h-230z" />
    <glyph glyph-name="daggerdbl" unicode="&#x2021;" horiz-adv-x="1252" 
d="M384 1484h469v-218h-109v-206h173l3 85h227v-398h-227l-3 85h-173v-481h173l3 85h227v-405h-227l-3 85h-173v-201h109v-226h-469v226h99v201h-165l-3 -85h-225v405h225l3 -85h165v481h-165l-3 -85h-225v398h225l3 -85h165v206h-99v218z" />
    <glyph glyph-name="bullet" unicode="&#x2022;" horiz-adv-x="1024" 
d="M512 1105q94 0 181.5 -48.5t138 -137t50.5 -185.5q0 -96 -49.5 -184.5t-137 -137.5t-183.5 -49q-97 0 -185 49t-137.5 137.5t-49.5 184.5q0 97 50.5 186t138.5 137t183 48z" />
    <glyph glyph-name="ellipsis" unicode="&#x2026;" horiz-adv-x="2048" 
d="M342 408q93 0 156.5 -64.5t63.5 -156.5t-65 -157.5t-157 -65.5q-93 0 -157 64t-64 157q0 92 65 157.5t158 65.5zM1025 408q92 0 156 -64.5t64 -156.5t-65 -157.5t-158 -65.5q-92 0 -156 64.5t-64 156.5t65 157.5t158 65.5zM1707 408q93 0 157 -64.5t64 -155.5
q0 -93 -65.5 -158.5t-157.5 -65.5q-93 0 -157 64.5t-64 156.5t65 157.5t158 65.5z" />
    <glyph glyph-name="perthousand" unicode="&#x2030;" horiz-adv-x="2048" 
d="M649 1119q0 -84 -42 -160.5t-119.5 -120.5t-162.5 -44t-162 43t-120 120t-43 162t43 161.5t120 120t162 43.5t162.5 -44t119.5 -120.5t42 -160.5zM325 1233q-48 0 -81 -33.5t-33 -80.5t33.5 -80.5t80.5 -33.5t80.5 33.5t33.5 80.5t-33.5 80.5t-80.5 33.5zM299 -19h-214
l927 1460h204zM654 301q0 84 42 160.5t120 120.5t163 44t162 -43t120 -120t43 -162t-43 -162t-120 -120t-162 -43t-163 44t-120 120.5t-42 160.5zM979 415q-47 0 -80.5 -33.5t-33.5 -80.5t33.5 -80.5t80.5 -33.5t80.5 33.5t33.5 80.5t-33.5 80.5t-80.5 33.5zM1396 301
q0 84 42 160.5t120 120.5t163 44t162 -43t120 -120t43 -162t-43 -162t-120 -120t-162 -43t-163 44t-120 120.5t-42 160.5zM1721 415q-47 0 -80.5 -33.5t-33.5 -80.5t33.5 -80.5t80.5 -33.5t80.5 33.5t33.5 80.5t-33.5 80.5t-80.5 33.5z" />
    <glyph glyph-name="guilsinglleft" unicode="&#x2039;" horiz-adv-x="683" 
d="M358 495l237 -348h-287l-239 348l239 346h290z" />
    <glyph glyph-name="guilsinglright" unicode="&#x203a;" horiz-adv-x="683" 
d="M85 841h287l246 -355l-234 -339h-287l234 339z" />
    <glyph glyph-name="franc" unicode="&#x20a3;" 
d="M-24 0v303h152v877h-152v304h1408v-552h-313l-59 248h-429v-256h246v-365h-246v-256h213v-303h-820z" />
    <glyph glyph-name="trademark" unicode="&#x2122;" horiz-adv-x="2048" 
d="M315 725v100q60 0 74 6q19 9 27.5 29t7.5 83v425q-87 -1 -120 -45.5t-45 -149.5h-100l19 294h699l22 -294h-100q-16 95 -31 126.5t-47.5 50t-74.5 18.5h-15v-423q0 -61 6 -80.5t23 -27.5q24 -13 77 -12v-100h-422zM920 1368v99h329l150 -398l135 398h329v-99
q-63 0 -77 -11q-23 -18 -23 -70l1 -43v-334q0 -43 6.5 -57.5t25.5 -22.5q12 -5 60 -5v-100h-389v100q52 -1 71.5 13.5t25.5 53.5q7 39 7 194q0 47 -4 173l-178 -534h-71l-199 534q-4 -128 -4 -172q0 -161 9 -205q6 -31 26.5 -44t82.5 -13v-100h-325v100q47 -1 69 12t31 40
t9 102v325q0 30 -9 43t-27 18q-12 3 -61 3z" />
    <glyph glyph-name="Omega" unicode="&#x2126;" horiz-adv-x="1534" 
d="M1459 426l-26 -426h-575v438q133 25 212 134.5t79 334.5q0 268 -123 388q-96 94 -251 94q-173 0 -278.5 -119.5t-105.5 -366.5q0 -160 40.5 -261t109.5 -151q53 -38 137 -53v-438h-570l-25 426h72q23 -142 70 -175q26 -17 122 -17h245v147q-45 0 -123 22
q-118 34 -210.5 103.5t-146 173t-53.5 226.5q0 231 179 388q204 181 534 181q327 0 535 -182q173 -152 173 -381q0 -239 -185 -388q-148 -119 -351 -143v-147h222q107 0 134 9t44 38q23 40 42 145h73z" />
    <glyph glyph-name="partialdiff" unicode="&#x2202;" horiz-adv-x="1157" 
d="M227 1524q182 -47 329.5 -125.5t242.5 -172.5t154 -196.5t89 -220.5t30 -251q0 -277 -140 -430t-360 -153q-214 0 -351.5 141t-137.5 374q0 132 40.5 222.5t109.5 155.5q51 49 116 78q90 41 182 41q54 0 96 -14t82 -44q-29 111 -104 214.5t-197 190.5q-83 60 -225 120z
M765 479q0 271 -73 360q-41 50 -107 50q-78 0 -126 -71q-69 -100 -69 -340q0 -118 20.5 -224t65 -149.5t102.5 -43.5q48 0 89.5 31.5t65.5 109.5q32 107 32 277z" />
    <glyph glyph-name="Delta" unicode="&#x2206;" horiz-adv-x="1443" 
d="M825 1466l602 -1466h-1411l667 1466h142zM619 1130l-440 -970h839z" />
    <glyph glyph-name="product" unicode="&#x220f;" horiz-adv-x="1625" 
d="M1571 1464v-72q-90 -1 -116.5 -10.5t-38 -34.5t-11.5 -103v-1022q0 -78 11 -102.5t38 -35t117 -10.5v-74h-652v74q84 2 107.5 8t37 21.5t17.5 36.5t4 82v1022q0 77 -7.5 96t-27 28.5t-77.5 9.5h-332q-46 0 -66.5 -11t-27.5 -32.5t-7 -90.5v-1022q0 -75 12 -101t39 -36.5
t115 -10.5v-74h-651v74q96 1 121 11t35 32.5t10 104.5v1022q0 81 -10.5 104.5t-35.5 33.5t-120 10v72h1516z" />
    <glyph glyph-name="summation" unicode="&#x2211;" horiz-adv-x="1518" 
d="M1336 1464l29 -393h-71q-13 100 -29 141q-21 57 -60 95q-30 29 -83 44t-168 15h-422l339 -530l-461 -578h666q117 0 154 11q37 12 60 47q34 51 48 171h71l-36 -487h-1289l540 662l-523 802h1235z" />
    <glyph glyph-name="minus" unicode="&#x2212;" horiz-adv-x="1228" 
d="M1176 403h-1124v320h1124v-320z" />
    <glyph glyph-name="fraction" unicode="&#x2215;" horiz-adv-x="341" 
d="M-341 -28l827 1498h185l-827 -1498h-185z" />
    <glyph glyph-name="periodcentered" unicode="&#x2219;" horiz-adv-x="683" 
d="M557 723q0 -93 -65.5 -158t-157.5 -65t-157.5 65.5t-65.5 157.5t65.5 157.5t157.5 65.5t157.5 -65t65.5 -158z" />
    <glyph glyph-name="radical" unicode="&#x221a;" horiz-adv-x="1203" 
d="M1261 1729l-478 -1797h-270l-307 605l-106 -50l-109 230l401 182l219 -525l330 1355h320z" />
    <glyph glyph-name="infinity" unicode="&#x221e;" horiz-adv-x="1769" 
d="M885 727q106 146 197 201t205 55q163 0 281 -107.5t118 -315.5q0 -199 -112.5 -317.5t-287.5 -118.5q-105 0 -202 54.5t-199 185.5q-71 -89 -131.5 -139.5t-123 -74t-137.5 -23.5q-180 0 -294.5 118t-114.5 313t111 309t289 114q65 0 116 -16t97.5 -46.5t86.5 -71
t101 -120.5zM1037 548q120 -165 244 -165q63 0 105 45t42 127q0 78 -44.5 124t-109.5 46q-49 0 -97 -32q-64 -42 -140 -145zM732 549q-63 87 -125.5 130.5t-116.5 43.5q-61 0 -104.5 -47t-43.5 -124t42.5 -122t107.5 -45q121 0 240 164z" />
    <glyph glyph-name="integral" unicode="&#x222b;" horiz-adv-x="1325" 
d="M853 1348l-51 -1044q-10 -202 -23 -289q-21 -139 -61.5 -225t-104 -145t-136 -87.5t-148.5 -28.5q-111 0 -174 55.5t-63 134.5q0 62 38.5 101t100.5 39q52 0 86 -29t41.5 -83t13.5 -65q11 -18 28 -18q25 0 38 25q22 39 30 191l64 1140q10 186 33 285q23 100 70.5 176.5
t100 119.5t118.5 68t141 25q110 0 173 -56.5t63 -136.5q0 -60 -38.5 -98.5t-101.5 -38.5q-67 0 -103 44q-19 25 -31 98q-5 33 -14.5 43.5t-21.5 10.5q-22 0 -38 -27q-23 -38 -30 -185z" />
    <glyph glyph-name="approxequal" unicode="&#x2248;" horiz-adv-x="1229" 
d="M1175 1002q-13 -142 -62.5 -237t-114.5 -135t-136 -40q-33 0 -64 7q-32 7 -278 80q-89 26 -122 34q-19 4 -36 4q-40 0 -73 -30.5t-42 -84.5h-194q8 127 56 224.5t113 141.5t132 44q36 0 71 -8q72 -15 234 -66t209 -51q38 0 70.5 31t39.5 86h197zM1175 508
q-12 -139 -61.5 -233.5t-115 -135.5t-135.5 -41q-32 0 -70 8q-39 9 -273 79q-84 25 -113 31t-48 6q-36 0 -67 -27.5t-45 -85.5l-194 -1q8 129 57 226t113.5 140t134.5 43q34 0 66 -7q78 -17 237 -67t207 -50q38 0 70.5 31t39.5 84h197z" />
    <glyph glyph-name="notequal" unicode="&#x2260;" horiz-adv-x="1228" 
d="M992 958h175v-319h-333l-85 -170h418v-319h-576l-159 -325l-287 138l93 187h-177v319h334l85 170h-419v319h576l159 323l287 -140z" />
    <glyph glyph-name="lessequal" unicode="&#x2264;" horiz-adv-x="1228" 
d="M61 691v299l1106 318v-312l-690 -157l690 -177v-313zM1167 295v-295h-1106v295h1106z" />
    <glyph glyph-name="greaterequal" unicode="&#x2265;" horiz-adv-x="1228" 
d="M1167 966v-299l-1106 -318v312l690 157l-690 177v313zM1167 295v-295h-1106v295h1106z" />
    <glyph glyph-name="lozenge" unicode="&#x25ca;" horiz-adv-x="1229" 
d="M748 1528l378 -800l-378 -800h-273l-373 800l377 800h269zM616 1224l-210 -496l210 -496l204 496z" />
    <glyph glyph-name="fi" unicode="&#xfb01;" horiz-adv-x="1593" 
d="M716 294v-294h-645v294h109v415h-104v294h104v215q0 81 23.5 127.5t66 79t102 46t168.5 13.5h223v-292h-47q-77 0 -99.5 -24.5t-22.5 -97.5q0 -21 1 -67h121v-294h-121v-415h121zM936 1169v315h477v-315h-477zM879 1003h534v-709h106v-294h-640v294h109v415h-109v294z
" />
    <glyph glyph-name="fl" unicode="&#xfb02;" horiz-adv-x="1593" 
d="M716 294v-294h-645v294h109v415h-104v294h104v215q0 81 23.5 127.5t66 79t102 46t168.5 13.5h223v-292h-47q-77 0 -99.5 -24.5t-22.5 -97.5q0 -21 1 -67h121v-294h-121v-415h121zM870 1484h543v-1190h111v-294h-654v294h123v896h-123v294z" />
    <glyph glyph-name="frame" horiz-adv-x="1536" 
d="M256 0v1280h1024v-1280h-1024zM288 32h960v1216h-960v-1216z" />
    </font>
</defs>
</svg>
