<?xml version="1.0" standalone="no"?>
<!DOCTYPE svg PUBLIC "-//W3C//DTD SVG 1.1//EN" "http://www.w3.org/Graphics/SVG/1.1/DTD/svg11.dtd" >
<svg xmlns="http://www.w3.org/2000/svg" xmlns:xlink="http://www.w3.org/1999/xlink" version="1.1">
<metadata>
Created by FontForge 20170731 at Tue May 25 04:00:00 1993
 By Aleksey,,,
(c) 1981 Linotype-Hell AG
</metadata>
<defs>
<font id="Memphis-Medium" horiz-adv-x="1252" >
  <font-face 
    font-family="Memphis Medium"
    font-weight="500"
    font-stretch="normal"
    units-per-em="2048"
    panose-1="2 6 6 4 4 2 5 2 4 4"
    ascent="1638"
    descent="-410"
    x-height="948"
    cap-height="1481"
    bbox="-351 -471 2019 1950"
    underline-thickness="102"
    underline-position="-358"
    unicode-range="U+0020-FB02"
  />
<missing-glyph horiz-adv-x="1536" 
d="M256 0v1280h1024v-1280h-1024zM288 32h960v1216h-960v-1216z" />
    <glyph glyph-name=".notdef" horiz-adv-x="1536" 
d="M256 0v1280h1024v-1280h-1024zM288 32h960v1216h-960v-1216z" />
    <glyph glyph-name=".null" horiz-adv-x="0" 
 />
    <glyph glyph-name="nonmarkingreturn" horiz-adv-x="0" 
 />
    <glyph glyph-name="space" unicode=" " horiz-adv-x="512" 
 />
    <glyph glyph-name="exclam" unicode="!" horiz-adv-x="569" 
d="M351 365h-135l-38 1116h213zM415 119q0 -55 -38.5 -93t-92.5 -38t-92 38.5t-38 92.5t38 92t92 38t92.5 -38t38.5 -92z" />
    <glyph glyph-name="quotedbl" unicode="&#x22;" horiz-adv-x="683" 
d="M204 884h-64l-28 294l-21 200q-1 16 -1 30q0 46 24 73t59 27q36 0 58 -26t22 -85q0 -25 -6 -70q-11 -90 -43 -443zM545 884h-64q-47 458 -47 512q0 61 21 86t59 25q37 0 58 -25t21 -88q0 -45 -48 -510z" />
    <glyph glyph-name="numbersign" unicode="#" horiz-adv-x="1024" 
d="M872 1448h114l-152 -479h173l-26 -80h-175l-102 -322h192l-24 -81h-196l-147 -486h-116l154 486h-256l-159 -486h-114l156 486h-175l26 81h180l102 320h-201l23 82h207l158 479h114l-154 -479h247zM687 887h-241l-105 -318h247z" />
    <glyph glyph-name="dollar" unicode="$" horiz-adv-x="1024" 
d="M38 0v455h130q19 -150 84.5 -226t178.5 -101v524q-217 57 -299.5 147.5t-82.5 221.5q0 97 38.5 176t102 125.5t134.5 66.5q44 12 107 14v152h95v-156q135 -23 235 -110v88h126v-389h-119q-25 118 -88.5 183.5t-153.5 84.5v-443q263 -68 357 -172t94 -258
q0 -105 -41.5 -182t-104.5 -124t-134.5 -68.5t-170.5 -25.5v-163h-92v168q-70 10 -137.5 45.5t-121.5 89.5v-123h-137zM431 837v424q-11 1 -17 1q-64 0 -125 -46q-83 -61 -83 -169q0 -75 51.5 -129.5t173.5 -80.5zM526 631v-508q147 2 220.5 68.5t73.5 172.5
q0 67 -27.5 116.5t-84 81.5t-182.5 69z" />
    <glyph glyph-name="percent" unicode="%" horiz-adv-x="1707" 
d="M1252 1491h128l-965 -1538h-126zM751 1114q0 -88 -44 -169.5t-126.5 -128t-172.5 -46.5t-171.5 46t-127 127t-45.5 171t45.5 171.5t127 127t171.5 45.5t172.5 -46.5t126.5 -127.5t44 -170zM206 1114q0 -86 59.5 -146t142.5 -60t142 60t59 145q0 84 -59 143.5t-142 59.5
q-84 0 -143 -59t-59 -143zM913 344q0 88 44 169t126.5 127.5t172.5 46.5t171.5 -45.5t127 -127t45.5 -170.5q0 -90 -45.5 -171.5t-127 -127t-171.5 -45.5t-172.5 46.5t-126.5 127.5t-44 170zM1055 344q0 -84 59 -143t142 -59q84 0 143 59t59 143q0 83 -59 142t-143 59
q-83 0 -142 -59t-59 -142z" />
    <glyph glyph-name="ampersand" unicode="&#x26;" horiz-adv-x="1479" 
d="M1105 0l-178 183q-109 -110 -226 -161.5t-224 -51.5q-168 0 -280 110.5t-112 272.5q0 125 64.5 226t215.5 203q-103 120 -139.5 202t-36.5 173q0 130 95 222.5t236 92.5q98 0 177.5 -39t121.5 -112t42 -161q0 -102 -52.5 -190t-182.5 -190v-10l294 -315q51 56 94 137
q43 82 81 207h-142v142h441v-142h-128q-31 -121 -84 -231q-54 -110 -146 -236l175 -190h183v-142h-289zM510 891q83 48 132.5 123t49.5 149q0 52 -20.5 93t-60 62t-87.5 21q-49 0 -86 -21.5t-57.5 -64t-20.5 -87.5q0 -61 35.5 -126.5t114.5 -148.5zM813 306l-339 362
q-88 -55 -143.5 -138t-55.5 -163q0 -96 63.5 -157t172.5 -61q83 0 153 36.5t149 120.5z" />
    <glyph glyph-name="quotesingle" unicode="'" horiz-adv-x="455" 
d="M261 884h-64q-21 249 -35.5 371t-14.5 148q0 52 23 77.5t58 25.5q39 0 60 -24.5t21 -89.5q0 -33 -48 -508z" />
    <glyph glyph-name="parenleft" unicode="(" horiz-adv-x="569" 
d="M370 1508h140q-76 -101 -123 -194q-75 -146 -119 -315q-45 -170 -45 -358q0 -136 23 -261q24 -126 62 -225q38 -100 85 -185q48 -85 121 -190h-130q-66 80 -112 162q-97 172 -149 344t-52 352q0 147 35 302q36 156 98 286q62 131 166 282z" />
    <glyph glyph-name="parenright" unicode=")" horiz-adv-x="569" 
d="M197 -220h-140q76 101 123 193q74 146 119 315q45 170 45 358q0 137 -24 262t-62 224q-38 100 -85 185q-48 85 -121 191h130q66 -81 112 -162q97 -172 149 -344q52 -173 52 -353q0 -146 -35 -301q-36 -156 -98 -286q-62 -131 -165 -282z" />
    <glyph glyph-name="asterisk" unicode="*" horiz-adv-x="796" 
d="M455 1289l199 69l33 -111l-208 -55l114 -185l-93 -59l-109 190l-135 -166l-88 57l145 168l-204 85l40 95l199 -78v209h107v-219z" />
    <glyph glyph-name="plus" unicode="+" horiz-adv-x="1228" 
d="M545 588v448h140v-448h445v-140h-445v-448h-140v448h-448v140h448z" />
    <glyph glyph-name="comma" unicode="," horiz-adv-x="512" 
d="M169 247h187l-126 -432h-187z" />
    <glyph glyph-name="hyphen" unicode="-" horiz-adv-x="683" 
d="M85 450v162h507v-162h-507z" />
    <glyph glyph-name="hyphen" unicode="&#xad;" horiz-adv-x="683" 
d="M85 450v162h507v-162h-507z" />
    <glyph glyph-name="period" unicode="." horiz-adv-x="512" 
d="M353 119q0 -55 -38.5 -93t-92.5 -38t-92 38.5t-38 92.5t38 92t92 38t92.5 -38t38.5 -92z" />
    <glyph glyph-name="slash" unicode="/" horiz-adv-x="569" 
d="M443 1510h145l-462 -1536h-145z" />
    <glyph glyph-name="zero" unicode="0" horiz-adv-x="1024" 
d="M71 384v633q0 107 40.5 213t138.5 174t249 68q199 0 324 -113t125 -354v-533q0 -234 -102 -354q-125 -146 -333 -146q-137 0 -242.5 60t-146.5 143q-53 109 -53 209zM251 436q0 -78 13.5 -131t36.5 -83q31 -43 79 -65t130 -22q73 0 121 21t80.5 65t48.5 125q8 42 8 154
v515q0 154 -70 228.5t-191 74.5q-135 0 -206 -96q-50 -69 -50 -196v-590z" />
    <glyph glyph-name="one" unicode="1" horiz-adv-x="1024" 
d="M256 0v140h175v1164h-175v140h365v-1304h175v-140h-540z" />
    <glyph glyph-name="two" unicode="2" horiz-adv-x="1024" 
d="M76 0v133l533 656q51 63 70 93q29 45 45 93t16 98q0 109 -68 177t-178 68q-112 0 -179.5 -77.5t-67.5 -238.5q0 -40 2 -99h-168q-3 41 -3 77q0 238 118 365t305 127q186 0 302.5 -113t116.5 -287q0 -66 -16 -120t-59 -127q-20 -33 -79 -107l-465 -578h470v263h163v-403
h-858z" />
    <glyph glyph-name="three" unicode="3" horiz-adv-x="1024" 
d="M71 450h164q3 -162 75.5 -239.5t194.5 -77.5q121 0 187 69t66 202q0 129 -72.5 198.5t-225.5 73.5v137q71 0 139.5 26t104 86t35.5 143q0 115 -68 183.5t-180 68.5q-128 0 -185 -89t-57 -271h-164q-1 109 15 178q24 106 76.5 178t136 114t191.5 42q115 0 213 -51
t148 -144.5t50 -215.5q0 -113 -48.5 -195t-127.5 -122q98 -48 151.5 -129t53.5 -215q0 -219 -155 -337q-120 -91 -280 -91q-87 0 -165 29t-134 80.5t-87.5 115t-43.5 130.5q-8 46 -8 123z" />
    <glyph glyph-name="four" unicode="4" horiz-adv-x="1024" 
d="M602 1444h162v-927h166v-140h-166v-237h166v-140h-531v140h180v237h-517v144zM579 517v613l-364 -613h364z" />
    <glyph glyph-name="five" unicode="5" horiz-adv-x="1024" 
d="M71 427h168q2 -146 71 -220.5t185 -74.5q130 0 204 81t74 236q0 154 -84.5 242.5t-275.5 88.5q-56 0 -119 -7.5t-95 -16.5v688h631v-140h-470v-377q46 5 86 5q245 0 371.5 -124t126.5 -347q0 -143 -52.5 -257.5t-155.5 -172.5t-238 -58q-111 0 -191.5 36t-132 97.5
t-76.5 138.5t-27 182z" />
    <glyph glyph-name="six" unicode="6" horiz-adv-x="1024" 
d="M925 1074h-166q-17 124 -82 184t-168 60q-88 0 -145 -42t-83 -120q-27 -78 -27 -236q0 -37 2 -145q73 56 131.5 78t129.5 22q188 0 308.5 -123t120.5 -321q0 -205 -123.5 -332t-313.5 -127q-96 0 -176 36t-145 108q-43 49 -70 119q-42 110 -42 211v571q0 123 48 230.5
t151 167t232 59.5q178 0 292.5 -109.5t125.5 -290.5zM512 135q118 0 187 77t69 224q0 150 -83 218.5t-180 68.5q-67 0 -126.5 -34.5t-91.5 -103.5t-32 -160q0 -144 67.5 -217t189.5 -73z" />
    <glyph glyph-name="seven" unicode="7" horiz-adv-x="1024" 
d="M81 1022v422h877q1 -30 1 -47q0 -45 -1 -57t-1 -16v-8q0 -6 -1 -10l-541 -1306h-182l4 19l515 1242l14 43h-519v-282h-166z" />
    <glyph glyph-name="eight" unicode="8" horiz-adv-x="1024" 
d="M278 742q-101 66 -148 147t-47 189q0 171 115.5 282.5t304.5 111.5q191 0 310 -113.5t119 -282.5q0 -117 -52.5 -198.5t-149.5 -140.5q106 -50 160 -137.5t54 -201.5q0 -118 -54.5 -218t-156.5 -153t-227 -53q-189 0 -312 118.5t-123 292.5q0 90 28.5 159.5t75.5 118.5
q35 37 103 79zM510 808q109 0 179 70.5t70 180.5q0 115 -70.5 187t-180.5 72q-108 0 -178 -70.5t-70 -184.5t70 -184.5t180 -70.5zM247 381q0 -108 72 -178t188 -70q118 0 190 72t72 192q0 134 -85.5 197t-182.5 63q-108 0 -181 -76.5t-73 -199.5z" />
    <glyph glyph-name="nine" unicode="9" horiz-adv-x="1024" 
d="M90 365h166q17 -124 82 -184t168 -60q87 0 144 41t84 119t27 234q0 45 -2 149q-73 -56 -131.5 -78t-128.5 -22q-189 0 -309.5 123t-120.5 321q0 206 124 332.5t318 126.5q192 0 310 -121.5t118 -352.5v-571q0 -124 -48.5 -231.5t-151.5 -167t-231 -59.5q-178 0 -293 110
t-125 291zM503 1304q-118 0 -187 -77t-69 -224q0 -151 83.5 -219t179.5 -68q67 0 126.5 34.5t91 103t31.5 160.5q0 144 -67 217t-189 73z" />
    <glyph glyph-name="colon" unicode=":" horiz-adv-x="512" 
d="M375 841q0 -54 -38.5 -92t-92.5 -38t-92 38t-38 92t38 92.5t92 38.5t92.5 -38t38.5 -93zM114 119q0 54 38.5 92t91.5 38q54 0 92.5 -38t38.5 -92t-38.5 -92.5t-92.5 -38.5q-53 0 -91.5 38t-38.5 93z" />
    <glyph glyph-name="semicolon" unicode=";" horiz-adv-x="512" 
d="M422 841q0 -54 -38.5 -92t-92.5 -38t-92 38t-38 92t38 92.5t92 38.5t92.5 -38t38.5 -93zM204 251h189l-135 -438h-187z" />
    <glyph glyph-name="less" unicode="&#x3c;" horiz-adv-x="1228" 
d="M1207 135v-152l-1188 510v52l1188 507v-151l-920 -382z" />
    <glyph glyph-name="equal" unicode="=" horiz-adv-x="1228" 
d="M97 794h1033v-140h-1033v140zM97 382h1033v-140h-1033v140z" />
    <glyph glyph-name="greater" unicode="&#x3e;" horiz-adv-x="1228" 
d="M19 -17v152l920 384l-920 382v151l1188 -507v-54z" />
    <glyph glyph-name="question" unicode="?" horiz-adv-x="1024" 
d="M254 1064h-164q4 128 49 219t138.5 147.5t212.5 56.5q115 0 213.5 -51.5t149 -145.5t50.5 -215q0 -113 -45 -205.5t-135 -147.5q-68 -41 -166 -56v-301h-168v453q37 -3 60 -3q137 0 209 68t72 186q0 113 -68 181t-177 68q-66 0 -119 -29.5t-83.5 -89t-28.5 -135.5z
M474 -12q-54 0 -92 38.5t-38 92.5t38 92t92 38t92 -38.5t38 -91.5q0 -54 -38 -92.5t-92 -38.5z" />
    <glyph glyph-name="at" unicode="@" horiz-adv-x="1638" 
d="M1413 206l28 -45q-109 -88 -272 -144.5t-323 -56.5q-216 0 -410 96t-295 264.5t-101 375.5q0 210 107 393t311.5 301t450.5 118q195 0 357 -78.5t248 -223.5t86 -313q0 -100 -28.5 -193t-74 -165.5t-99.5 -123.5t-110 -75.5t-111 -24.5q-81 0 -134.5 50t-53.5 116
q0 7 2 21q-39 -84 -104 -136t-150 -52q-88 0 -150.5 46t-92.5 120t-30 139q0 105 48 203.5t113.5 164.5t135 98.5t140.5 32.5q79 0 131.5 -43.5t62.5 -108.5l38 128h121q-122 -400 -140 -478q-18 -79 -18 -124q0 -53 30.5 -84.5t75.5 -31.5q106 0 204 126q133 170 133 390
q0 163 -77 290t-225 196.5t-320 69.5q-131 0 -247 -39q-116 -40 -207 -108t-163 -161q-73 -94 -113 -212t-40 -237q0 -181 90 -337.5t260 -243.5t371 -87q136 0 255 39q120 40 290 148zM1056 912q0 35 -16 70t-48 53.5t-73 18.5q-61 0 -115 -41q-88 -68 -147.5 -200.5
t-59.5 -251.5q0 -90 46 -140.5t115 -50.5q52 0 88 26q48 32 98 130q51 98 87 237q25 97 25 149z" />
    <glyph glyph-name="A" unicode="A" horiz-adv-x="1479" 
d="M408 1481h671v-142h-178l398 -1197h138v-142h-515v142h178l-116 363h-512l-121 -363h178v-142h-498v142h142l415 1197h-180v142zM733 1278l-211 -631h417z" />
    <glyph glyph-name="B" unicode="B" 
d="M52 0v142h175v1197h-173v142h529q117 0 191 -14q97 -19 152.5 -54.5t88 -78.5t50.5 -97.5t18 -117.5q0 -134 -79 -221q-52 -58 -163 -99q165 -60 237 -155.5t72 -225.5q0 -114 -49 -202.5t-128 -139.5q-47 -30 -142 -53t-189 -23h-590zM422 1339v-486q56 -2 108 -2
q124 0 188 21q37 12 76 39.5t67 76.5t28 119q0 103 -74.5 167.5t-231.5 64.5h-161zM422 718v-576h161q122 0 196 25.5t122.5 94t48.5 162.5q0 134 -96 215.5t-305 81.5q-59 0 -127 -3z" />
    <glyph glyph-name="C" unicode="C" horiz-adv-x="1593" 
d="M1269 1353v128h170v-462h-161q-34 117 -115 196q-134 129 -340 129q-228 0 -384.5 -165.5t-156.5 -433.5q0 -291 188 -460q154 -138 370 -138q114 0 210 39.5t157.5 107t108.5 178.5h180q-26 -96 -64 -162q-59 -105 -150 -184.5t-203 -116.5t-246 -37q-210 0 -375 94
t-269 261t-104 408q0 340 211 558.5t514 218.5q129 0 251 -42t208 -117z" />
    <glyph glyph-name="D" unicode="D" horiz-adv-x="1479" 
d="M52 0v142h175v1197h-175v142h500q163 0 276 -20q114 -21 207.5 -70.5t182 -145t137 -227t48.5 -278.5q0 -151 -48 -273t-129 -215t-167 -145q-67 -39 -185.5 -73t-259.5 -34h-562zM422 1339v-1197q76 -2 120 -2q171 0 302 45q99 35 184 115.5t130.5 196.5t45.5 256
q0 173 -69.5 301t-185.5 200q-147 90 -411 90q-58 0 -116 -5z" />
    <glyph glyph-name="E" unicode="E" 
d="M47 0v142h175v1197h-175v142h1138v-398h-166v256h-597v-474h497v-156h-497v-567h602v299h163v-441h-1140z" />
    <glyph glyph-name="F" unicode="F" 
d="M237 142v1197h-175v142h1128v-398h-171v256h-587v-474h516v-152h-516v-571h208v-142h-583v142h180z" />
    <glyph glyph-name="G" unicode="G" horiz-adv-x="1707" 
d="M1292 1332v149h159v-516h-140q-35 159 -170 264.5t-321 105.5q-176 0 -299.5 -88t-187 -226.5t-63.5 -288.5q0 -162 73 -298.5t205 -210.5t288 -74q213 0 362 145q106 103 125 213h-386v159h713v-159h-166v-507h-166v175q-205 -205 -500 -205q-211 0 -374.5 91.5
t-269 264.5t-105.5 398q0 222 102 404.5t267.5 282t381.5 99.5q277 0 472 -178z" />
    <glyph glyph-name="H" unicode="H" horiz-adv-x="1479" 
d="M47 0v142h171v1197h-171v142h555v-142h-185v-483h645v483h-188v142h553v-142h-176v-1197h173v-142h-552v142h190v553h-650v-553h187v-142h-552z" />
    <glyph glyph-name="I" unicode="I" horiz-adv-x="683" 
d="M62 0v142h175v1197h-170v142h550v-142h-180v-1197h175v-142h-550z" />
    <glyph glyph-name="J" unicode="J" horiz-adv-x="683" 
d="M57 1481h579v-142h-185v-1220q0 -159 -56 -230q-97 -123 -298 -123q-27 0 -73 2v175q27 -5 62 -5q75 0 111.5 20.5t47.5 49t11 115.5v1216h-199v142z" />
    <glyph glyph-name="K" unicode="K" horiz-adv-x="1365" 
d="M52 0v142h175v1197h-173v142h553v-142h-185v-571l524 571h-157v142h529v-142h-135l-534 -585l527 -612h142v-142h-531v142h156l-521 595v-595h182v-142h-552z" />
    <glyph glyph-name="L" unicode="L" horiz-adv-x="1138" 
d="M57 0v142h180v1197h-175v142h562v-142h-192v-1197h469v292h161v-434h-1005z" />
    <glyph glyph-name="M" unicode="M" horiz-adv-x="1820" 
d="M62 0v142h175v1197h-175v142h476l382 -1012l384 1012h455v-142h-175v-1197h175v-142h-545v142h180v1124l-434 -1138h-99l-439 1138v-1124h188v-142h-548z" />
    <glyph glyph-name="N" unicode="N" horiz-adv-x="1479" 
d="M57 0v142h175v1197h-170v142h381l621 -1085v943h-168v142h522v-142h-173v-1363h-162l-670 1178v-1012h180v-142h-536z" />
    <glyph glyph-name="O" unicode="O" horiz-adv-x="1707" 
d="M73 736q0 133 37 248.5t99 201.5t143 152q105 85 230.5 128.5t271.5 43.5q328 0 551 -223t223 -548q0 -211 -98 -382.5t-270.5 -278.5t-409.5 -107q-202 0 -355 76q-110 54 -202 146t-144 201q-76 156 -76 342zM860 144q151 0 283 75t208 215.5t76 307.5
q0 254 -166.5 424.5t-404.5 170.5q-157 0 -294 -77.5t-213.5 -220.5t-76.5 -302q0 -145 63 -273q49 -100 129.5 -173.5t186.5 -110t209 -36.5z" />
    <glyph glyph-name="P" unicode="P" 
d="M62 0v142h175v1197h-175v142h519q182 0 302 -36q88 -27 152 -81t102 -127q49 -94 49 -211q0 -123 -47.5 -209t-119 -143.5t-152.5 -82.5q-113 -36 -308 -36h-127v-413h189v-142h-559zM432 1339v-637h130q171 0 250 34q80 34 127 115t47 180q0 139 -91 223.5t-275 84.5
h-188z" />
    <glyph glyph-name="Q" unicode="Q" horiz-adv-x="1707" 
d="M1185 38l71 -140h213v-142h-341l-114 230q-66 -15 -133 -15q-178 0 -309 44t-244 145t-184 243t-71 333q0 330 223.5 552t557.5 222q328 0 551 -223t223 -548q0 -173 -67.5 -318.5t-188.5 -258.5q-75 -69 -187 -124zM934 149l-86 171l152 81l102 -202q75 36 128 84
q92 83 144.5 198t52.5 259q0 256 -166.5 426.5t-404.5 170.5q-157 0 -294 -77.5t-213.5 -220.5t-76.5 -303t76 -299t214 -216t304 -77q51 0 68 5z" />
    <glyph glyph-name="R" unicode="R" horiz-adv-x="1365" 
d="M57 0v142h175v1197h-175v142h661q238 0 353 -102.5t115 -273.5q0 -114 -59 -194.5t-195 -142.5q55 -16 93.5 -42t62.5 -63q15 -24 24 -64q14 -61 14 -127v-330h173v-142h-365v446q0 104 -32.5 158.5t-103.5 78t-229 23.5q-65 0 -142 -2v-562h175v-142h-545zM427 1342
v-496h230q61 0 123.5 13t94.5 34q53 35 83.5 91t30.5 127q0 86 -45.5 140t-109.5 72q-65 19 -199 19h-208z" />
    <glyph glyph-name="S" unicode="S" 
d="M95 0v503h164q20 -103 55 -161.5t91.5 -105t117.5 -70t142 -23.5q150 0 229 70.5t79 177.5q0 86 -49.5 146.5t-158.5 94.5l-357 113q-112 36 -174.5 77.5t-99.5 114.5t-37 178q0 177 119.5 286t336.5 109q115 0 202 -37.5t167 -119.5v128h150v-436h-154
q-28 139 -124.5 218t-243.5 79q-112 0 -189 -59t-77 -153q0 -86 58 -136q59 -50 185 -85l236 -65q140 -39 229 -96t133 -144t44 -195q0 -213 -165 -341q-124 -96 -321 -96q-123 0 -221.5 35.5t-200.5 115.5v-123h-166z" />
    <glyph glyph-name="T" unicode="T" 
d="M71 1069v412h1105v-412h-173v270h-283v-1197h185v-142h-559v142h180v1197h-282v-270h-173z" />
    <glyph glyph-name="U" unicode="U" horiz-adv-x="1479" 
d="M62 1481h526v-142h-175v-896q0 -135 85 -217t236 -82q158 0 243 87.5t85 275.5v832h-175v142h526v-142h-159v-832q0 -149 -48 -266t-169.5 -194t-298.5 -77q-116 0 -199.5 30t-145.5 75q-48 36 -84 83t-61 124t-25 185l-2 872h-159v142z" />
    <glyph glyph-name="V" unicode="V" horiz-adv-x="1365" 
d="M33 1481h507v-142h-156l9 -47l285 -934l313 981h-162v142h493v-142h-142l-429 -1358h-154l-415 1358h-149v142z" />
    <glyph glyph-name="W" unicode="W" horiz-adv-x="2048" 
d="M38 1481h484v-142h-162l294 -995l280 995h-166v142h517v-142h-166l303 -1000l289 1000h-156v142h450v-142h-123l-396 -1358h-144l-316 1052l-308 -1052h-149l-405 1358h-126v142z" />
    <glyph glyph-name="X" unicode="X" horiz-adv-x="1365" 
d="M40 0v142h168l368 595l-364 602h-172v142h536v-142h-166l268 -433l268 433h-166v142h535v-142h-172l-365 -602l370 -595h167v-142h-535v142h170l-272 436l-273 -436h171v-142h-536z" />
    <glyph glyph-name="Y" unicode="Y" horiz-adv-x="1365" 
d="M38 1481h521v-142h-160l293 -496l297 496h-155v142h489v-142h-145l-400 -671v-526h175v-142h-545v142h175v526l-393 671h-152v142z" />
    <glyph glyph-name="Z" unicode="Z" horiz-adv-x="1138" 
d="M33 0v137l801 1202h-597v-260h-171v402h1010v-130l-813 -1209h635v313h178v-455h-1043z" />
    <glyph glyph-name="bracketleft" unicode="[" horiz-adv-x="569" 
d="M90 -199v1680h427v-113h-280v-1453h275v-114h-422z" />
    <glyph glyph-name="backslash" unicode="\" horiz-adv-x="569" 
d="M-64 1508h128l569 -1548h-126z" />
    <glyph glyph-name="bracketright" unicode="]" horiz-adv-x="569" 
d="M47 -204v114h275v1458h-275v113h422v-1685h-422z" />
    <glyph glyph-name="asciicircum" unicode="^" horiz-adv-x="1228" 
d="M585 1508h55l386 -866h-137l-275 647l-278 -647h-137z" />
    <glyph glyph-name="underscore" unicode="_" horiz-adv-x="1024" 
d="M1024 -256h-1024v102h1024v-102z" />
    <glyph glyph-name="grave" unicode="`" horiz-adv-x="683" 
d="M296 1370l182 -289h-137l-268 289h223z" />
    <glyph glyph-name="a" unicode="a" 
d="M866 806v142h320v-137h-166v-674h164v-137h-318v147q-58 -85 -147.5 -129t-198.5 -44q-195 0 -329 139.5t-134 356.5q0 222 135 362t334 140q109 0 192 -43t148 -123zM540 125q73 0 143 34q45 23 82 60q48 50 71.5 114.5t23.5 144.5q0 156 -89.5 250.5t-221.5 94.5
q-86 0 -158 -41.5t-110 -124t-38 -187.5q0 -156 86.5 -250.5t210.5 -94.5z" />
    <glyph glyph-name="b" unicode="b" 
d="M396 1481v-668q73 81 151 120t175 39q118 0 227 -63t171.5 -180.5t62.5 -262.5q0 -217 -132.5 -353.5t-331.5 -136.5q-109 0 -188.5 39.5t-146.5 119.5v-135h-325v137h164v1207h-164v137h337zM697 123q81 0 152 40t114.5 126t43.5 186q0 148 -92.5 245.5t-219.5 97.5
q-128 0 -219.5 -99t-91.5 -259q0 -178 122 -273q82 -64 191 -64z" />
    <glyph glyph-name="c" unicode="c" horiz-adv-x="1024" 
d="M792 844v104h133v-327h-124q-22 89 -97.5 147.5t-171.5 58.5q-122 0 -208 -95t-86 -262q0 -122 43 -199t115.5 -113.5t141.5 -36.5q84 0 162.5 42t157.5 126l104 -95q-100 -114 -205.5 -167t-223.5 -53q-205 0 -338.5 136.5t-133.5 362.5q0 224 128 360.5t316 136.5
q96 0 174 -38t113 -88z" />
    <glyph glyph-name="d" unicode="d" 
d="M853 815v529h-171v137h344v-1344h159v-137h-325v142q-57 -78 -144.5 -123t-197.5 -45q-221 0 -352 171q-107 140 -107 325q0 188 111 331q135 173 351 173q102 0 188 -43t144 -116zM540 123q80 0 140 28q38 18 80 59.5t71 105.5t29 160q0 170 -101 256t-216 86
q-80 0 -151.5 -42.5t-111 -123.5t-39.5 -181q0 -161 84 -254.5t215 -93.5z" />
    <glyph glyph-name="e" unicode="e" horiz-adv-x="1138" 
d="M1070 422h-829q10 -131 104.5 -216.5t227.5 -85.5q93 0 169.5 37.5t128.5 117.5h176q-67 -133 -189 -216t-285 -83q-226 0 -371 142.5t-145 354.5q0 214 144.5 358t361.5 144q133 0 235 -54.5t166 -142t90 -193.5q16 -65 16 -163zM241 555h644q-20 125 -109 201t-212 76
q-127 0 -217.5 -78.5t-105.5 -198.5z" />
    <glyph glyph-name="f" unicode="f" horiz-adv-x="683" 
d="M69 0v137h164v674h-162v137h162v176q0 98 12 149q15 68 49.5 112t94 72t149.5 28q24 0 60 -4v-139q-20 2 -33 2q-68 0 -102.5 -20t-44.5 -51q-10 -32 -10 -123v-202h190v-137h-190v-674h190v-137h-529z" />
    <glyph glyph-name="g" unicode="g" 
d="M861 811v137h324v-137h-163v-809q0 -117 -44.5 -210.5t-155.5 -154.5t-279 -61q-135 0 -232 39.5t-163 112.5q-46 52 -74 127h201q25 -60 88.5 -97t172.5 -37t184 38t103 95.5t27 194.5v95q-119 -173 -321 -173q-228 0 -364 182q-106 141 -106 320q0 131 60.5 250.5
t165.5 183t231 63.5q101 0 189.5 -39.5t155.5 -119.5zM533 128q84 0 162 42.5t123 126t45 183.5q0 98 -42 178.5t-119.5 123.5t-155.5 43q-105 0 -189 -70q-117 -96 -117 -270q0 -101 39.5 -186.5t108 -128t145.5 -42.5z" />
    <glyph glyph-name="h" unicode="h" 
d="M71 0v137h156v1207h-156v137h329v-677q174 161 349 161q80 0 150 -37.5t101 -102t31 -161.5v-527h149v-137h-483v137h161v489q0 110 -37 152.5t-112 42.5q-60 0 -138.5 -37.5t-167.5 -122.5v-524h159v-137h-491z" />
    <glyph glyph-name="i" unicode="i" horiz-adv-x="683" 
d="M185 1365h249v-187h-249v187zM95 0v137h166v674h-161v137h336v-811h159v-137h-500z" />
    <glyph glyph-name="j" unicode="j" horiz-adv-x="569" 
d="M137 1176v189h249v-189h-249zM14 -422v149q110 1 164 75q40 54 40 193v816h-178v137h349v-1033q0 -105 -27 -160.5t-78 -95.5t-115 -59.5t-155 -21.5z" />
    <glyph glyph-name="k" unicode="k" horiz-adv-x="1138" 
d="M71 0v137h156v1207h-147v137h323v-969l344 301h-131v135h460v-137h-104l-361 -318l356 -356h109v-137h-446v135h121l-348 346v-344h118v-137h-450z" />
    <glyph glyph-name="l" unicode="l" horiz-adv-x="683" 
d="M90 0v137h166v1207h-161v137h336v-1344h162v-137h-503z" />
    <glyph glyph-name="m" unicode="m" horiz-adv-x="1820" 
d="M85 0v137h152v674h-152v137h318v-135q158 149 311 149q76 0 144.5 -38.5t112.5 -127.5q158 167 329 167q76 0 138 -31.5t99 -82.5q26 -38 39 -104q14 -66 14 -178v-430h135v-137h-452v137h144v453q0 121 -25 161q-40 64 -131 64q-129 0 -261 -151v-527h137v-137h-450v137
h142v463q0 95 -15.5 133.5t-53 61t-82.5 22.5q-58 0 -132.5 -39.5t-138.5 -113.5v-527h147v-137h-469z" />
    <glyph glyph-name="n" unicode="n" 
d="M64 948h334v-152q91 93 170 131t168 38q142 0 218.5 -82t76.5 -278v-468h157v-137h-479v137h149v494q0 95 -25 132q-41 60 -132 60q-69 0 -138 -38.5t-160 -137.5v-510h166v-137h-505v137h164v674h-164v137z" />
    <glyph glyph-name="o" unicode="o" horiz-adv-x="1138" 
d="M566 969q223 0 363 -139.5t140 -360.5q0 -227 -137.5 -361.5t-368.5 -134.5q-220 0 -361 138.5t-141 348.5q0 220 144 364.5t361 144.5zM897 473q0 163 -91 257.5t-237 94.5q-166 0 -251.5 -115.5t-85.5 -246.5q0 -127 74 -226q95 -128 262 -128q141 0 235 99t94 265z
" />
    <glyph glyph-name="p" unicode="p" 
d="M223 811h-164v137h330v-137q140 159 332 159q108 0 206 -45q75 -33 129.5 -89t90.5 -139t36 -211q0 -194 -93 -321q-141 -193 -368 -193q-195 0 -324 156v-412h175v-138h-512v138h162v1095zM696 126q124 0 216.5 99.5t92.5 254.5q0 152 -92 249.5t-214 97.5
q-78 0 -152.5 -43.5t-117.5 -125t-43 -180.5q0 -151 93.5 -251.5t216.5 -100.5z" />
    <glyph glyph-name="q" unicode="q" 
d="M860 815v133h325v-137h-159v-1095h161v-138h-514v138h175v419q-64 -79 -150 -121t-184 -42q-182 0 -318.5 143.5t-136.5 352.5q0 190 105 327q133 175 359 175q204 0 337 -155zM860 486q0 151 -91.5 246t-223.5 95q-84 0 -155.5 -43.5t-111 -127.5t-39.5 -183
q0 -153 89 -250.5t210 -97.5q131 0 226.5 101.5t95.5 259.5z" />
    <glyph glyph-name="r" unicode="r" horiz-adv-x="796" 
d="M66 0v137h161v674h-161v137h320v-175q53 94 119 139q90 61 211 61q14 0 42 -1v-164q-39 2 -40 2q-91 0 -169 -39t-112 -97.5t-34 -125.5v-411h173v-137h-510z" />
    <glyph glyph-name="s" unicode="s" horiz-adv-x="1024" 
d="M104 0v308h140q24 -81 111 -140t211 -59q111 0 161.5 40t50.5 97q0 47 -31 79t-98 43l-248 40q-142 23 -199 69q-94 76 -94 213q0 123 87 201.5t242 78.5q86 0 164.5 -30t135.5 -82v90h140v-291h-147q-28 82 -100 129.5t-180 47.5q-91 0 -137 -39t-46 -96q0 -36 21.5 -66
t59.5 -44t160 -31l135 -20q157 -22 227.5 -94.5t70.5 -179.5q0 -123 -97.5 -208t-273.5 -85q-120 0 -215 43q-59 26 -111 81v-95h-140z" />
    <glyph glyph-name="t" unicode="t" horiz-adv-x="683" 
d="M583 948v-137h-180v-612q0 -31 19 -47.5t67 -16.5q49 0 91 7v-144q-53 -15 -126 -15q-87 0 -124 13q-51 19 -75.5 55t-24.5 77v683h-164v137h164v325h173v-325h180z" />
    <glyph glyph-name="u" unicode="u" 
d="M66 948h315v-656q0 -98 47 -136t108 -38q77 0 162.5 53.5t117.5 113.5t32 158v368h-154v137h330v-811h158v-137h-324v145q-60 -72 -156 -120.5t-206 -48.5q-134 0 -209.5 75.5t-75.5 211.5v548h-145v137z" />
    <glyph glyph-name="v" unicode="v" horiz-adv-x="1138" 
d="M43 948h450v-137h-142l216 -553l239 553h-151v137h440v-137h-128l-353 -820h-121l-324 820h-126v137z" />
    <glyph glyph-name="w" unicode="w" horiz-adv-x="1707" 
d="M62 948h439v-137h-140l201 -538l213 538h-139v137h448v-137h-145l213 -534l209 534h-135v137h415v-137h-124l-320 -820h-111l-242 609l-234 -609h-117l-308 820h-123v137z" />
    <glyph glyph-name="x" unicode="x" horiz-adv-x="1138" 
d="M57 0v137h123l285 328l-282 346h-124v137h439v-137h-104l175 -221l192 221h-104v137h415v-137h-124l-282 -330l282 -344h124v-137h-441v137h109l-188 216l-187 -216h109v-137h-417z" />
    <glyph glyph-name="y" unicode="y" horiz-adv-x="1138" 
d="M31 948h443v-137h-149l227 -572l249 572h-142v137h427v-137h-114l-488 -1098h178v-135h-510v135h168l140 320l-315 778h-114v137z" />
    <glyph glyph-name="z" unicode="z" horiz-adv-x="910" 
d="M611 811h-391v-178h-161v315h775v-140l-571 -671h431v202h159v-339h-813v135z" />
    <glyph glyph-name="braceleft" unicode="{" horiz-adv-x="683" 
d="M50 661q64 8 117.5 55.5t72.5 113.5q14 50 17 198t18 214q16 66 45.5 110.5t79 81t111.5 55.5t139 19v-76q-77 -1 -136.5 -41t-82.5 -98.5t-23 -195.5v-53q0 -140 -23.5 -213t-83 -123.5t-149.5 -65.5q82 -23 127.5 -54t76.5 -79t38 -92q11 -68 13 -282q2 -122 49 -184
q66 -87 194 -98v-73q-90 0 -164 26.5t-125 80.5t-75 120q-25 67 -27 290q-2 110 -24 166.5t-75 101.5t-110 58v38z" />
    <glyph glyph-name="bar" unicode="|" horiz-adv-x="455" 
d="M299 1481v-1481h-140v1481h140z" />
    <glyph glyph-name="braceright" unicode="}" horiz-adv-x="683" 
d="M633 661v-38q-57 -14 -110 -58.5t-75.5 -100.5t-23.5 -167q-3 -215 -26 -287q-32 -96 -124.5 -163t-240.5 -67v73q79 7 135 43.5t81 91t26 147.5q3 230 14 285q11 56 46.5 102.5t85.5 76.5q38 23 110 43q-91 16 -150 66.5t-83 123.5t-24 212l1 65q0 129 -24 187
t-83.5 96.5t-134.5 39.5v76q80 0 148.5 -22.5t118.5 -65t77 -93t39 -128.5q7 -46 10 -186q4 -141 19 -189q20 -64 72.5 -110t115.5 -53z" />
    <glyph glyph-name="asciitilde" unicode="~" horiz-adv-x="1228" 
d="M1138 713h66q-47 -204 -136 -293q-68 -68 -167 -68q-46 0 -95 13t-211 76l-204 78q-43 17 -85 17q-52 0 -92.5 -24t-72.5 -76q-23 -36 -51 -114h-66q42 197 122.5 279t169.5 82q41 0 99 -14q41 -10 152 -53l135 -52l85 -33q43 -16 80.5 -23.5t67.5 -7.5q42 0 77.5 19
t59 55t66.5 139z" />
    <glyph glyph-name="nonbreakingspace" unicode="&#xa0;" horiz-adv-x="1024" 
 />
    <glyph glyph-name="exclamdown" unicode="&#xa1;" horiz-adv-x="569" 
d="M415 955q0 -54 -39 -92t-95 -38q-59 0 -99 38.5t-40 91.5q0 54 40 92.5t99 38.5q56 0 95 -38.5t39 -92.5zM218 709h135l38 -1117h-214z" />
    <glyph glyph-name="cent" unicode="&#xa2;" horiz-adv-x="1024" 
d="M616 955l81 247h85l-90 -278q72 -36 99 -80v104h133v-327h-123q-13 57 -57.5 109t-94.5 71l-213 -661q56 -19 104 -19q80 0 158.5 41t159.5 127l104 -95q-195 -220 -419 -220q-89 0 -157 21l-90 -277h-83l100 306q-132 68 -193 185.5t-61 262.5q0 141 57.5 257t163 178.5
t219.5 62.5q76 0 117 -15zM362 178l211 647q-17 2 -36 2q-127 0 -213 -95t-86 -263q0 -110 36.5 -182.5t87.5 -108.5z" />
    <glyph glyph-name="sterling" unicode="&#xa3;" horiz-adv-x="1024" 
d="M43 -31v187q104 13 162.5 82t58.5 201q0 91 -27 208h-194v133h166q-52 202 -52 321q0 171 101 271t278 100q83 0 152 -21.5t116 -61t73 -88.5t39 -126q9 -57 9 -163h-171q1 31 1 50q0 137 -58 202.5t-156 65.5q-112 0 -172 -83q-37 -51 -37 -143q0 -42 5 -79
q6 -37 20 -97l39 -148h254v-128h-232q17 -99 17 -162q0 -93 -14 -151t-49 -131q117 -75 239 -75q97 0 149 58t52 179q0 10 -1 28h166q4 -221 -87 -324t-251 -103q-168 0 -335 124q-50 -60 -119 -93t-142 -33z" />
    <glyph glyph-name="currency" unicode="&#xa4;" horiz-adv-x="1024" 
d="M176 1005l-133 130l66 67l133 -128q50 42 120 66t146 24t145.5 -25.5t121.5 -69.5l133 133l69 -67l-133 -130q44 -51 69.5 -122.5t25.5 -145.5q0 -73 -25 -143t-70 -125l133 -132l-69 -69l-133 130q-52 -43 -122 -67.5t-146 -24.5q-77 0 -146 24t-119 71l-133 -133
l-66 69l133 132q-43 51 -69 120.5t-26 142.5q0 74 26 147.5t69 125.5zM211 735q0 -77 39 -147.5t110.5 -111t149.5 -40.5t148.5 40t110.5 110.5t40 148.5q0 77 -40 148t-110.5 110.5t-148.5 39.5t-149.5 -40.5t-110.5 -111t-39 -146.5z" />
    <glyph glyph-name="yen" unicode="&#xa5;" horiz-adv-x="1024" 
d="M419 1441v-137h-118v-15l194 -450q8 -16 15 -16l211 466l2 15h-119v137h408v-137h-104l-159 -327h192v-114h-249l-104 -214h325v-113h-323v-399h171v-137h-531v137h171v399h-320v113h317l-102 214h-249v114h195l-154 327h-107v137h438z" />
    <glyph glyph-name="brokenbar" unicode="&#xa6;" horiz-adv-x="455" 
d="M159 1481h140v-580h-140v580zM159 557h140v-557h-140v557z" />
    <glyph glyph-name="section" unicode="&#xa7;" horiz-adv-x="1024" 
d="M342 119v-202h116q80 0 118 15q29 10 44.5 37t15.5 57q0 86 -67 154l-429 439q-30 30 -50.5 77t-20.5 98q0 63 25 113t60.5 80t74.5 42.5t98 13.5q-37 66 -47 101q-15 48 -15 96q0 66 31 118.5t79.5 79t121.5 38.5q34 6 121 6h188v-318h-121v206h-73q-80 0 -114 -12
q-46 -17 -67.5 -48t-21.5 -81q0 -44 13 -78t31 -55q9 -10 87 -86l271 -263q131 -128 131 -256q0 -58 -28.5 -111.5t-82.5 -87.5t-143 -55q50 -47 73.5 -96t23.5 -112q0 -121 -92 -182q-67 -44 -212 -44h-258v316h119zM534 417q57 -59 131 -59q56 0 92.5 36t36.5 89
q0 66 -73 138l-279 273q-30 29 -44 35q-19 9 -49 9q-57 0 -95 -37.5t-38 -95.5q0 -59 40 -101z" />
    <glyph glyph-name="dieresis" unicode="&#xa8;" horiz-adv-x="683" 
d="M88 1105v208h187v-208h-187zM417 1105v208h188v-208h-188z" />
    <glyph glyph-name="copyright" unicode="&#xa9;" horiz-adv-x="1638" 
d="M818 1508q129 0 247 -41q119 -42 207 -106q88 -65 164 -162q76 -98 116 -219q41 -122 41 -247q0 -201 -102.5 -384.5t-285.5 -286t-385 -102.5q-134 0 -252 42t-206 108q-89 67 -161 160t-114 215t-42 250q0 171 66.5 314t168.5 241t223 150q154 68 315 68zM118 734
q0 -148 64 -289q48 -108 137 -199.5t217.5 -152t283.5 -60.5q116 0 226 38t194 103q85 66 145 146q61 81 99 188t38 227q0 182 -93 347.5t-259 258.5t-349 93q-159 0 -303 -69q-110 -53 -202.5 -146t-145 -221t-52.5 -264zM1105 1154h56l8 -308h-60q-36 146 -103.5 206
t-167.5 60q-147 0 -227 -118.5t-80 -262.5q0 -106 41.5 -189.5t116.5 -127t152 -43.5q85 0 151.5 48t128.5 157l55 -28q-69 -129 -154 -188t-201 -59q-151 0 -270 95q-158 125 -158 327q0 119 56 228.5t155 167.5t211 58q54 0 107 -13q37 -10 86.5 -34.5t59.5 -24.5
q9 0 20 11t13 26q1 6 4 12z" />
    <glyph glyph-name="ordfeminine" unicode="&#xaa;" horiz-adv-x="751" 
d="M532 1372v86h208v-83h-108v-404h106v-82h-206v88q-76 -104 -225 -104q-130 0 -215.5 85.5t-85.5 212.5q0 130 86 215.5t218 85.5q133 0 222 -100zM320 964q74 0 129 42q79 59 79 169q0 92 -57.5 149.5t-144.5 57.5q-57 0 -103.5 -25t-71 -74.5t-24.5 -111.5
q0 -92 55.5 -149.5t137.5 -57.5z" />
    <glyph glyph-name="guillemotleft" unicode="&#xab;" horiz-adv-x="1024" 
d="M894 156h-162l-248 323l244 310h161l-244 -308zM538 156h-161l-249 323l244 310h161l-244 -308z" />
    <glyph glyph-name="logicalnot" unicode="&#xac;" horiz-adv-x="1228" 
d="M97 654v140h1033v-552h-142v412h-891z" />
    <glyph glyph-name="registered" unicode="&#xae;" horiz-adv-x="1638" 
d="M818 1508q129 0 247 -41q119 -42 207 -106q88 -65 164 -162q76 -98 116 -219q41 -122 41 -247q0 -201 -102.5 -384.5t-285.5 -286t-385 -102.5q-134 0 -252 42t-206 108q-89 67 -161 160t-114 215t-42 250q0 171 66.5 314t168.5 241t223 150q154 68 315 68zM118 735
q0 -150 65 -293q48 -106 136.5 -197t217 -151.5t283.5 -60.5q182 0 348 93t258.5 259t92.5 349q0 182 -92.5 348t-258.5 259t-349 93q-161 0 -305 -70q-112 -54 -203.5 -148t-142 -221.5t-50.5 -259.5zM417 329v57q61 1 79.5 10t28 24.5t14.5 51.5q4 24 4 113v396
q0 69 -25 92.5t-101 21.5v59q134 4 205 4q268 0 365 -20q97 -21 144.5 -74.5t47.5 -116.5q0 -82 -67.5 -132.5t-203.5 -67.5v-7q43 -9 93 -48.5t73 -81.5t45 -133q13 -51 26 -65t27 -14q22 0 39 22q24 31 26 92h48q-3 -96 -54 -154q-38 -45 -98 -45q-67 0 -100 46
q-24 33 -47 139q-16 73 -27 100q-17 44 -41.5 69t-65.5 38.5t-129 13.5q-17 0 -62 -1q-1 -50 -1 -86q0 -142 8 -182q5 -30 27 -45q32 -21 94 -19v-57h-372zM661 780q170 0 228 11q38 7 77 27.5t61 52.5t22 71q0 66 -58.5 110.5t-214.5 44.5q-79 0 -100 -37q-15 -27 -15 -139
v-141z" />
    <glyph glyph-name="macron" unicode="&#xaf;" horiz-adv-x="683" 
d="M24 1150v118h640v-118h-640z" />
    <glyph glyph-name="degree" unicode="&#xb0;" horiz-adv-x="820" 
d="M410 1472q77 0 146 -37.5t108.5 -108t39.5 -148.5q0 -123 -85.5 -208.5t-208.5 -85.5q-78 0 -147.5 38.5t-108 108t-38.5 147.5t39.5 148.5t108.5 108t146 37.5zM208 1178q0 -83 59.5 -142t141.5 -59t141 59t59 142t-59 142.5t-141 59.5t-141.5 -59.5t-59.5 -142.5z" />
    <glyph glyph-name="plusminus" unicode="&#xb1;" horiz-adv-x="1228" 
d="M685 690h445v-133h-445v-339h-140v339h-448v133h448v346h140v-346zM1130 0h-1033v135h1033v-135z" />
    <glyph glyph-name="twosuperior" unicode="&#xb2;" horiz-adv-x="614" 
d="M23 589v80l347 393q49 57 66.5 94t17.5 77q0 64 -43 105.5t-116 41.5q-75 0 -118 -47.5t-43 -143.5q0 -22 1 -58h-109q-2 35 -2 60q0 127 76 204t199 77q124 0 198.5 -69t74.5 -171q0 -39 -10.5 -71.5t-38.5 -76.5q-13 -20 -52 -64l-302 -347h305v158h107v-242h-558z" />
    <glyph glyph-name="threesuperior" unicode="&#xb3;" horiz-adv-x="614" 
d="M20 859h106q3 -96 49 -143.5t127 -47.5q80 0 122.5 42.5t42.5 120.5q0 77 -46.5 119t-147.5 44v83q46 0 90.5 15.5t68 52t23.5 84.5q0 68 -43.5 110t-118.5 42q-76 0 -116.5 -48t-40.5 -168h-107q-2 149 72 228t200 79q123 0 195.5 -68.5t72.5 -177.5q0 -68 -31.5 -117.5
t-82.5 -73.5q63 -29 97.5 -78t34.5 -128q0 -111 -77.5 -184t-204.5 -73q-78 0 -135 28t-90 67.5t-46.5 84.5t-13.5 107z" />
    <glyph glyph-name="acute" unicode="&#xb4;" horiz-adv-x="683" 
d="M392 1370h222l-268 -289h-137z" />
    <glyph glyph-name="mu" unicode="&#xb5;" 
d="M67 948h315v-656q0 -98 46.5 -136t108.5 -38q76 0 162 53.5t118 113.5t32 158v368h-154v137h329v-811h159v-137h-325v145q-62 -76 -156.5 -122t-184.5 -46q-91 0 -130 42v-441h-337v138h161v1095h-144v137z" />
    <glyph glyph-name="paragraph" unicode="&#xb6;" horiz-adv-x="1228" 
d="M1190 -408h-797v67q68 3 95 19t44.5 46.5t32.5 110.5q15 81 17 205q4 185 3 534l-58 -1q-100 -2 -197.5 25t-168 86t-116 148t-45.5 197t52 206t143 159q57 39 159 63t253 24h583v-66q-63 -2 -91.5 -18.5t-50.5 -53.5t-35 -132q-10 -65 -14 -276q-2 -128 -2 -463
q0 -289 3 -417q4 -129 18.5 -215.5t31 -115t39.5 -42.5q30 -18 101 -23v-67zM564 -341h190q32 20 52 56q28 54 36 143q9 89 9 279v745q0 236 16 350q10 76 34 127q13 29 40 56h-190q-5 0 -10 -3q-11 -8 -28 -36q-31 -54 -33 -61q-13 -35 -21 -160q-5 -77 -5 -219v-642
q0 -242 -10 -375q-10 -134 -33 -190q-14 -35 -47 -70z" />
    <glyph glyph-name="cedilla" unicode="&#xb8;" horiz-adv-x="683" 
d="M190 -178l130 178h98l-95 -128q36 7 65 7q80 0 126 -43t46 -110q0 -49 -26 -92.5t-83 -69t-133 -25.5q-93 0 -199 44l36 80q76 -30 132 -30q59 0 87.5 24t28.5 61q0 34 -26 57.5t-72 23.5q-38 0 -79 -17z" />
    <glyph glyph-name="onesuperior" unicode="&#xb9;" horiz-adv-x="614" 
d="M141 589v84h114v698h-114v84h237v-782h114v-84h-351z" />
    <glyph glyph-name="ordmasculine" unicode="&#xba;" horiz-adv-x="683" 
d="M340 1472q148 0 237.5 -85t89.5 -215q0 -134 -87.5 -216t-241.5 -82q-146 0 -236 85t-90 208q0 128 92 216.5t236 88.5zM555 1174q0 96 -58 153.5t-155 57.5q-95 0 -157 -62.5t-62 -154.5q0 -89 62 -150.5t157 -61.5q93 0 153 60.5t60 157.5z" />
    <glyph glyph-name="guillemotright" unicode="&#xbb;" horiz-adv-x="1024" 
d="M123 789h161l249 -322l-244 -311h-161l244 309zM479 789h161l249 -322l-244 -311h-162l244 309z" />
    <glyph glyph-name="onequarter" unicode="&#xbc;" horiz-adv-x="1535" 
d="M242 -26l905 1500h128l-903 -1500h-130zM58 589v84h114v698h-114v84h237v-782h114v-84h-351zM1152 866h105v-556h108v-84h-108v-142h108v-84h-345v84h117v142h-336v87zM1137 310v368l-237 -368h237z" />
    <glyph glyph-name="onehalf" unicode="&#xbd;" horiz-adv-x="1535" 
d="M182 -26l905 1500h128l-903 -1500h-130zM98 589v84h114v698h-114v84h237v-782h114v-84h-351zM850 0v80l347 394q50 56 67.5 93.5t17.5 76.5q0 64 -43.5 105.5t-116.5 41.5q-75 0 -118 -47.5t-43 -143.5q0 -22 2 -58h-110q-2 35 -2 60q0 127 76.5 204t199.5 77t197.5 -69
t74.5 -171q0 -39 -10.5 -71.5t-38.5 -75.5q-12 -20 -51 -65l-302 -347h305v158h106v-242h-558z" />
    <glyph glyph-name="threequarters" unicode="&#xbe;" horiz-adv-x="1535" 
d="M275 -26l906 1500h128l-903 -1500h-131zM-12 859h106q3 -96 49 -143.5t127 -47.5q80 0 122.5 42.5t42.5 120.5q0 77 -46.5 119t-147.5 44v83q46 0 90.5 15.5t68 52t23.5 84.5q0 68 -43.5 110t-118.5 42q-76 0 -116.5 -48t-40.5 -168h-107q-2 149 72 228t200 79
q123 0 195.5 -68.5t72.5 -177.5q0 -68 -31.5 -117.5t-82.5 -73.5q63 -29 97.5 -78t34.5 -128q0 -111 -77.5 -184t-204.5 -73q-78 0 -135 28t-90 67.5t-46.5 84.5t-13.5 107zM1203 866h104v-556h108v-84h-108v-142h108v-84h-345v84h117v142h-336v87zM1187 310v368l-236 -368
h236z" />
    <glyph glyph-name="questiondown" unicode="&#xbf;" horiz-adv-x="1024" 
d="M547 1086q54 0 92.5 -38.5t38.5 -92.5t-38.5 -92t-92.5 -38t-92 38t-38 92t38 92.5t92 38.5zM768 9h163q-3 -126 -48.5 -218t-139.5 -148t-212 -56q-115 0 -213 51.5t-149 145t-51 215.5q0 112 45 204.5t134 147.5q67 41 165 57l2 301h168v-453q-37 3 -60 3
q-137 0 -209 -68t-72 -186q0 -113 68 -181t177 -68q67 0 119.5 29t83 89t29.5 135z" />
    <glyph glyph-name="Agrave" unicode="&#xc0;" horiz-adv-x="1479" 
d="M408 1481h671v-142h-178l398 -1197h138v-142h-515v142h178l-116 363h-512l-121 -363h178v-142h-498v142h142l415 1197h-180v142zM733 1278l-211 -631h417zM687 1855l182 -289h-137l-268 289h223z" />
    <glyph glyph-name="Aacute" unicode="&#xc1;" horiz-adv-x="1479" 
d="M408 1481h671v-142h-178l398 -1197h138v-142h-515v142h178l-116 363h-512l-121 -363h178v-142h-498v142h142l415 1197h-180v142zM733 1278l-211 -631h417zM783 1855h222l-268 -289h-137z" />
    <glyph glyph-name="Acircumflex" unicode="&#xc2;" horiz-adv-x="1479" 
d="M408 1481h671v-142h-178l398 -1197h138v-142h-515v142h178l-116 363h-512l-121 -363h178v-142h-498v142h142l415 1197h-180v142zM733 1278l-211 -631h417zM640 1855h189l204 -289h-163l-135 192l-135 -192h-164z" />
    <glyph glyph-name="Atilde" unicode="&#xc3;" horiz-adv-x="1479" 
d="M408 1481h671v-142h-178l398 -1197h138v-142h-515v142h178l-116 363h-512l-121 -363h178v-142h-498v142h142l415 1197h-180v142zM733 1278l-211 -631h417zM979 1822h104q-14 -108 -72.5 -165.5t-132.5 -57.5q-25 0 -59 8q-35 8 -103 33q-104 38 -140 38q-32 0 -59 -24.5
t-36 -68.5h-97q9 105 68 162.5t145 57.5q68 0 157 -38t125 -38q44 0 69 23t31 70z" />
    <glyph glyph-name="Adieresis" unicode="&#xc4;" horiz-adv-x="1479" 
d="M408 1481h671v-142h-178l398 -1197h138v-142h-515v142h178l-116 363h-512l-121 -363h178v-142h-498v142h142l415 1197h-180v142zM733 1278l-211 -631h417zM479 1589v208h187v-208h-187zM808 1589v208h188v-208h-188z" />
    <glyph glyph-name="Aring" unicode="&#xc5;" horiz-adv-x="1479" 
d="M408 1481h671v-142h-178l398 -1197h138v-142h-515v142h178l-116 363h-512l-121 -363h178v-142h-498v142h142l415 1197h-180v142zM733 1278l-211 -631h417zM524 1742q0 87 61 147.5t148 60.5q86 0 147 -61t61 -147q0 -87 -61 -148t-147 -61q-87 0 -148 61t-61 148z
M607 1742q0 -52 37 -89t89 -37t88.5 37t36.5 89t-36.5 88.5t-88.5 36.5t-89 -36.5t-37 -88.5z" />
    <glyph glyph-name="AE" unicode="&#xc6;" horiz-adv-x="2048" 
d="M24 0v142h128l673 1197h-185v142h1347v-398h-176v256h-564v-469h488v-152h-488v-576h567v304h173v-446h-1110v142h176v351h-519l-196 -351h174v-142h-488zM1053 642v697h-48l-388 -697h436z" />
    <glyph glyph-name="Ccedilla" unicode="&#xc7;" horiz-adv-x="1593" 
d="M840 -28l-73 -100q36 7 65 7q80 0 126 -43t46 -110q0 -49 -26.5 -92.5t-83 -69t-132.5 -25.5q-94 0 -199 44l35 80q76 -30 133 -30q59 0 87.5 24t28.5 61q0 34 -26.5 57.5t-72.5 23.5q-37 0 -79 -17l-35 40l113 154q-191 19 -341.5 123t-235.5 261t-85 375
q0 340 211 558.5t514 218.5q129 0 251 -42t208 -117v128h170v-462h-161q-34 117 -115 196q-134 129 -340 129q-228 0 -384.5 -165.5t-156.5 -433.5q0 -291 188 -460q154 -138 370 -138q114 0 210 39.5t157.5 107t108.5 178.5h180q-25 -91 -58 -152q-53 -98 -137 -177
t-195 -123.5t-266 -47.5z" />
    <glyph glyph-name="Egrave" unicode="&#xc8;" 
d="M47 0v142h175v1197h-175v142h1138v-398h-166v256h-597v-474h497v-156h-497v-567h602v299h163v-441h-1140zM580 1855l182 -289h-137l-268 289h223z" />
    <glyph glyph-name="Eacute" unicode="&#xc9;" 
d="M47 0v142h175v1197h-175v142h1138v-398h-166v256h-597v-474h497v-156h-497v-567h602v299h163v-441h-1140zM675 1855h222l-268 -289h-137z" />
    <glyph glyph-name="Ecircumflex" unicode="&#xca;" 
d="M47 0v142h175v1197h-175v142h1138v-398h-166v256h-597v-474h497v-156h-497v-567h602v299h163v-441h-1140zM533 1855h189l204 -289h-163l-135 192l-135 -192h-164z" />
    <glyph glyph-name="Edieresis" unicode="&#xcb;" 
d="M47 0v142h175v1197h-175v142h1138v-398h-166v256h-597v-474h497v-156h-497v-567h602v299h163v-441h-1140zM371 1589v208h187v-208h-187zM700 1589v208h188v-208h-188z" />
    <glyph glyph-name="Igrave" unicode="&#xcc;" horiz-adv-x="683" 
d="M62 0v142h175v1197h-170v142h550v-142h-180v-1197h175v-142h-550zM283 1855l182 -289h-137l-268 289h223z" />
    <glyph glyph-name="Iacute" unicode="&#xcd;" horiz-adv-x="683" 
d="M62 0v142h175v1197h-170v142h550v-142h-180v-1197h175v-142h-550zM378 1855h222l-268 -289h-137z" />
    <glyph glyph-name="Icircumflex" unicode="&#xce;" horiz-adv-x="683" 
d="M62 0v142h175v1197h-170v142h550v-142h-180v-1197h175v-142h-550zM236 1855h189l204 -289h-163l-135 192l-135 -192h-164z" />
    <glyph glyph-name="Idieresis" unicode="&#xcf;" horiz-adv-x="683" 
d="M62 0v142h175v1197h-170v142h550v-142h-180v-1197h175v-142h-550zM74 1589v208h187v-208h-187zM403 1589v208h188v-208h-188z" />
    <glyph glyph-name="Eth" unicode="&#xd0;" horiz-adv-x="1479" 
d="M52 0v142h175v553h-175v161h175v483h-175v142h500q163 0 276 -20q114 -21 207.5 -70.5t182 -145t137 -227t48.5 -278.5q0 -151 -48 -273t-129 -215t-167 -145q-67 -39 -185.5 -73t-259.5 -34h-562zM422 1339v-483h403v-161h-403v-553q76 -2 120 -2q171 0 302 45
q99 35 184 115.5t130.5 196.5t45.5 256q0 173 -69.5 301t-185.5 200q-147 90 -411 90q-58 0 -116 -5z" />
    <glyph glyph-name="Ntilde" unicode="&#xd1;" horiz-adv-x="1479" 
d="M57 0v142h175v1197h-170v142h381l621 -1085v943h-168v142h522v-142h-173v-1363h-162l-670 1178v-1012h180v-142h-536zM986 1822h104q-14 -108 -72.5 -165.5t-132.5 -57.5q-25 0 -59 8q-35 8 -103 33q-104 38 -140 38q-32 0 -59 -24.5t-36 -68.5h-97q9 105 68 162.5
t145 57.5q68 0 157 -38t125 -38q44 0 69 23t31 70z" />
    <glyph glyph-name="Ograve" unicode="&#xd2;" horiz-adv-x="1707" 
d="M73 736q0 133 37 248.5t99 201.5t143 152q105 85 230.5 128.5t271.5 43.5q328 0 551 -223t223 -548q0 -211 -98 -382.5t-270.5 -278.5t-409.5 -107q-202 0 -355 76q-110 54 -202 146t-144 201q-76 156 -76 342zM860 144q151 0 283 75t208 215.5t76 307.5
q0 254 -166.5 424.5t-404.5 170.5q-157 0 -294 -77.5t-213.5 -220.5t-76.5 -302q0 -145 63 -273q49 -100 129.5 -173.5t186.5 -110t209 -36.5zM807 1855l182 -289h-137l-268 289h223z" />
    <glyph glyph-name="Oacute" unicode="&#xd3;" horiz-adv-x="1707" 
d="M73 736q0 133 37 248.5t99 201.5t143 152q105 85 230.5 128.5t271.5 43.5q328 0 551 -223t223 -548q0 -211 -98 -382.5t-270.5 -278.5t-409.5 -107q-202 0 -355 76q-110 54 -202 146t-144 201q-76 156 -76 342zM860 144q151 0 283 75t208 215.5t76 307.5
q0 254 -166.5 424.5t-404.5 170.5q-157 0 -294 -77.5t-213.5 -220.5t-76.5 -302q0 -145 63 -273q49 -100 129.5 -173.5t186.5 -110t209 -36.5zM903 1855h222l-268 -289h-137z" />
    <glyph glyph-name="Ocircumflex" unicode="&#xd4;" horiz-adv-x="1707" 
d="M73 736q0 133 37 248.5t99 201.5t143 152q105 85 230.5 128.5t271.5 43.5q328 0 551 -223t223 -548q0 -211 -98 -382.5t-270.5 -278.5t-409.5 -107q-202 0 -355 76q-110 54 -202 146t-144 201q-76 156 -76 342zM860 144q151 0 283 75t208 215.5t76 307.5
q0 254 -166.5 424.5t-404.5 170.5q-157 0 -294 -77.5t-213.5 -220.5t-76.5 -302q0 -145 63 -273q49 -100 129.5 -173.5t186.5 -110t209 -36.5zM760 1855h189l204 -289h-163l-135 192l-135 -192h-164z" />
    <glyph glyph-name="Otilde" unicode="&#xd5;" horiz-adv-x="1707" 
d="M73 736q0 133 37 248.5t99 201.5t143 152q105 85 230.5 128.5t271.5 43.5q328 0 551 -223t223 -548q0 -211 -98 -382.5t-270.5 -278.5t-409.5 -107q-202 0 -355 76q-110 54 -202 146t-144 201q-76 156 -76 342zM860 144q151 0 283 75t208 215.5t76 307.5
q0 254 -166.5 424.5t-404.5 170.5q-157 0 -294 -77.5t-213.5 -220.5t-76.5 -302q0 -145 63 -273q49 -100 129.5 -173.5t186.5 -110t209 -36.5zM1099 1822h104q-14 -108 -72.5 -165.5t-132.5 -57.5q-25 0 -59 8q-35 8 -103 33q-104 38 -140 38q-32 0 -59 -24.5t-36 -68.5h-97
q9 105 68 162.5t145 57.5q68 0 157 -38t125 -38q44 0 69 23t31 70z" />
    <glyph glyph-name="Odieresis" unicode="&#xd6;" horiz-adv-x="1707" 
d="M73 736q0 133 37 248.5t99 201.5t143 152q105 85 230.5 128.5t271.5 43.5q328 0 551 -223t223 -548q0 -211 -98 -382.5t-270.5 -278.5t-409.5 -107q-202 0 -355 76q-110 54 -202 146t-144 201q-76 156 -76 342zM860 144q151 0 283 75t208 215.5t76 307.5
q0 254 -166.5 424.5t-404.5 170.5q-157 0 -294 -77.5t-213.5 -220.5t-76.5 -302q0 -145 63 -273q49 -100 129.5 -173.5t186.5 -110t209 -36.5zM599 1590v208h187v-208h-187zM928 1590v208h188v-208h-188z" />
    <glyph glyph-name="multiply" unicode="&#xd7;" horiz-adv-x="1228" 
d="M713 519l394 -393l-100 -100l-393 391l-391 -391l-100 100l391 393l-391 391l100 100l391 -391l393 391l100 -100z" />
    <glyph glyph-name="Oslash" unicode="&#xd8;" horiz-adv-x="1707" 
d="M1272 1394l140 175h176l-207 -258q111 -106 169 -225q78 -160 78 -346q0 -322 -223.5 -545.5t-547.5 -223.5q-262 0 -447 124l-157 -192h-168l220 277q-99 91 -165.5 234t-66.5 315q0 337 223 559t561 222q124 0 235 -34t180 -82zM424 329l735 920q-132 88 -303 88
q-156 0 -293 -77t-214 -220t-77 -311q0 -113 42 -217t110 -183zM1263 1164l-737 -922q147 -98 329 -98q156 0 287.5 75.5t208 214.5t76.5 305q0 125 -44 237t-120 188z" />
    <glyph glyph-name="Ugrave" unicode="&#xd9;" horiz-adv-x="1479" 
d="M62 1481h526v-142h-175v-896q0 -135 85 -217t236 -82q158 0 243 87.5t85 275.5v832h-175v142h526v-142h-159v-832q0 -149 -48 -266t-169.5 -194t-298.5 -77q-116 0 -199.5 30t-145.5 75q-48 36 -84 83t-61 124t-25 185l-2 872h-159v142zM695 1855l182 -289h-137l-268 289
h223z" />
    <glyph glyph-name="Uacute" unicode="&#xda;" horiz-adv-x="1479" 
d="M62 1481h526v-142h-175v-896q0 -135 85 -217t236 -82q158 0 243 87.5t85 275.5v832h-175v142h526v-142h-159v-832q0 -149 -48 -266t-169.5 -194t-298.5 -77q-116 0 -199.5 30t-145.5 75q-48 36 -84 83t-61 124t-25 185l-2 872h-159v142zM790 1855h222l-268 -289h-137z
" />
    <glyph glyph-name="Ucircumflex" unicode="&#xdb;" horiz-adv-x="1479" 
d="M62 1481h526v-142h-175v-896q0 -135 85 -217t236 -82q158 0 243 87.5t85 275.5v832h-175v142h526v-142h-159v-832q0 -149 -48 -266t-169.5 -194t-298.5 -77q-116 0 -199.5 30t-145.5 75q-48 36 -84 83t-61 124t-25 185l-2 872h-159v142zM647 1855h189l204 -289h-163
l-135 192l-135 -192h-164z" />
    <glyph glyph-name="Udieresis" unicode="&#xdc;" horiz-adv-x="1479" 
d="M62 1481h526v-142h-175v-896q0 -135 85 -217t236 -82q158 0 243 87.5t85 275.5v832h-175v142h526v-142h-159v-832q0 -149 -48 -266t-169.5 -194t-298.5 -77q-116 0 -199.5 30t-145.5 75q-48 36 -84 83t-61 124t-25 185l-2 872h-159v142zM486 1590v208h187v-208h-187z
M815 1590v208h188v-208h-188z" />
    <glyph glyph-name="Yacute" unicode="&#xdd;" horiz-adv-x="1365" 
d="M38 1481h521v-142h-160l293 -496l297 496h-155v142h489v-142h-145l-400 -671v-526h175v-142h-545v142h175v526l-393 671h-152v142zM756 1855h222l-268 -289h-137z" />
    <glyph glyph-name="Thorn" unicode="&#xde;" 
d="M432 1214h149q185 0 307 -39q86 -26 149 -80.5t100 -126.5q48 -94 48 -211q0 -100 -31.5 -174t-86.5 -132.5t-119.5 -95t-147 -52.5t-214.5 -16h-154v-145h175v-142h-550v142h175v1197h-170v142h550v-142h-180v-125zM432 1071v-637h204q108 0 186 38.5t121 117.5t43 175
q0 97 -49 172t-123 104q-74 30 -240 30h-142z" />
    <glyph glyph-name="germandbls" unicode="&#xdf;" 
d="M81 0v137h149v908q0 227 111.5 345t295.5 118q176 0 287.5 -105t111.5 -254q0 -125 -72 -215q-49 -62 -134 -90q156 -39 244 -152.5t88 -272.5q0 -107 -40.5 -201.5t-100 -148.5t-134 -75t-192.5 -22v149q106 2 162 31.5t91.5 104.5t35.5 171q0 88 -33 151.5t-81 102.5
t-104 55t-156 19v135q94 10 143 36t81 83.5t32 131.5q0 98 -61.5 160t-158.5 62q-76 0 -134 -36.5t-83.5 -101.5t-25.5 -147v-942h154v-137h-476z" />
    <glyph glyph-name="agrave" unicode="&#xe0;" 
d="M866 806v142h320v-137h-166v-674h164v-137h-318v147q-58 -85 -147.5 -129t-198.5 -44q-195 0 -329 139.5t-134 356.5q0 222 135 362t334 140q109 0 192 -43t148 -123zM540 125q73 0 143 34q45 23 82 60q48 50 71.5 114.5t23.5 144.5q0 156 -89.5 250.5t-221.5 94.5
q-86 0 -158 -41.5t-110 -124t-38 -187.5q0 -156 86.5 -250.5t210.5 -94.5zM557 1370l182 -289h-137l-268 289h223z" />
    <glyph glyph-name="aacute" unicode="&#xe1;" 
d="M866 806v142h320v-137h-166v-674h164v-137h-318v147q-58 -85 -147.5 -129t-198.5 -44q-195 0 -329 139.5t-134 356.5q0 222 135 362t334 140q109 0 192 -43t148 -123zM540 125q73 0 143 34q45 23 82 60q48 50 71.5 114.5t23.5 144.5q0 156 -89.5 250.5t-221.5 94.5
q-86 0 -158 -41.5t-110 -124t-38 -187.5q0 -156 86.5 -250.5t210.5 -94.5zM652 1370h222l-268 -289h-137z" />
    <glyph glyph-name="acircumflex" unicode="&#xe2;" 
d="M866 806v142h320v-137h-166v-674h164v-137h-318v147q-58 -85 -147.5 -129t-198.5 -44q-195 0 -329 139.5t-134 356.5q0 222 135 362t334 140q109 0 192 -43t148 -123zM540 125q73 0 143 34q45 23 82 60q48 50 71.5 114.5t23.5 144.5q0 156 -89.5 250.5t-221.5 94.5
q-86 0 -158 -41.5t-110 -124t-38 -187.5q0 -156 86.5 -250.5t210.5 -94.5zM510 1370h189l204 -289h-163l-135 192l-135 -192h-164z" />
    <glyph glyph-name="atilde" unicode="&#xe3;" 
d="M866 806v142h320v-137h-166v-674h164v-137h-318v147q-58 -85 -147.5 -129t-198.5 -44q-195 0 -329 139.5t-134 356.5q0 222 135 362t334 140q109 0 192 -43t148 -123zM540 125q73 0 143 34q45 23 82 60q48 50 71.5 114.5t23.5 144.5q0 156 -89.5 250.5t-221.5 94.5
q-86 0 -158 -41.5t-110 -124t-38 -187.5q0 -156 86.5 -250.5t210.5 -94.5zM848 1337h104q-14 -108 -72.5 -165.5t-132.5 -57.5q-25 0 -59 8q-35 8 -103 33q-104 38 -140 38q-32 0 -59 -24.5t-36 -68.5h-97q9 105 68 162.5t145 57.5q68 0 157 -38t125 -38q44 0 69 23t31 70z
" />
    <glyph glyph-name="adieresis" unicode="&#xe4;" 
d="M866 806v142h320v-137h-166v-674h164v-137h-318v147q-58 -85 -147.5 -129t-198.5 -44q-195 0 -329 139.5t-134 356.5q0 222 135 362t334 140q109 0 192 -43t148 -123zM540 125q73 0 143 34q45 23 82 60q48 50 71.5 114.5t23.5 144.5q0 156 -89.5 250.5t-221.5 94.5
q-86 0 -158 -41.5t-110 -124t-38 -187.5q0 -156 86.5 -250.5t210.5 -94.5zM348 1105v208h187v-208h-187zM677 1105v208h188v-208h-188z" />
    <glyph glyph-name="aring" unicode="&#xe5;" 
d="M866 806v142h320v-137h-166v-674h164v-137h-318v147q-58 -85 -147.5 -129t-198.5 -44q-195 0 -329 139.5t-134 356.5q0 222 135 362t334 140q109 0 192 -43t148 -123zM540 125q73 0 143 34q45 23 82 60q48 50 71.5 114.5t23.5 144.5q0 156 -89.5 250.5t-221.5 94.5
q-86 0 -158 -41.5t-110 -124t-38 -187.5q0 -156 86.5 -250.5t210.5 -94.5zM393 1292q0 87 61 147.5t148 60.5q86 0 147 -61t61 -147q0 -87 -61 -148t-147 -61q-87 0 -148 61t-61 148zM476 1292q0 -52 37 -89t89 -37t88.5 37t36.5 89t-36.5 88.5t-88.5 36.5t-89 -36.5
t-37 -88.5z" />
    <glyph glyph-name="ae" unicode="&#xe6;" horiz-adv-x="1707" 
d="M1463 275h159q-31 -80 -86 -140q-76 -83 -167.5 -122t-201.5 -39q-113 0 -199 42.5t-162 130.5q-65 -73 -178.5 -124.5t-219.5 -51.5q-158 0 -255.5 91.5t-97.5 224.5q0 154 113.5 241.5t259.5 87.5q71 0 144 -22.5t135 -67.5q5 31 5 67q0 118 -66 177.5t-214 59.5
q-129 0 -256 -55l-64 126q69 33 167 55.5t193 22.5q140 0 220 -41t136 -123q69 80 134 112q91 45 205 45q120 0 214 -50.5t155 -131.5t87.5 -171.5t26.5 -201.5h-777q16 -146 98 -221.5t218 -75.5q98 0 170.5 46t103.5 109zM878 555h587q-3 78 -44 143t-109.5 99.5
t-147.5 34.5q-117 0 -197 -76.5t-89 -200.5zM441 119q69 0 139 25.5t103 71t33 90.5q0 42 -26.5 81.5t-89 64t-140.5 24.5q-113 0 -175 -54t-62 -132q0 -50 28 -90.5t82 -60.5t108 -20z" />
    <glyph glyph-name="ccedilla" unicode="&#xe7;" horiz-adv-x="1024" 
d="M553 -26l-76 -102q36 7 65 7q81 0 126.5 -43t45.5 -110q0 -49 -26 -92.5t-83 -69t-133 -25.5q-93 0 -199 44l36 80q76 -30 133 -30q58 0 87 24t29 61q0 34 -26.5 57.5t-72.5 23.5q-38 0 -79 -17l-36 40l115 157q-178 25 -288 156.5t-110 337.5q0 224 128 360.5t316 136.5
q96 0 174 -38t113 -88v104h133v-327h-124q-22 89 -97.5 147.5t-171.5 58.5q-122 0 -208 -95t-86 -262q0 -122 43 -199t115.5 -113.5t141.5 -36.5q84 0 162.5 42t157.5 126l104 -95q-97 -110 -198 -162.5t-211 -57.5z" />
    <glyph glyph-name="egrave" unicode="&#xe8;" horiz-adv-x="1138" 
d="M1070 422h-829q10 -131 104.5 -216.5t227.5 -85.5q93 0 169.5 37.5t128.5 117.5h176q-67 -133 -189 -216t-285 -83q-226 0 -371 142.5t-145 354.5q0 214 144.5 358t361.5 144q133 0 235 -54.5t166 -142t90 -193.5q16 -65 16 -163zM241 555h644q-20 125 -109 201t-212 76
q-127 0 -217.5 -78.5t-105.5 -198.5zM524 1370l182 -289h-137l-268 289h223z" />
    <glyph glyph-name="eacute" unicode="&#xe9;" horiz-adv-x="1138" 
d="M1070 422h-829q10 -131 104.5 -216.5t227.5 -85.5q93 0 169.5 37.5t128.5 117.5h176q-67 -133 -189 -216t-285 -83q-226 0 -371 142.5t-145 354.5q0 214 144.5 358t361.5 144q133 0 235 -54.5t166 -142t90 -193.5q16 -65 16 -163zM241 555h644q-20 125 -109 201t-212 76
q-127 0 -217.5 -78.5t-105.5 -198.5zM619 1370h222l-268 -289h-137z" />
    <glyph glyph-name="ecircumflex" unicode="&#xea;" horiz-adv-x="1138" 
d="M1070 422h-829q10 -131 104.5 -216.5t227.5 -85.5q93 0 169.5 37.5t128.5 117.5h176q-67 -133 -189 -216t-285 -83q-226 0 -371 142.5t-145 354.5q0 214 144.5 358t361.5 144q133 0 235 -54.5t166 -142t90 -193.5q16 -65 16 -163zM241 555h644q-20 125 -109 201t-212 76
q-127 0 -217.5 -78.5t-105.5 -198.5zM476 1370h189l204 -289h-163l-135 192l-135 -192h-164z" />
    <glyph glyph-name="edieresis" unicode="&#xeb;" horiz-adv-x="1138" 
d="M1070 422h-829q10 -131 104.5 -216.5t227.5 -85.5q93 0 169.5 37.5t128.5 117.5h176q-67 -133 -189 -216t-285 -83q-226 0 -371 142.5t-145 354.5q0 214 144.5 358t361.5 144q133 0 235 -54.5t166 -142t90 -193.5q16 -65 16 -163zM241 555h644q-20 125 -109 201t-212 76
q-127 0 -217.5 -78.5t-105.5 -198.5zM315 1105v208h187v-208h-187zM644 1105v208h188v-208h-188z" />
    <glyph glyph-name="igrave" unicode="&#xec;" horiz-adv-x="683" 
d="M95 0v137h166v674h-161v137h336v-811h159v-137h-500zM266 1370l182 -289h-137l-268 289h223z" />
    <glyph glyph-name="iacute" unicode="&#xed;" horiz-adv-x="683" 
d="M95 0v137h166v674h-161v137h336v-811h159v-137h-500zM361 1370h222l-268 -289h-137z" />
    <glyph glyph-name="icircumflex" unicode="&#xee;" horiz-adv-x="683" 
d="M95 0v137h166v674h-161v137h336v-811h159v-137h-500zM219 1370h189l204 -289h-163l-135 192l-135 -192h-164z" />
    <glyph glyph-name="idieresis" unicode="&#xef;" horiz-adv-x="683" 
d="M95 0v137h166v674h-161v137h336v-811h159v-137h-500zM58 1105v208h187v-208h-187zM387 1105v208h188v-208h-188z" />
    <glyph glyph-name="eth" unicode="&#xf0;" horiz-adv-x="1138" 
d="M894 1351l-181 -104q169 -170 264 -362t95 -390q0 -248 -137.5 -385t-371.5 -137q-220 0 -361 138.5t-141 347.5q0 223 142 366.5t356 143.5q105 0 200 -42q-68 129 -176 244l-211 -126l-69 114l178 104q-114 95 -192 143l128 75q113 -70 195 -142l213 126zM897 473
q0 163 -91 257.5t-237 94.5q-166 0 -251.5 -115.5t-85.5 -246.5q0 -127 74 -226q95 -128 262 -128q141 0 235 99t94 265z" />
    <glyph glyph-name="ntilde" unicode="&#xf1;" 
d="M64 948h334v-152q91 93 170 131t168 38q142 0 218.5 -82t76.5 -278v-468h157v-137h-479v137h149v494q0 95 -25 132q-41 60 -132 60q-69 0 -138 -38.5t-160 -137.5v-510h166v-137h-505v137h164v674h-164v137zM872 1339h104q-14 -108 -72.5 -165.5t-132.5 -57.5
q-25 0 -59 8q-35 8 -103 33q-104 38 -140 38q-32 0 -59 -24.5t-36 -68.5h-97q9 105 68 162.5t145 57.5q68 0 157 -38t125 -38q44 0 69 23t31 70z" />
    <glyph glyph-name="ograve" unicode="&#xf2;" horiz-adv-x="1138" 
d="M566 969q223 0 363 -139.5t140 -360.5q0 -227 -137.5 -361.5t-368.5 -134.5q-220 0 -361 138.5t-141 348.5q0 220 144 364.5t361 144.5zM897 473q0 163 -91 257.5t-237 94.5q-166 0 -251.5 -115.5t-85.5 -246.5q0 -127 74 -226q95 -128 262 -128q141 0 235 99t94 265z
M523 1370l182 -289h-137l-268 289h223z" />
    <glyph glyph-name="oacute" unicode="&#xf3;" horiz-adv-x="1138" 
d="M566 969q223 0 363 -139.5t140 -360.5q0 -227 -137.5 -361.5t-368.5 -134.5q-220 0 -361 138.5t-141 348.5q0 220 144 364.5t361 144.5zM897 473q0 163 -91 257.5t-237 94.5q-166 0 -251.5 -115.5t-85.5 -246.5q0 -127 74 -226q95 -128 262 -128q141 0 235 99t94 265z
M618 1370h222l-268 -289h-137z" />
    <glyph glyph-name="ocircumflex" unicode="&#xf4;" horiz-adv-x="1138" 
d="M566 969q223 0 363 -139.5t140 -360.5q0 -227 -137.5 -361.5t-368.5 -134.5q-220 0 -361 138.5t-141 348.5q0 220 144 364.5t361 144.5zM897 473q0 163 -91 257.5t-237 94.5q-166 0 -251.5 -115.5t-85.5 -246.5q0 -127 74 -226q95 -128 262 -128q141 0 235 99t94 265z
M476 1370h189l204 -289h-163l-135 192l-135 -192h-164z" />
    <glyph glyph-name="otilde" unicode="&#xf5;" horiz-adv-x="1138" 
d="M566 969q223 0 363 -139.5t140 -360.5q0 -227 -137.5 -361.5t-368.5 -134.5q-220 0 -361 138.5t-141 348.5q0 220 144 364.5t361 144.5zM897 473q0 163 -91 257.5t-237 94.5q-166 0 -251.5 -115.5t-85.5 -246.5q0 -127 74 -226q95 -128 262 -128q141 0 235 99t94 265z
M814 1337h104q-14 -108 -72.5 -165.5t-132.5 -57.5q-25 0 -59 8q-35 8 -103 33q-104 38 -140 38q-32 0 -59 -24.5t-36 -68.5h-97q9 105 68 162.5t145 57.5q68 0 157 -38t125 -38q44 0 69 23t31 70z" />
    <glyph glyph-name="odieresis" unicode="&#xf6;" horiz-adv-x="1138" 
d="M566 969q223 0 363 -139.5t140 -360.5q0 -227 -137.5 -361.5t-368.5 -134.5q-220 0 -361 138.5t-141 348.5q0 220 144 364.5t361 144.5zM897 473q0 163 -91 257.5t-237 94.5q-166 0 -251.5 -115.5t-85.5 -246.5q0 -127 74 -226q95 -128 262 -128q141 0 235 99t94 265z
M314 1105v208h187v-208h-187zM643 1105v208h188v-208h-188z" />
    <glyph glyph-name="divide" unicode="&#xf7;" horiz-adv-x="1228" 
d="M614 998q46 0 78.5 -32.5t32.5 -79.5q0 -46 -32.5 -78.5t-78.5 -32.5t-79 32.5t-33 78.5q0 47 33 79.5t79 32.5zM97 588h1033v-140h-1033v140zM614 261q46 0 78.5 -33t32.5 -79t-32.5 -78.5t-78.5 -32.5t-79 32.5t-33 78.5t33 79t79 33z" />
    <glyph glyph-name="oslash" unicode="&#xf8;" horiz-adv-x="1138" 
d="M813 913l149 194h156l-203 -266q63 -48 108.5 -145.5t45.5 -225.5q0 -228 -137.5 -362.5t-370.5 -134.5q-75 0 -144.5 18.5t-113.5 44.5l-149 -195h-152l201 268q-70 72 -106 156t-36 195q0 220 144 365t357 145q70 0 138 -16t113 -41zM303 239l420 553q-21 12 -63 22.5
t-88 10.5q-103 0 -176 -44t-118.5 -133t-45.5 -184q0 -60 19 -120t52 -105zM820 713l-429 -559q83 -45 175 -45q143 0 236.5 99t93.5 265q0 144 -76 240z" />
    <glyph glyph-name="ugrave" unicode="&#xf9;" 
d="M66 948h315v-656q0 -98 47 -136t108 -38q77 0 162.5 53.5t117.5 113.5t32 158v368h-154v137h330v-811h158v-137h-324v145q-60 -72 -156 -120.5t-206 -48.5q-134 0 -209.5 75.5t-75.5 211.5v548h-145v137zM549 1370l182 -289h-137l-268 289h223z" />
    <glyph glyph-name="uacute" unicode="&#xfa;" 
d="M66 948h315v-656q0 -98 47 -136t108 -38q77 0 162.5 53.5t117.5 113.5t32 158v368h-154v137h330v-811h158v-137h-324v145q-60 -72 -156 -120.5t-206 -48.5q-134 0 -209.5 75.5t-75.5 211.5v548h-145v137zM644 1370h222l-268 -289h-137z" />
    <glyph glyph-name="ucircumflex" unicode="&#xfb;" 
d="M66 948h315v-656q0 -98 47 -136t108 -38q77 0 162.5 53.5t117.5 113.5t32 158v368h-154v137h330v-811h158v-137h-324v145q-60 -72 -156 -120.5t-206 -48.5q-134 0 -209.5 75.5t-75.5 211.5v548h-145v137zM502 1370h189l204 -289h-163l-135 192l-135 -192h-164z" />
    <glyph glyph-name="udieresis" unicode="&#xfc;" 
d="M66 948h315v-656q0 -98 47 -136t108 -38q77 0 162.5 53.5t117.5 113.5t32 158v368h-154v137h330v-811h158v-137h-324v145q-60 -72 -156 -120.5t-206 -48.5q-134 0 -209.5 75.5t-75.5 211.5v548h-145v137zM340 1105v208h187v-208h-187zM669 1105v208h188v-208h-188z" />
    <glyph glyph-name="yacute" unicode="&#xfd;" horiz-adv-x="1138" 
d="M31 948h443v-137h-149l227 -572l249 572h-142v137h427v-137h-114l-488 -1098h178v-135h-510v135h168l140 320l-315 778h-114v137zM619 1370h222l-268 -289h-137z" />
    <glyph glyph-name="thorn" unicode="&#xfe;" 
d="M399 128v-412h175v-138h-512v138h161v1628h-161v137h337v-661q134 150 327 150q117 0 205 -48q67 -36 126 -102t92.5 -149t33.5 -197q0 -219 -135.5 -360.5t-327.5 -141.5q-106 0 -179.5 36.5t-141.5 119.5zM697 126q123 0 215.5 99.5t92.5 254.5q0 152 -91.5 249.5
t-214.5 97.5q-78 0 -152 -43.5t-117 -125t-43 -180.5q0 -151 93 -251.5t217 -100.5z" />
    <glyph glyph-name="ydieresis" unicode="&#xff;" horiz-adv-x="1138" 
d="M31 948h443v-137h-149l227 -572l249 572h-142v137h427v-137h-114l-488 -1098h178v-135h-510v135h168l140 320l-315 778h-114v137zM315 1105v208h187v-208h-187zM644 1105v208h188v-208h-188z" />
    <glyph glyph-name="Cacute" unicode="&#x106;" horiz-adv-x="1593" 
d="M1269 1353v128h170v-462h-161q-34 117 -115 196q-134 129 -340 129q-228 0 -384.5 -165.5t-156.5 -433.5q0 -291 188 -460q154 -138 370 -138q114 0 210 39.5t157.5 107t108.5 178.5h180q-26 -96 -64 -162q-59 -105 -150 -184.5t-203 -116.5t-246 -37q-210 0 -375 94
t-269 261t-104 408q0 340 211 558.5t514 218.5q129 0 251 -42t208 -117zM879 1857h222l-268 -289h-137z" />
    <glyph glyph-name="cacute" unicode="&#x107;" horiz-adv-x="1024" 
d="M792 844v104h133v-327h-124q-22 89 -97.5 147.5t-171.5 58.5q-122 0 -208 -95t-86 -262q0 -122 43 -199t115.5 -113.5t141.5 -36.5q84 0 162.5 42t157.5 126l104 -95q-100 -114 -205.5 -167t-223.5 -53q-205 0 -338.5 136.5t-133.5 362.5q0 224 128 360.5t316 136.5
q96 0 174 -38t113 -88zM571 1370h222l-268 -289h-137z" />
    <glyph glyph-name="Ccaron" unicode="&#x10c;" horiz-adv-x="1593" 
d="M1269 1353v128h170v-462h-161q-34 117 -115 196q-134 129 -340 129q-228 0 -384.5 -165.5t-156.5 -433.5q0 -291 188 -460q154 -138 370 -138q114 0 210 39.5t157.5 107t108.5 178.5h180q-26 -96 -64 -162q-59 -105 -150 -184.5t-203 -116.5t-246 -37q-210 0 -375 94
t-269 261t-104 408q0 340 211 558.5t514 218.5q129 0 251 -42t208 -117zM1130 1857l-204 -289h-189l-204 289h164l135 -192l135 192h163z" />
    <glyph glyph-name="ccaron" unicode="&#x10d;" horiz-adv-x="1024" 
d="M792 844v104h133v-327h-124q-22 89 -97.5 147.5t-171.5 58.5q-122 0 -208 -95t-86 -262q0 -122 43 -199t115.5 -113.5t141.5 -36.5q84 0 162.5 42t157.5 126l104 -95q-100 -114 -205.5 -167t-223.5 -53q-205 0 -338.5 136.5t-133.5 362.5q0 224 128 360.5t316 136.5
q96 0 174 -38t113 -88zM821 1370l-204 -289h-189l-204 289h164l135 -192l135 192h163z" />
    <glyph glyph-name="dcroat" unicode="&#x111;" 
d="M853 1150h-341v118h341v76h-171v137h344v-213h158v-118h-158v-1013h159v-137h-325v142q-57 -78 -144.5 -123t-197.5 -45q-221 0 -352 171q-107 140 -107 325q0 188 111 331q135 173 351 173q102 0 188 -43t144 -116v335zM540 123q80 0 140 28q38 18 80 59.5t71 105.5
t29 160q0 170 -101 256t-216 86q-80 0 -151.5 -42.5t-111 -123.5t-39.5 -181q0 -161 84 -254.5t215 -93.5z" />
    <glyph glyph-name="Gbreve" unicode="&#x11e;" horiz-adv-x="1707" 
d="M1292 1332v149h159v-516h-140q-35 159 -170 264.5t-321 105.5q-176 0 -299.5 -88t-187 -226.5t-63.5 -288.5q0 -162 73 -298.5t205 -210.5t288 -74q213 0 362 145q106 103 125 213h-386v159h713v-159h-166v-507h-166v175q-205 -205 -500 -205q-211 0 -374.5 91.5
t-269 264.5t-105.5 398q0 222 102 404.5t267.5 282t381.5 99.5q277 0 472 -178zM538 1854h102q19 -79 71.5 -118.5t146.5 -39.5t144.5 39t68.5 119h100q-14 -132 -96 -205t-225 -73q-107 0 -178 41t-105 113q-24 49 -29 124z" />
    <glyph glyph-name="gbreve" unicode="&#x11f;" 
d="M861 811v137h324v-137h-163v-809q0 -117 -44.5 -210.5t-155.5 -154.5t-279 -61q-135 0 -232 39.5t-163 112.5q-46 52 -74 127h201q25 -60 88.5 -97t172.5 -37t184 38t103 95.5t27 194.5v95q-119 -173 -321 -173q-228 0 -364 182q-106 141 -106 320q0 131 60.5 250.5
t165.5 183t231 63.5q101 0 189.5 -39.5t155.5 -119.5zM533 128q84 0 162 42.5t123 126t45 183.5q0 98 -42 178.5t-119.5 123.5t-155.5 43q-105 0 -189 -70q-117 -96 -117 -270q0 -101 39.5 -186.5t108 -128t145.5 -42.5zM310 1369h102q19 -79 71.5 -118.5t146.5 -39.5
t144.5 39t68.5 119h100q-14 -132 -96 -205t-225 -73q-107 0 -178 41t-105 113q-24 49 -29 124z" />
    <glyph glyph-name="Idotaccent" unicode="&#x130;" horiz-adv-x="683" 
d="M62 0v142h175v1197h-170v142h550v-142h-180v-1197h175v-142h-550zM235 1589v208h187v-208h-187z" />
    <glyph glyph-name="dotlessi" unicode="&#x131;" horiz-adv-x="683" 
d="M95 0v137h166v674h-161v137h336v-811h159v-137h-500z" />
    <glyph glyph-name="Lslash" unicode="&#x141;" horiz-adv-x="1138" 
d="M57 0v142h180v451l-192 -60v157l192 59v590h-175v142h561v-142h-192v-528l332 109v-157l-332 -109v-512h470v292h161v-434h-1005z" />
    <glyph glyph-name="lslash" unicode="&#x142;" horiz-adv-x="683" 
d="M95 1344v137h336v-568l185 94v-161l-185 -95v-614h161v-137h-502v137h166v524l-185 -94v161l185 95v521h-161z" />
    <glyph glyph-name="OE" unicode="&#x152;" horiz-adv-x="2048" 
d="M1986 1481v-388h-175v246h-564v-464h483v-157h-483v-576h562v308h177v-450h-1223q-207 0 -374 96.5t-252 259.5t-85 372q0 169 50 298t121 212t160 138t230 87q84 18 269 18h1104zM1053 1199q0 82 -22 108q-34 40 -152 40q-140 0 -253.5 -39.5t-196.5 -115.5t-130.5 -179
t-47.5 -277q0 -273 161 -434t433 -161q100 0 148 17q36 13 48 37t12 87v917z" />
    <glyph glyph-name="oe" unicode="&#x153;" horiz-adv-x="1934" 
d="M1680 275h157q-46 -128 -169.5 -212t-287.5 -84q-142 0 -237.5 55t-161.5 151q-69 -95 -178 -153.5t-238 -58.5q-211 0 -355 143.5t-144 352.5q0 216 143.5 359.5t361.5 143.5q106 0 182 -30.5t130 -78.5q41 -36 93 -107q54 93 157.5 154.5t227.5 61.5q133 0 251.5 -64
t184.5 -180.5t66 -265.5v-40h-801q10 -92 56 -161t116 -103.5t153 -34.5q96 0 168 39t125 113zM1069 559h611q-13 105 -95.5 189t-214.5 84q-117 0 -204.5 -80.5t-96.5 -192.5zM578 116q77 0 155.5 41.5t124 122.5t45.5 196q0 164 -91 257.5t-239 93.5q-149 0 -244 -97.5
t-95 -259.5q0 -112 51 -193.5t132.5 -121t160.5 -39.5z" />
    <glyph glyph-name="Scedilla" unicode="&#x15e;" 
d="M678 -28l-74 -100q37 7 66 7q80 0 125.5 -43t45.5 -110q0 -49 -26 -92.5t-83 -69t-133 -25.5q-93 0 -198 44l35 80q76 -30 133 -30q59 0 87.5 24t28.5 61q0 34 -26.5 57.5t-72.5 23.5q-37 0 -79 -17l-35 40l113 155q-89 13 -165.5 47t-158.5 99v-123h-166v503h164
q20 -103 55 -161.5t91.5 -105t117.5 -70t142 -23.5q150 0 229 70t79 178q0 92 -50 147t-107 74l-496 163q-101 33 -162 121t-61 219q0 177 119.5 286t336.5 109q115 0 202 -37.5t167 -119.5v128h150v-436h-154q-28 139 -124.5 218t-243.5 79q-112 0 -189 -59t-77 -153
q0 -75 49 -127.5t201 -94.5l229 -64q140 -39 228.5 -95t133 -143t44.5 -197q0 -219 -174 -348q-120 -89 -317 -89z" />
    <glyph glyph-name="scedilla" unicode="&#x15f;" horiz-adv-x="1024" 
d="M572 -29l-74 -99q37 7 66 7q80 0 126 -43t46 -110q0 -49 -26.5 -92.5t-83 -69t-132.5 -25.5q-94 0 -199 44l35 80q76 -30 133 -30q59 0 87.5 24t28.5 61q0 34 -26.5 57.5t-72.5 23.5q-37 0 -79 -17l-35 40l114 156q-82 12 -149 47q-42 23 -87 70v-95h-140v308h140
q24 -81 111 -140t211 -59q111 0 161.5 40t50.5 97q0 47 -31 79t-98 43l-271 44q-97 16 -147.5 43.5t-86.5 89.5t-36 145q0 123 87 201.5t242 78.5q86 0 164.5 -30t135.5 -82v90h140v-291h-147q-28 82 -100 129.5t-180 47.5q-91 0 -137 -39t-46 -94q0 -28 13.5 -56t35.5 -44
q10 -7 48 -16l97 -20l182 -27q158 -23 228 -95t70 -179q0 -123 -97.5 -208t-271.5 -85z" />
    <glyph glyph-name="Scaron" unicode="&#x160;" 
d="M95 0v503h164q20 -103 55 -161.5t91.5 -105t117.5 -70t142 -23.5q150 0 229 70.5t79 177.5q0 86 -49.5 146.5t-158.5 94.5l-357 113q-112 36 -174.5 77.5t-99.5 114.5t-37 178q0 177 119.5 286t336.5 109q115 0 202 -37.5t167 -119.5v128h150v-436h-154
q-28 139 -124.5 218t-243.5 79q-112 0 -189 -59t-77 -153q0 -86 58 -136q59 -50 185 -85l236 -65q140 -39 229 -96t133 -144t44 -195q0 -213 -165 -341q-124 -96 -321 -96q-123 0 -221.5 35.5t-200.5 115.5v-123h-166zM903 1855l-204 -289h-189l-204 289h164l135 -192
l135 192h163z" />
    <glyph glyph-name="scaron" unicode="&#x161;" horiz-adv-x="1024" 
d="M104 0v308h140q24 -81 111 -140t211 -59q111 0 161.5 40t50.5 97q0 47 -31 79t-98 43l-248 40q-142 23 -199 69q-94 76 -94 213q0 123 87 201.5t242 78.5q86 0 164.5 -30t135.5 -82v90h140v-291h-147q-28 82 -100 129.5t-180 47.5q-91 0 -137 -39t-46 -96q0 -36 21.5 -66
t59.5 -44t160 -31l135 -20q157 -22 227.5 -94.5t70.5 -179.5q0 -123 -97.5 -208t-273.5 -85q-120 0 -215 43q-59 26 -111 81v-95h-140zM812 1370l-204 -289h-189l-204 289h164l135 -192l135 192h163z" />
    <glyph glyph-name="Ydieresis" unicode="&#x178;" horiz-adv-x="1365" 
d="M38 1481h521v-142h-160l293 -496l297 496h-155v142h489v-142h-145l-400 -671v-526h175v-142h-545v142h175v526l-393 671h-152v142zM452 1589v208h187v-208h-187zM781 1589v208h188v-208h-188z" />
    <glyph glyph-name="Zcaron" unicode="&#x17d;" horiz-adv-x="1138" 
d="M33 0v137l801 1202h-597v-260h-171v402h1010v-130l-813 -1209h635v313h178v-455h-1043zM893 1855l-204 -289h-189l-204 289h164l135 -192l135 192h163z" />
    <glyph glyph-name="zcaron" unicode="&#x17e;" horiz-adv-x="910" 
d="M611 811h-391v-178h-161v315h775v-140l-571 -671h431v202h159v-339h-813v135zM755 1370l-204 -289h-189l-204 289h164l135 -192l135 192h163z" />
    <glyph glyph-name="florin" unicode="&#x192;" horiz-adv-x="1024" 
d="M-5 -329l24 137q62 -21 115 -21q87 0 136 60q50 61 85 309l88 624h-244v121h263q36 310 112 435q102 167 280 167q37 0 68.5 -6.5t94.5 -29.5l-24 -144q-31 12 -75 21.5t-72 9.5q-53 0 -94.5 -37.5t-66.5 -126.5q-25 -90 -52 -289h244v-121h-259l-87 -595
q-45 -302 -118 -407q-94 -136 -271 -136q-72 0 -147 29z" />
    <glyph glyph-name="circumflex" unicode="&#x2c6;" horiz-adv-x="683" 
d="M249 1370h189l204 -289h-163l-135 192l-135 -192h-164z" />
    <glyph glyph-name="caron" unicode="&#x2c7;" horiz-adv-x="683" 
d="M642 1370l-204 -289h-189l-204 289h164l135 -192l135 192h163z" />
    <glyph glyph-name="breve" unicode="&#x2d8;" horiz-adv-x="683" 
d="M26 1368h102q19 -79 71.5 -118.5t146.5 -39.5t144.5 39t68.5 119h100q-14 -132 -96 -205t-225 -73q-107 0 -178 41t-105 113q-24 49 -29 124z" />
    <glyph glyph-name="dotaccent" unicode="&#x2d9;" horiz-adv-x="683" 
d="M192 1105v208h187v-208h-187z" />
    <glyph glyph-name="ring" unicode="&#x2da;" horiz-adv-x="683" 
d="M133 1292q0 87 61 147.5t148 60.5q86 0 147 -61t61 -147q0 -87 -61 -148t-147 -61q-87 0 -148 61t-61 148zM216 1292q0 -52 37 -89t89 -37t88.5 37t36.5 89t-36.5 88.5t-88.5 36.5t-89 -36.5t-37 -88.5z" />
    <glyph glyph-name="ogonek" unicode="&#x2db;" horiz-adv-x="683" 
d="M585 40v-16q-171 -94 -221 -149.5t-50 -110.5q0 -41 26.5 -66t72.5 -25q37 0 93 22.5t110 60.5l33 -52q-170 -121 -306 -121q-89 0 -141.5 47t-52.5 113q0 73 68 134q102 93 368 163z" />
    <glyph glyph-name="tilde" unicode="&#x2dc;" horiz-adv-x="683" 
d="M588 1337h104q-14 -108 -72.5 -165.5t-132.5 -57.5q-25 0 -59 8q-35 8 -103 33q-104 38 -140 38q-32 0 -59 -24.5t-36 -68.5h-97q9 105 68 162.5t145 57.5q68 0 157 -38t125 -38q44 0 69 23t31 70z" />
    <glyph glyph-name="hungarumlaut" unicode="&#x2dd;" horiz-adv-x="683" 
d="M197 1081h-138l173 289h221zM538 1370h223l-268 -289h-138z" />
    <glyph glyph-name="pi" unicode="&#x3c0;" horiz-adv-x="1256" 
d="M931 844v-592q0 -92 4 -119q6 -42 24.5 -61t44.5 -19q34 0 55 32q32 49 33 163h48q0 -149 -50 -209t-135 -60q-62 0 -104 29t-55 78q-13 50 -13 167v591h-329l-2 -372q-5 -237 -33 -345q-20 -76 -64.5 -112t-106.5 -36q-80 0 -114.5 60t-34.5 175h50q2 -61 26.5 -86.5
t68.5 -25.5q69 0 104 69q55 110 55 673h-99q-67 0 -99 -26.5t-41 -86.5h-49q10 129 60.5 182.5t140.5 53.5h669q84 0 109 14q38 21 47 80h49q-5 -98 -52.5 -157.5t-152.5 -59.5h-54z" />
    <glyph glyph-name="endash" unicode="&#x2013;" horiz-adv-x="1024" 
d="M-5 460v123h1034v-123h-1034z" />
    <glyph glyph-name="emdash" unicode="&#x2014;" horiz-adv-x="2048" 
d="M242 460v123h1564v-123h-1564z" />
    <glyph glyph-name="quoteleft" unicode="&#x2018;" horiz-adv-x="455" 
d="M199 1510h183l-128 -429h-183z" />
    <glyph glyph-name="quoteright" unicode="&#x2019;" horiz-adv-x="455" 
d="M199 1510h183l-128 -429h-185z" />
    <glyph glyph-name="quotesinglbase" unicode="&#x201a;" horiz-adv-x="455" 
d="M199 244h183l-128 -429h-185z" />
    <glyph glyph-name="quotedblleft" unicode="&#x201c;" horiz-adv-x="910" 
d="M102 1076l130 434h183l-128 -434h-185zM495 1076l133 434h180l-125 -434h-188z" />
    <glyph glyph-name="quotedblright" unicode="&#x201d;" horiz-adv-x="910" 
d="M102 1076l130 434h183l-128 -434h-185zM495 1076l133 434h180l-125 -434h-188z" />
    <glyph glyph-name="quotedblbase" unicode="&#x201e;" horiz-adv-x="910" 
d="M102 -185l130 434h183l-128 -434h-185zM495 -185l133 434h180l-125 -434h-188z" />
    <glyph glyph-name="dagger" unicode="&#x2020;" horiz-adv-x="1024" 
d="M57 728v360h123v-119h252v392h-128v118h407v-118h-133v-392h254v114h121v-355h-121v113h-254v-1033h-144v1033h-254v-113h-123z" />
    <glyph glyph-name="daggerdbl" unicode="&#x2021;" horiz-adv-x="1024" 
d="M57 114v355h121l2 -113h252v576h-252l-2 -114h-121v360h121l2 -123h252v306h-133v118h407v-118h-132v-306h258l2 123h119v-360h-119l-2 114h-258v-576h258l2 109h119v-351h-119l-2 114h-258v-306h128v-119h-408v119h138v306h-252l-2 -114h-121z" />
    <glyph glyph-name="bullet" unicode="&#x2022;" horiz-adv-x="1024" 
d="M512 1105q94 0 181.5 -48.5t138 -137t50.5 -185.5q0 -96 -49.5 -184.5t-137 -137.5t-183.5 -49q-97 0 -185 49t-137.5 137.5t-49.5 184.5q0 97 50.5 186t138.5 137t183 48z" />
    <glyph glyph-name="ellipsis" unicode="&#x2026;" horiz-adv-x="2048" 
d="M341 199q46 0 79 -33.5t33 -79.5t-33 -79t-79 -33q-45 0 -78 33t-33 79t33 79.5t78 33.5zM1023 199q46 0 79 -33.5t33 -79.5t-33 -79t-79 -33t-79.5 33t-33.5 79q0 47 33 80t80 33zM1707 199q45 0 78 -33.5t33 -79.5t-33 -79t-78 -33t-78.5 33t-33.5 79t33 79.5t79 33.5z
" />
    <glyph glyph-name="perthousand" unicode="&#x2030;" horiz-adv-x="2048" 
d="M166 -36l841 1534h121l-839 -1534h-123zM335 856q-54 0 -106.5 19t-91 52.5t-62 71.5t-35.5 78t-12 84q0 82 40.5 156t113 114.5t152.5 40.5q81 0 154.5 -41.5t115 -116.5t41.5 -152t-42.5 -152t-115.5 -114.5t-152 -39.5zM502 1162q0 76 -50 128t-120 52
q-67 0 -116.5 -52t-49.5 -130q0 -76 50 -127.5t119 -51.5q67 0 117 53t50 128zM1710 -5q-55 0 -107 19.5t-91 53t-62.5 71t-35 78t-11.5 84.5q0 81 40.5 155t113 115t152.5 41q81 0 154.5 -41.5t114.5 -117t41 -152.5t-42 -152t-115 -114.5t-152 -39.5zM1877 302
q0 76 -50 127.5t-120 51.5q-67 0 -116.5 -52t-49.5 -130q0 -75 50 -126.5t119 -51.5q67 0 117 53t50 128zM963 -5q-55 0 -107 20t-91 53t-62 70.5t-35 78t-12 84.5q0 81 40.5 155t113 115t152.5 41q81 0 154.5 -41.5t115 -117t41.5 -152.5t-42.5 -151.5t-115.5 -114.5
t-152 -40zM1130 302q0 76 -50 127.5t-119 51.5q-68 0 -117.5 -52t-49.5 -130q0 -75 50 -126.5t120 -51.5q66 0 116 53t50 128z" />
    <glyph glyph-name="guilsinglleft" unicode="&#x2039;" horiz-adv-x="683" 
d="M545 156h-161l-249 323l244 310h161l-244 -308z" />
    <glyph glyph-name="guilsinglright" unicode="&#x203a;" horiz-adv-x="683" 
d="M133 789h161l249 -322l-244 -311h-161l244 309z" />
    <glyph glyph-name="franc" unicode="&#x20a3;" horiz-adv-x="1024" 
d="M123 142v1197h-175v142h1128v-398h-171v256h-587v-474h516v-152h-516v-571h208v-142h-583v142h180z" />
    <glyph glyph-name="trademark" unicode="&#x2122;" horiz-adv-x="2027" 
d="M1194 751h-274v57q50 1 69.5 11.5t27.5 36.5q9 26 9 102v377q0 51 -19.5 63t-79.5 12v57h230l199 -535l182 535h221v-59q-51 0 -65.5 -6.5t-21 -21.5t-6.5 -67v-386q0 -74 4 -84q6 -19 24 -29q11 -6 62 -6v-57h-291v57q43 0 56 5q18 6 29.5 24t11.5 59v467l-209 -612h-45
l-223 612v-415q0 -83 12 -103q22 -38 77 -38q7 0 20 1v-57zM704 751h-323v57q63 0 78.5 7t23 25.5t7.5 81.5v486q-86 1 -120 -13.5t-54.5 -49.5t-33.5 -124h-57l19 246h600l19 -246h-57q1 58 -22 105.5t-55 65t-97 17.5q-10 0 -35 -1v-481q0 -82 16 -100.5t67 -18.5h24v-57z
" />
    <glyph glyph-name="Omega" unicode="&#x2126;" horiz-adv-x="1474" 
d="M1378 355l-18 -355h-531v361q192 22 305 156t113 362q0 247 -140.5 390.5t-370.5 143.5q-227 0 -368 -146t-141 -396q0 -158 55.5 -272t156.5 -175q77 -46 202 -63v-361h-527l-17 355h50q9 -97 36 -156q19 -45 51.5 -60.5t122.5 -15.5h222v184q-224 24 -368 184.5
t-144 382.5q0 280 225 455q188 146 447 146q188 0 345.5 -79t240 -216t82.5 -299q0 -221 -140 -380t-377 -194v-184h225q72 0 103 9t49 28t35 70q10 32 24 125h52z" />
    <glyph glyph-name="partialdiff" unicode="&#x2202;" horiz-adv-x="1025" 
d="M224 1478q158 -52 269 -118q149 -89 245 -209q77 -96 126 -230q65 -183 65 -386q0 -268 -124.5 -412t-304.5 -144q-175 0 -298 136t-123 370q0 228 121.5 362.5t295.5 134.5q135 0 236 -101q-26 98 -69 176t-109.5 145t-147.5 117t-216 108zM782 476q0 108 -16.5 189.5
t-48 134.5t-86 86.5t-127.5 33.5q-142 0 -219 -129q-58 -98 -58 -308q0 -229 94 -352q70 -90 185 -90q103 0 173 75q103 112 103 360z" />
    <glyph glyph-name="Delta" unicode="&#x2206;" horiz-adv-x="1366" 
d="M755 1473l582 -1473h-1309l653 1473h74zM670 1288l-520 -1177h985z" />
    <glyph glyph-name="product" unicode="&#x220f;" horiz-adv-x="1521" 
d="M1458 1464v-49q-90 -3 -117 -13t-38 -33t-11 -94v-1084q0 -68 11 -92t38 -34.5t117 -10.5v-54h-480v54q86 0 113.5 9.5t40 34t12.5 93.5v1084q0 59 -8.5 78t-29 28.5t-75.5 9.5h-546q-55 0 -75 -9.5t-28 -29t-8 -77.5v-1084q0 -68 12 -92t39.5 -35t114.5 -10v-54h-478v54
q73 1 88 3q30 4 45 15t22 29q10 25 10 90v1084q0 69 -11.5 94t-37.5 35t-116 11v49h1396z" />
    <glyph glyph-name="summation" unicode="&#x2211;" horiz-adv-x="1409" 
d="M1231 1464l23 -341h-51q-17 130 -58 178q-56 65 -185 65h-613l399 -560l-482 -683h724q120 0 154 13q34 14 54 49q27 50 44 177h50l-21 -362h-1184l533 743l-515 721h1128z" />
    <glyph glyph-name="minus" unicode="&#x2212;" horiz-adv-x="1228" 
d="M97 448v140h1033v-140h-1033z" />
    <glyph glyph-name="fraction" unicode="&#x2215;" horiz-adv-x="341" 
d="M-351 -26l905 1500h128l-903 -1500h-130z" />
    <glyph glyph-name="periodcentered" unicode="&#x2219;" horiz-adv-x="512" 
d="M389 721q0 -55 -39 -94t-94 -39t-94 39t-39 94q0 54 39 93t94 39t94 -38.5t39 -93.5z" />
    <glyph glyph-name="radical" unicode="&#x221a;" horiz-adv-x="1022" 
d="M1017 1729l-382 -1799h-141l-321 695l-94 -45l-54 108l228 103l296 -665l328 1603h140z" />
    <glyph glyph-name="infinity" unicode="&#x221e;" horiz-adv-x="1545" 
d="M774 593q98 98 141 132q64 51 127 76.5t123 25.5q110 0 200.5 -79t90.5 -229q0 -141 -82.5 -226.5t-211.5 -85.5q-85 0 -171 44q-86 45 -217 177l-102 -93q-45 -39 -96 -70q-51 -32 -97 -45t-96 -13q-126 0 -209.5 85.5t-83.5 220.5q0 140 83.5 226t205.5 86
q62 0 122 -23.5t117.5 -68.5t155.5 -140zM856 511q123 -116 187 -148q64 -33 125 -33q71 0 118 49t47 134q0 89 -48 140.5t-121 51.5q-54 0 -115 -34q-62 -34 -193 -160zM690 512l-144 124q5 -4 -37 22t-72 35.5t-61 9.5q-66 0 -114.5 -52.5t-48.5 -137.5q0 -86 47 -134.5
t124 -48.5q43 0 87.5 18t107.5 66q63 49 111 98z" />
    <glyph glyph-name="integral" unicode="&#x222b;" horiz-adv-x="1150" 
d="M673 1230l-65 -1176q-9 -163 -21 -227q-18 -95 -58 -161t-99 -101.5t-123 -35.5q-61 0 -95.5 31t-34.5 75q0 36 23.5 59t58.5 23q27 0 46.5 -16t33.5 -59q7 -20 11.5 -24.5t10.5 -4.5q15 0 29 17q30 35 43 112q14 77 22 226l68 1209q10 168 31 256t64 146.5t91.5 85.5
t114.5 27q62 0 96.5 -31t34.5 -74q0 -34 -23 -57t-58 -23q-27 0 -46 13.5t-29 43t-16.5 36t-14.5 6.5q-19 0 -40 -38q-40 -73 -55 -338z" />
    <glyph glyph-name="approxequal" unicode="&#x2248;" horiz-adv-x="1229" 
d="M1153 848q-15 -145 -86.5 -218t-166.5 -73q-43 0 -91 11q-84 20 -300 92q-88 30 -118 36q-30 7 -57 7q-59 0 -104 -41.5t-56 -116.5l-99 -1q13 95 36 145q33 69 91 109t125 40q46 0 88 -10q43 -10 273 -84q118 -38 149 -45t61 -7q57 0 100 38.5t59 117.5h96zM1153 490
q-15 -145 -86.5 -218t-166.5 -73q-43 0 -91 11q-93 22 -300 92q-85 29 -116 36t-58 7q-60 0 -105 -42t-56 -116l-99 -1q13 96 36 145q33 68 91.5 108t126.5 40q46 0 86 -9q41 -9 273 -85q116 -37 148 -44q33 -7 63 -7q56 0 99 38.5t59 117.5h96z" />
    <glyph glyph-name="notequal" unicode="&#x2260;" horiz-adv-x="1228" 
d="M846 801h284v-148h-360l-146 -272h506v-147h-583l-155 -296l-129 64l121 232h-286v147h363l145 272h-508v148h584l154 294l130 -68z" />
    <glyph glyph-name="lessequal" unicode="&#x2264;" horiz-adv-x="1228" 
d="M98 606v143l1032 380v-150l-846 -301l846 -305v-151zM1130 147v-147h-1032v147h1032z" />
    <glyph glyph-name="greaterequal" unicode="&#x2265;" horiz-adv-x="1228" 
d="M1130 746v-144l-1032 -380v151l847 301l-847 305v150zM1130 147v-147h-1032v147h1032z" />
    <glyph glyph-name="lozenge" unicode="&#x25ca;" horiz-adv-x="1229" 
d="M682 1528l351 -801l-351 -799h-139l-347 799l348 801h138zM614 1381l-275 -654l275 -655l274 655z" />
    <glyph glyph-name="fi" unicode="&#xfb01;" 
d="M69 0v137h164v674h-162v137h162v176q0 98 12 149q15 68 49.5 112t94 72t149.5 28q24 0 60 -4v-139q-20 2 -33 2q-68 0 -102.5 -20t-44.5 -51q-10 -32 -10 -123v-202h190v-137h-190v-674h190v-137h-529zM778 1178v187h249v-187h-249zM699 948h323v-811h154v-137h-477v137
h147v674h-147v137z" />
    <glyph glyph-name="fl" unicode="&#xfb02;" 
d="M69 0v137h164v674h-162v137h162v176q0 98 11 149q16 67 50.5 111.5t94 72.5t149.5 28q24 0 60 -4v-139q-23 2 -41 2q-65 0 -98 -22t-42 -53q-9 -32 -9 -119v-202h190v-137h-190v-674h190v-137h-529zM704 1481h311v-1344h159v-137h-477v137h147v1205h-140v139z" />
    <glyph glyph-name="frame" horiz-adv-x="1536" 
d="M256 0v1280h1024v-1280h-1024zM288 32h960v1216h-960v-1216z" />
    </font>
</defs>
</svg>
